<svg width="800" height="673" viewBox="0 0 800 673" fill="none" xmlns="http://www.w3.org/2000/svg">
<path d="M526.675 361.251C509.79 371.378 479.706 384.066 448.963 371.026L429.09 362.596L468.913 317.955C437.136 282.914 419.558 237.29 419.609 189.987C419.66 142.684 437.336 97.097 469.188 62.125C501.04 27.153 544.781 5.30551 591.874 0.847077C638.966 -3.61136 686.03 9.6392 723.88 38.0124C761.729 66.3856 787.646 107.845 796.573 154.298C805.5 200.751 796.797 248.864 772.16 289.245C747.524 329.627 708.724 359.378 663.334 372.693C617.943 386.007 569.22 381.929 526.674 361.255L526.675 361.251ZM450.375 189.883C450.287 211.689 454.713 233.277 463.373 253.289C472.033 273.302 484.741 291.306 500.697 306.169L511.682 316.492L486.623 344.583C499.676 341.935 511.045 334.873 516.81 330.772L524.72 325.144L533.227 329.818C556.741 342.693 583.119 349.44 609.927 349.438C697.905 349.438 769.481 277.863 769.481 189.884C769.481 101.905 697.906 30.3288 609.928 30.3288C521.95 30.3288 450.374 101.901 450.374 189.883H450.375Z" fill="#090814"/>
<path d="M434.905 189.883C434.92 151.539 447.531 114.262 470.799 83.7852C494.067 53.3082 526.703 31.3192 563.688 21.2001C600.672 11.081 639.957 13.3922 675.499 27.7782C711.042 42.1643 740.874 67.8284 760.408 100.824C779.942 133.819 788.095 172.317 783.614 210.398C779.133 248.479 762.266 284.033 735.606 311.593C708.947 339.152 673.972 357.19 636.06 362.933C598.149 368.675 559.401 361.804 525.776 343.376C513.676 351.984 484.162 369.154 455.005 356.786L490.105 317.442C472.657 301.095 458.755 281.337 449.259 259.394C439.764 237.452 434.878 213.792 434.905 189.883Z" fill="#F2F2F2"/>
<path d="M755.136 190.262C755.133 146.522 738.754 104.368 709.223 72.1013C679.692 39.8349 639.151 19.7945 595.582 15.9268C600.682 15.4798 605.837 15.2388 611.051 15.2388C634.035 15.2388 656.795 19.7659 678.029 28.5617C699.264 37.3574 718.559 50.2495 734.811 66.5019C751.063 82.7543 763.955 102.049 772.751 123.283C781.547 144.518 786.074 167.277 786.074 190.262C786.074 213.246 781.547 236.005 772.751 257.24C763.955 278.475 751.063 297.769 734.811 314.022C718.559 330.274 699.264 343.166 678.029 351.962C656.795 360.758 634.035 365.285 611.051 365.285C605.845 365.285 600.697 365.04 595.606 364.595C639.17 360.721 679.705 340.679 709.231 308.413C738.757 276.148 755.133 233.998 755.136 190.262Z" fill="#E6E6E6"/>
<path d="M206.606 604.396C162.872 604.418 120.459 589.407 86.4748 561.879C52.491 534.351 29.0018 495.979 19.9437 453.193C10.8856 410.407 16.8091 365.807 36.7216 326.869C56.634 287.931 89.3253 257.02 129.316 239.317C169.308 221.614 214.169 218.195 256.381 229.633C298.593 241.07 335.591 266.669 361.175 302.14C386.759 337.611 399.373 380.797 396.904 424.462C394.436 468.126 377.033 509.615 347.614 541.976L387.437 586.618L367.564 595.048C336.821 608.088 306.738 595.399 289.852 585.273C263.903 597.852 235.443 604.39 206.606 604.396ZM206.606 254.35C118.628 254.35 47.052 325.926 47.052 413.904C47.052 501.882 118.628 573.458 206.606 573.458C233.421 573.46 259.805 566.71 283.324 553.831L291.817 549.164L299.727 554.792C305.492 558.892 316.861 565.955 329.914 568.603L304.855 540.512L315.84 530.189C331.796 515.326 344.504 497.322 353.164 477.309C361.824 457.297 366.25 435.709 366.162 413.903C366.162 325.925 294.586 254.349 206.608 254.349L206.606 254.35Z" fill="#090814"/>
<path d="M381.629 413.903C381.614 375.559 369.003 338.282 345.735 307.805C322.467 277.328 289.831 255.339 252.846 245.22C215.862 235.101 176.577 237.412 141.035 251.798C105.492 266.184 75.6595 291.848 56.1258 324.844C36.592 357.839 28.4387 396.337 32.9199 434.418C37.401 472.499 54.2684 508.054 80.9278 535.613C107.587 563.172 142.562 581.21 180.474 586.953C218.385 592.695 257.133 585.824 290.758 567.396C302.858 576.004 332.371 593.174 361.529 580.806L326.429 541.462C343.877 525.115 357.779 505.357 367.275 483.414C376.77 461.472 381.656 437.812 381.629 413.903Z" fill="#F2F2F2"/>
<path d="M62.521 413.019C62.5236 369.279 78.9031 327.125 108.434 294.858C137.965 262.592 178.506 242.552 222.075 238.684C216.975 238.237 211.82 237.996 206.606 237.996C160.187 237.996 115.669 256.436 82.8461 289.259C50.0229 322.082 31.583 366.6 31.583 413.019C31.583 459.438 50.0229 503.956 82.8461 536.779C115.669 569.602 160.187 588.042 206.606 588.042C211.812 588.042 216.96 587.797 222.051 587.352C178.487 583.478 137.952 563.436 108.426 531.17C78.9003 498.905 62.5238 456.755 62.521 413.019Z" fill="#E6E6E6"/>
<path d="M651.016 134.278C639.565 114.929 616.909 114.027 616.909 114.027C616.909 114.027 594.832 111.204 580.67 140.673C567.47 168.141 549.252 194.662 577.737 201.092L582.882 185.078L586.068 202.285C590.124 202.576 594.193 202.646 598.256 202.493C628.761 201.508 657.813 202.781 656.878 191.834C655.635 177.282 662.035 152.896 651.016 134.278Z" fill="#090814"/>
<path d="M576.111 303.73C575.775 305.858 575.286 307.959 574.65 310.018C573.933 312.033 572.827 313.897 572.172 315.932C570.083 322.421 572.979 329.657 577.603 334.665C581.612 338.99 586.787 342.064 592.503 343.515C596.713 344.416 601.006 344.867 605.311 344.861C617.211 345.261 629.426 345.626 640.711 341.8C644.275 340.561 647.717 338.997 650.994 337.128C652.028 336.635 652.94 335.918 653.662 335.028C654.418 333.724 654.754 332.219 654.625 330.718C654.6 325.671 653.577 320.651 653.82 315.61C653.955 312.818 654.477 310.028 654.22 307.244C653.864 304.083 652.54 301.109 650.429 298.729C648.317 296.349 645.522 294.68 642.426 293.95C639.226 293.263 635.907 293.637 632.649 293.95C624.193 294.762 615.7 295.142 607.205 295.088C598.525 295.033 589.899 293.708 581.262 293.569C578.708 293.528 578.762 294.315 577.946 296.787C577.197 299.062 576.584 301.38 576.111 303.728V303.73Z" fill="#090814"/>
<path d="M600.743 179.118C600.484 181.334 599.74 183.466 598.562 185.361C597.052 187.426 594.59 188.606 592.962 190.582C590.517 193.557 590.376 197.743 590.362 201.593C590.353 205.14 590.425 208.924 592.403 211.869C593.811 213.698 595.559 215.239 597.55 216.407C604.969 221.407 612.985 226.496 621.93 226.661C625.636 226.729 629.61 225.772 632.048 222.981C633.101 221.669 633.929 220.192 634.498 218.61C636.785 212.972 638.171 207.009 638.606 200.941C638.936 198.088 638.669 195.198 637.824 192.453C636.737 189.423 634.54 186.931 633.088 184.058C631.371 180.642 630.743 176.783 631.288 172.999C631.36 172.733 631.338 172.45 631.225 172.199C631.106 172.064 630.957 171.959 630.79 171.891C630.623 171.823 630.443 171.795 630.263 171.809L612.527 170.532C610.875 170.45 609.231 170.262 607.603 169.969C606.647 169.775 604.122 168.417 603.21 168.778C601.532 169.446 601.089 177.307 600.743 179.118Z" fill="#ED9DA0"/>
<path d="M617.705 181.496C632.075 181.496 643.725 169.846 643.725 155.476C643.725 141.105 632.075 129.456 617.705 129.456C603.335 129.456 591.685 141.105 591.685 155.476C591.685 169.846 603.335 181.496 617.705 181.496Z" fill="#ED9DA0"/>
<path d="M604.393 213.755C605.678 215.243 607.228 216.482 608.963 217.407C610.772 218.155 612.715 218.524 614.673 218.494C619.363 218.626 624.448 217.766 627.711 214.394C631.917 210.047 631.778 203.036 635.075 197.965C635.341 197.505 635.703 197.109 636.137 196.803C636.69 196.502 637.315 196.358 637.944 196.387C642.108 196.348 645.735 199.049 649.008 201.622C650.548 202.682 651.87 204.029 652.902 205.589C653.549 206.852 653.992 208.209 654.215 209.611C655.839 217.541 656.366 225.648 656.888 233.726C657.176 238.188 657.465 242.653 657.443 247.126C657.372 261.855 653.949 276.338 650.543 290.669C650.104 292.516 649.504 294.579 647.825 295.464C647.076 295.8 646.272 295.997 645.453 296.043C635.721 297.353 625.928 298.168 616.113 298.486C612.282 298.544 608.452 298.452 604.625 298.208C603.966 298.199 603.313 298.085 602.69 297.871C601.844 297.465 601.118 296.848 600.58 296.079C595.27 289.388 594.956 280.136 594.99 271.594C595.073 250.708 595.819 229.839 597.229 208.987C597.345 207.266 597.371 205.176 596.129 203.822C598.544 207.401 601.311 210.729 604.389 213.756L604.393 213.755Z" fill="#6C63FF"/>
<path d="M598.881 183.711C598.002 185.302 591.523 189.252 590.272 190.571C583.283 197.938 570.528 197.661 564.136 205.551C561.887 208.327 560.719 211.815 559.859 215.283C558.644 220.183 557.995 225.536 560.031 230.161C561.99 234.611 566.114 237.687 568.914 241.661C571.988 246.025 573.37 251.325 574.695 256.496C575.673 260.314 576.659 264.227 576.278 268.151C575.845 272.612 573.686 276.696 572.412 280.993C571.138 285.29 570.918 290.407 573.864 293.783C576.029 296.264 579.425 297.247 582.67 297.8C586.827 298.425 591.019 298.79 595.221 298.893C598.931 299.057 603.021 299.093 605.873 296.71C608.124 294.833 609.102 291.788 609.228 288.86C609.193 285.929 608.904 283.006 608.364 280.125C607.964 277.113 607.816 274.075 607.689 271.04C607.118 257.421 607.04 243.794 607.455 230.159C607.664 227.325 607.525 224.476 607.041 221.676C606.241 218.028 604.274 214.768 602.629 211.417C599.343 205.104 597.855 198.009 598.329 190.908C598.826 183.61 602.009 178.05 598.881 183.711Z" fill="#6C63FF"/>
<path d="M635.42 184.265C636.759 185.641 641.307 186.094 643.01 186.98C644.612 187.72 646.283 188.298 647.999 188.707C654.21 190.499 660.118 193.211 665.527 196.752C666.651 197.409 667.644 198.268 668.458 199.284C669.315 200.679 669.868 202.239 670.079 203.863C671.08 207.96 671.578 212.164 671.563 216.382C671.363 220.85 670.018 225.182 668.683 229.446L663.694 245.395C659.97 257.3 656.223 269.323 655.175 281.753C654.595 288.642 654.853 295.576 655.943 302.403C656.045 302.735 656.076 303.085 656.032 303.43C655.989 303.775 655.873 304.106 655.691 304.403C655.362 304.728 654.93 304.927 654.469 304.965C652.061 305.342 649.731 304.114 647.549 303.027C640.881 299.709 633.765 297.38 626.426 296.115C629.294 291.97 631.507 287.408 632.987 282.59C633.827 279.531 634.489 276.426 634.969 273.29L637.29 259.867C638.234 254.961 638.899 250.005 639.281 245.024C639.456 243.155 639.347 241.269 638.958 239.433C638.423 237.685 637.713 235.995 636.838 234.39C633.013 226.434 631.219 217.355 632.724 208.657C633.383 204.85 634.662 201.039 634.124 197.213C633.611 193.534 634.144 190.675 633.2 187.035C629.331 172.085 632.902 181.676 635.42 184.265Z" fill="#6C63FF"/>
<path d="M564.07 218.129C562.326 221.747 559.411 224.829 558.419 228.722C558.033 230.541 557.867 232.399 557.926 234.258C557.754 237.059 558.031 239.869 558.747 242.583C559.301 244.299 560.202 245.883 560.847 247.565C561.752 249.916 562.155 252.43 562.03 254.946C561.855 258.431 560.671 261.815 560.578 265.303C560.432 270.789 562.97 275.946 565.446 280.844C566.069 279.301 567.022 277.912 568.238 276.776C569.454 275.639 570.903 274.782 572.485 274.264C574.066 273.746 575.742 273.58 577.395 273.778C579.047 273.975 580.637 274.531 582.052 275.407C582.619 274.71 582.888 273.818 582.8 272.924C582.983 266.559 583.159 260.195 583.33 253.83C583.598 243.986 583.853 234.011 581.589 224.43C580.567 220.103 578.976 215.793 576.059 212.436C574.523 210.669 569.31 206.014 566.789 207.994C565.655 208.884 565.92 211.308 565.741 212.535C565.47 214.476 564.905 216.364 564.064 218.135L564.07 218.129Z" fill="#6C63FF"/>
<path d="M672.074 207.702C672.776 210.311 673.076 213.011 672.965 215.711C672.998 221.213 672.925 226.713 672.746 232.211C672.773 235.032 672.413 237.844 671.674 240.567C671.111 242.338 670.242 243.998 669.66 245.767C667.917 251.056 668.869 256.792 669.019 262.359C669.124 264.161 668.97 265.968 668.562 267.726C667.642 271.177 665.171 273.965 663.445 277.092C661.807 280.062 660.818 283.392 658.861 286.161C656.904 288.93 653.517 291.127 650.233 290.276C647.745 289.632 645.978 287.43 644.755 285.169C642.087 280.199 641.174 274.474 642.165 268.921C643.393 262.165 647.365 256.171 648.792 249.455C650.757 240.232 647.77 230.715 647.859 221.286C647.819 219.808 648.019 218.333 648.453 216.92C649.204 214.766 650.816 213.046 652.306 211.32C654.168 209.16 655.897 206.889 657.484 204.52C658.55 202.93 659.999 198.839 661.889 198.499C666.107 197.743 671.027 204.441 672.074 207.702Z" fill="#6C63FF"/>
<path d="M542.169 299.63C539.835 299.043 537.43 298.788 535.025 298.871C532.498 299.01 530.029 299.686 527.784 300.854C525.538 302.022 523.566 303.654 522 305.642C520.434 307.631 519.31 309.93 518.701 312.386C518.092 314.843 518.013 317.401 518.47 319.891C519.053 322.588 520.005 325.191 521.301 327.627C523.196 331.472 525.468 335.308 528.976 337.772C531.089 339.127 533.365 340.21 535.749 340.996L554.223 347.955C556.941 348.979 559.659 350.003 562.403 350.955C576.191 355.721 590.567 358.579 605.13 359.449C609.561 359.864 614.029 359.638 618.396 358.777C619.452 358.639 620.419 358.116 621.113 357.309C621.464 356.697 621.672 356.013 621.72 355.309L622.857 347.351C623.11 346.242 623.076 345.087 622.757 343.996C622.088 342.713 621.006 341.693 619.686 341.102C607.541 334.126 593.36 330.278 583.137 320.702C580.73 318.448 578.716 314.876 575.792 313.345C572.476 311.609 568.571 310.618 565.144 309.018C557.656 305.515 550.289 301.496 542.169 299.63Z" fill="#090814"/>
<path opacity="0.1" d="M560.612 310.358C567.142 312.404 594.712 326.579 599.435 331.529C598.802 331.757 577.312 319.714 576.667 319.52C570.756 317.898 564.968 315.859 559.345 313.42C558.225 312.902 552.07 310.468 552.345 309.055C552.664 307.456 559.453 309.994 560.612 310.358Z" fill="black"/>
<path d="M642.069 363.574C642.439 363.602 642.807 363.496 643.104 363.274C643.234 363.107 643.33 362.915 643.386 362.711C643.441 362.506 643.456 362.293 643.428 362.083L643.398 351.241C640.28 349.756 636.793 349.279 633.37 348.822L617.399 346.687C617.766 346.736 614.899 353.566 615.341 354.478C616.115 356.085 622.03 357.509 623.7 358.268C629.506 360.901 635.537 363.801 642.069 363.574Z" fill="#ED9DA0"/>
<path d="M591.964 351.198C588.948 351.678 585.583 352.098 583.63 354.45C581.153 357.427 582.208 361.864 583.389 365.55C583.461 366.025 583.629 366.482 583.88 366.892C584.132 367.302 584.464 367.657 584.855 367.937C585.247 368.216 585.691 368.415 586.16 368.52C586.63 368.625 587.115 368.636 587.589 368.55C590.339 368.724 593.266 368.861 595.669 367.512C596.757 366.793 597.805 366.014 598.808 365.179C600.58 364 602.528 363.109 604.579 362.541C608.349 361.355 612.23 360.555 616.162 360.154C617.711 360.085 619.245 359.816 620.725 359.354C621.464 359.116 622.139 358.71 622.696 358.169C623.254 357.628 623.679 356.966 623.939 356.234C624.496 354.264 623.35 352.255 622.252 350.527C620.986 348.265 619.344 346.236 617.395 344.527C614.419 342.215 612.947 343.99 609.949 345.469C604.275 348.269 598.213 350.201 591.965 351.2L591.964 351.198Z" fill="#ED9DA0"/>
<path d="M584.084 353.911L564.937 348.252C562.64 347.452 560.24 346.987 557.811 346.871C556.595 346.821 555.382 347.031 554.253 347.487C553.125 347.944 552.107 348.636 551.267 349.517C549.782 351.26 549.357 353.641 548.987 355.901L548.195 360.734C547.667 363.17 547.518 365.673 547.752 368.155C547.879 369.396 548.287 370.591 548.946 371.651C549.604 372.71 550.496 373.606 551.552 374.269C554.202 375.715 557.452 375.009 560.406 374.404C566.379 373.183 572.455 372.531 578.551 372.458C580.843 372.431 583.251 372.458 585.272 371.386C586.448 370.689 587.437 369.716 588.152 368.551C588.866 367.385 589.285 366.063 589.372 364.699C589.748 360.574 588.372 355.182 584.084 353.911Z" fill="#2F2E41"/>
<path d="M649.601 348.983C652.083 348.548 654.274 347.137 656.652 346.305C660 345.133 663.628 345.133 667.175 345.146C668.479 345.027 669.79 345.289 670.948 345.902C672.51 346.942 672.911 349.024 673.177 350.882L674.777 362.093C675.206 364.184 675.25 366.336 674.908 368.444C674.723 369.496 674.259 370.479 673.564 371.291C672.87 372.103 671.971 372.714 670.96 373.06C668.46 373.711 666.002 372.111 663.638 371.06C657.729 368.434 650.861 369.105 644.7 367.142C644.111 367.024 643.554 366.782 643.065 366.433C642.577 366.083 642.168 365.634 641.866 365.115C641.655 364.492 641.58 363.832 641.646 363.178C641.751 359.578 640.991 354.654 642.076 351.21C643.053 348.113 646.83 348.983 649.601 348.983Z" fill="#2F2E41"/>
<path d="M690.121 295.115C693.947 294.156 697.913 293.885 701.834 294.315C704.965 294.66 708.192 295.531 710.478 297.699C713.261 300.337 714.155 304.417 714.229 308.25C714.351 315.886 711.819 323.327 707.064 329.303C705.902 330.814 704.52 332.144 702.964 333.246C701.287 334.295 699.499 335.156 697.634 335.814L656.263 352.132C645.379 356.425 634.457 360.732 623.104 363.56C622.794 363.71 622.456 363.796 622.112 363.813C621.768 363.831 621.424 363.779 621.1 363.662C620.776 363.544 620.479 363.363 620.226 363.129C619.973 362.895 619.769 362.613 619.627 362.299C616.002 357.121 612.961 351.558 610.559 345.712C610.445 345.573 610.367 345.409 610.33 345.233C610.294 345.057 610.3 344.875 610.348 344.702C610.397 344.53 610.486 344.371 610.609 344.24C610.731 344.109 610.884 344.01 611.053 343.95L640.315 327.137C642.461 326.019 644.461 324.642 646.271 323.037C647.536 321.811 648.571 320.37 649.329 318.78C649.936 317.513 649.992 314.523 650.767 313.587C651.526 312.67 654.121 312.597 655.319 312.236C657.009 311.718 658.665 311.093 660.275 310.363C666.821 307.435 672.65 303.18 678.925 299.751C682.444 297.739 686.205 296.182 690.117 295.118L690.121 295.115Z" fill="#090814"/>
<path opacity="0.1" d="M673.531 307.673C668.504 311.449 661.994 314.92 657.012 318.795C655.312 320.118 626.963 336.055 626.563 338.172C631.212 338.955 660.823 318.24 665.063 316.172C669.229 313.957 673.154 311.318 676.777 308.296C677.725 307.559 681.745 305.342 679.022 304.518C677.484 304.055 674.664 306.918 673.531 307.673Z" fill="black"/>
<path d="M638.939 184.63H594.809C593.016 184.63 591.297 185.342 590.029 186.61C588.761 187.878 588.049 189.597 588.049 191.39V193.866H587.57V199.402H588.049V203.277H587.57V206.599H588.049V247.449C588.049 249.242 588.761 250.961 590.029 252.229C591.297 253.497 593.016 254.209 594.809 254.209H638.94C640.733 254.209 642.452 253.497 643.72 252.229C644.988 250.961 645.7 249.242 645.7 247.449V191.39C645.7 190.502 645.525 189.623 645.185 188.803C644.846 187.982 644.347 187.237 643.72 186.609C643.092 185.982 642.347 185.484 641.526 185.144C640.706 184.804 639.827 184.63 638.939 184.63Z" fill="#D0CDE1"/>
<path d="M645.954 132.413L623.571 120.688L592.661 125.488L586.266 153.733L602.185 153.12L606.632 142.744V152.95L613.978 152.667L618.241 136.146L620.906 153.733L647.02 153.2L645.954 132.413Z" fill="#090814"/>
<path d="M569.926 291.459C570.939 293.18 572.378 294.611 574.104 295.615C575.237 296.132 576.472 296.384 577.717 296.351C578.962 296.317 580.183 296 581.286 295.423C583.49 294.24 585.294 292.431 586.469 290.223C588.902 285.923 589.405 280.787 589.102 275.86C588.799 270.933 587.746 266.081 587.281 261.167C586.942 257.594 586.915 254.001 586.888 250.412C586.804 249.657 586.962 248.895 587.34 248.237C587.99 247.589 588.832 247.169 589.74 247.037C594.649 245.578 597.908 240.977 600.24 236.419C601.8 233.376 603.157 230.049 602.856 226.642C602.555 223.235 600.107 219.804 596.704 219.456C593.904 219.17 591.309 220.951 589.286 222.915C584.182 227.899 580.902 234.455 579.973 241.528C579.529 244.992 579.656 248.55 578.714 251.912C576.702 259.092 570.409 263.494 567.272 269.954C563.819 277.078 565.727 285.16 569.926 291.459Z" fill="#ED9DA0"/>
<path d="M662.544 264.029C661.828 265.694 660.786 267.199 659.479 268.455C658.173 269.711 656.627 270.692 654.935 271.341C652.831 272.186 650.511 272.328 648.32 271.746C647.233 271.445 646.231 270.897 645.391 270.145C644.55 269.393 643.894 268.458 643.474 267.412C643.139 266.358 642.955 265.262 642.928 264.156C642.613 259.314 642.735 254.325 644.493 249.803C645.171 248.059 646.086 246.403 646.621 244.612C647.147 242.541 647.415 240.413 647.421 238.276L647.999 225.065C648.093 224.106 648.026 223.138 647.799 222.201C647.222 220.289 645.436 219.047 643.799 217.907C639.84 215.154 635.928 211.941 634.01 207.518C633.352 206.187 633.116 204.687 633.334 203.218C633.875 200.595 636.522 198.896 639.134 198.324C640.846 197.95 642.616 197.926 644.338 198.254C646.059 198.582 647.697 199.255 649.151 200.233C650.606 201.21 651.847 202.472 652.801 203.943C653.755 205.413 654.401 207.061 654.701 208.788C654.96 210.279 654.956 211.802 655.108 213.307C655.429 216.501 656.443 219.579 657.078 222.726C658.64 230.477 657.831 238.488 659.378 246.238C660.675 252.712 665.546 256.941 662.544 264.029Z" fill="#ED9DA0"/>
<path d="M617.465 214.349C620.522 214.349 623.001 211.87 623.001 208.813C623.001 205.755 620.522 203.277 617.465 203.277C614.408 203.277 611.929 205.755 611.929 208.813C611.929 211.87 614.408 214.349 617.465 214.349Z" fill="#6C63FF"/>
<path d="M16.331 407.786C25.3504 407.786 32.662 400.474 32.662 391.455C32.662 382.435 25.3504 375.124 16.331 375.124C7.31164 375.124 0 382.435 0 391.455C0 400.474 7.31164 407.786 16.331 407.786Z" fill="#090814"/>
<path d="M75.53 439.939L67.304 431.939L50.786 437.07L52.372 456.196L86.335 454.619L75.9 440.445L75.53 439.939Z" fill="#ED9DA0"/>
<path d="M57.539 439.774C72.121 439.774 83.942 427.953 83.942 413.371C83.942 398.789 72.121 386.968 57.539 386.968C42.957 386.968 31.136 398.789 31.136 413.371C31.136 427.953 42.957 439.774 57.539 439.774Z" fill="#ED9DA0"/>
<path d="M221.451 473.827C221.451 473.827 253.888 529.57 261.607 537.939C265.278 542.057 269.189 545.955 273.32 549.613C273.32 549.613 269.69 561.651 263.91 561.221C260.617 561.02 257.388 560.222 254.38 558.866C254.38 558.866 251.8 552.179 247.3 549.246C242.8 546.313 206.037 510.146 206.9 498.586C207.763 487.026 221.451 473.827 221.451 473.827Z" fill="#090814"/>
<path d="M105.934 553.375C105.934 553.375 140.519 580.219 187.521 554.995L191.572 552.014C191.572 552.014 184.736 567.392 184.102 571.561C183.367 576.395 165.57 604.712 162.666 606.069C159.762 607.426 159.122 608.677 159.122 608.677L171.447 622.242L176.004 618.888C176.004 618.888 193.772 593.714 198.969 589.109C204.166 584.504 228.926 537.009 228.926 537.009C228.926 537.009 238.393 519.115 214.767 517.769C191.141 516.423 180.267 522.863 180.267 522.863L138.337 529.524L105.934 553.375Z" fill="#090814"/>
<path d="M273.721 546.976L291.214 559.076C291.214 559.076 313.531 566.068 299.784 570.721C286.037 575.374 249.81 577.057 248.984 570.637C248.158 564.217 250.413 554.112 252.22 554.665C254.027 555.218 266.576 558.478 273.721 546.976Z" fill="#2F2E41"/>
<path d="M177.551 614.731L180.789 632.511C180.789 632.511 189.995 650.118 178.942 644.655C167.889 639.192 145.114 618.44 148.477 614.09C151.84 609.74 159.262 605.021 160.016 606.439C160.77 607.857 166.348 617.348 177.551 614.731Z" fill="#2F2E41"/>
<path d="M144.195 535.365C144.195 535.365 120.685 562.813 106.412 556.146C92.139 549.479 33.744 472.246 40.412 457.977C47.08 443.708 49.312 446.742 49.312 446.742L79.463 449.53L70.788 435.621C72.0137 434.783 73.5114 434.441 74.9792 434.664C76.447 434.886 77.7759 435.657 78.698 436.821C82.558 441.005 98.054 451.456 103.452 466.216C108.85 480.976 124.702 480.242 124.702 480.242L144.195 535.365Z" fill="#6C63FF"/>
<path d="M239.134 478.764L198.381 522.024L161.874 457.568L196.58 415.636L239.134 478.764Z" fill="#3F3D56"/>
<path d="M236.059 478.298L199.251 516.313L165.897 457.733L196.486 419.222L236.059 478.298Z" fill="white"/>
<path d="M196.384 520.373L198.384 522.026L197.104 524.526L140.118 541.487L139.579 539.535L142.172 536.854L196.384 520.373Z" fill="#B3B3B3"/>
<path d="M198.888 521.653L139.877 540.103L103.905 472.131L161.874 457.569L198.888 521.653Z" fill="#D0CDE1"/>
<path d="M194.445 512.434L191.913 514.297L163.813 465.509L166.713 464.152L194.445 512.434Z" fill="#3F3D56"/>
<path d="M188.636 515.147L163.673 522.59L135.335 472.417L160.035 466.732L188.636 515.147Z" fill="#3F3D56"/>
<path d="M118.312 477.921L123.48 476.459C123.48 476.459 152.303 473.2 152.723 482.259C153.143 491.318 119.611 487.114 119.611 487.114L115.14 481.038L118.312 477.921Z" fill="#ED9DA0"/>
<path d="M143.592 518.637L150.786 515.685C150.786 515.685 172.501 505.949 166.271 499.606C160.041 493.263 140.83 504.282 140.83 504.282L137.152 507.769L143.592 518.637Z" fill="#ED9DA0"/>
<path d="M137.181 504.622C137.181 504.622 148.894 516.296 146.229 519.038C143.564 521.78 99.858 557.846 89.029 546.306C78.2 534.766 25.409 476.826 45.949 471.858C66.489 466.89 71.916 478.506 71.916 478.506L99.031 524.896L137.181 504.622Z" fill="#6C63FF"/>
<path d="M102.109 469.161L121.35 475.685L121.036 489.576L100.686 487.38L102.109 469.161Z" fill="#6C63FF"/>
<path opacity="0.2" d="M119.45 511.817L98.72 523.951L75.035 487.524L97.898 517.53L119.45 511.817Z" fill="black"/>
<path d="M45.95 437.15C63.3094 437.15 77.382 423.077 77.382 405.718C77.382 388.358 63.3094 374.286 45.95 374.286C28.5906 374.286 14.518 388.358 14.518 405.718C14.518 423.077 28.5906 437.15 45.95 437.15Z" fill="#090814"/>
<path d="M215.782 481.508L193.773 449.308L203.103 437.759L225.972 470.883L215.782 481.508Z" fill="#6C63FF"/>
<path d="M215.165 494.453L181.659 445.742L183.312 443.742L216.662 492.568L215.165 494.453Z" fill="#E6E6E6"/>
<path d="M210.847 499.192L177.341 450.481L178.994 448.481L212.344 497.308L210.847 499.192Z" fill="#E6E6E6"/>
<path d="M207.169 502.679L173.663 453.968L175.316 451.968L208.666 500.795L207.169 502.679Z" fill="#E6E6E6"/>
<path d="M59.869 384.732H69.592C74.5149 384.733 79.2358 386.689 82.7165 390.17C86.1971 393.652 88.1523 398.373 88.152 403.296H59.869V384.732Z" fill="#090814"/>
<path d="M193.809 372.92L192.046 372.789C191.978 373.706 191.929 374.628 191.871 375.547L183.959 375.282L192.259 390.835L201.58 375.872L193.639 375.606C193.695 374.708 193.742 373.813 193.809 372.92Z" fill="#3F3D56"/>
<path d="M240.218 246.145L241.623 247.218C243.731 244.457 245.933 241.701 248.167 239.025L246.81 237.892C244.559 240.587 242.341 243.364 240.218 246.145Z" fill="#3F3D56"/>
<path d="M253.76 229.939L255.065 231.131C257.41 228.562 259.846 226.012 262.302 223.548L261.05 222.3C258.576 224.781 256.123 227.351 253.76 229.939Z" fill="#3F3D56"/>
<path d="M268.669 214.989L269.869 216.289C272.434 213.934 275.083 211.607 277.74 209.374L276.603 208.02C273.921 210.273 271.253 212.617 268.669 214.989Z" fill="#3F3D56"/>
<path d="M228.151 263.489L229.645 264.433C231.503 261.493 233.454 258.553 235.445 255.692L233.994 254.682C231.988 257.564 230.023 260.529 228.151 263.489Z" fill="#3F3D56"/>
<path d="M284.826 201.414L285.902 202.814C288.664 200.693 291.502 198.614 294.348 196.62L293.335 195.171C290.471 197.178 287.608 199.277 284.826 201.414Z" fill="#3F3D56"/>
<path d="M217.66 281.839L219.232 282.647C220.825 279.547 222.509 276.447 224.237 273.424L222.702 272.546C220.961 275.592 219.264 278.718 217.66 281.839Z" fill="#3F3D56"/>
<path d="M200.608 331.602L198.896 331.161C198.022 334.553 197.214 338.012 196.496 341.443L198.226 341.807C198.939 338.403 199.741 334.969 200.608 331.602Z" fill="#3F3D56"/>
<path d="M302.109 189.319L303.058 190.811C305.988 188.946 309.001 187.122 312.013 185.388L311.131 183.856C308.096 185.6 305.061 187.438 302.109 189.319Z" fill="#3F3D56"/>
<path d="M196.292 352.108L194.547 351.821C193.979 355.272 193.481 358.789 193.065 362.274L194.821 362.483C195.234 359.025 195.729 355.534 196.292 352.108Z" fill="#3F3D56"/>
<path d="M208.836 301.057L210.474 301.723C211.785 298.497 213.187 295.254 214.642 292.087L213.036 291.349C211.569 294.54 210.156 297.804 208.836 301.057Z" fill="#3F3D56"/>
<path d="M201.755 320.997L203.446 321.513C204.466 318.177 205.573 314.821 206.739 311.537L205.073 310.946C203.899 314.254 202.782 317.635 201.755 320.997Z" fill="#3F3D56"/>
<path d="M421.699 154.079C425.165 153.959 428.694 153.911 432.185 153.944L432.201 152.176C428.686 152.143 425.129 152.191 421.639 152.312L421.699 154.079Z" fill="#3F3D56"/>
<path d="M320.383 178.796L321.196 180.365C324.283 178.765 327.444 177.215 330.59 175.758L329.847 174.158C326.677 175.623 323.493 177.185 320.383 178.796Z" fill="#3F3D56"/>
<path d="M463.533 156.283C466.982 156.771 470.462 157.343 473.878 157.983L474.203 156.245C470.762 155.601 467.256 155.025 463.78 154.533L463.533 156.283Z" fill="#3F3D56"/>
<path d="M484.138 160.139C487.524 160.93 490.938 161.809 494.291 162.751L494.769 161.051C491.393 160.102 487.951 159.217 484.54 158.42L484.138 160.139Z" fill="#3F3D56"/>
<path d="M504.317 165.811C507.617 166.9 510.942 168.079 514.197 169.316L514.825 167.664C511.545 166.417 508.197 165.229 504.871 164.132L504.317 165.811Z" fill="#3F3D56"/>
<path d="M442.666 154.265C446.147 154.448 449.666 154.71 453.122 155.044L453.293 153.285C449.81 152.948 446.265 152.685 442.759 152.5L442.666 154.265Z" fill="#3F3D56"/>
<path d="M400.592 153.967L400.808 155.722C404.253 155.298 407.761 154.945 411.234 154.672L411.096 152.909C407.597 153.184 404.063 153.54 400.592 153.967Z" fill="#3F3D56"/>
<path d="M359.35 162.811L359.873 164.499C363.195 163.47 366.586 162.499 369.95 161.623L369.503 159.913C366.113 160.799 362.697 161.774 359.35 162.811Z" fill="#3F3D56"/>
<path d="M339.504 169.939L340.175 171.575C343.389 170.256 346.675 168.994 349.934 167.822L349.334 166.159C346.05 167.338 342.743 168.61 339.504 169.939Z" fill="#3F3D56"/>
<path d="M379.775 157.469L380.145 159.198C383.545 158.47 387.004 157.807 390.438 157.229L390.144 155.485C386.686 156.069 383.196 156.736 379.775 157.469Z" fill="#3F3D56"/>
<path d="M540.574 180.247L530.694 165.647L527.22 172.798C526.379 172.423 525.543 172.039 524.703 171.675L524.003 173.298C524.823 173.653 525.634 174.025 526.45 174.389L522.993 181.506L540.574 180.247Z" fill="#3F3D56"/>
<path d="M604.588 651.283C606.997 662.846 620.728 648.633 620.728 648.633L637.109 646.706C637.109 646.706 647.468 646.946 654.213 652.246C660.958 657.546 665.535 650.56 665.535 650.56C673.134 653.093 682.445 653.083 690.508 652.272C702.127 651.103 711.44 642.134 713.037 630.567C722.044 565.312 672.521 533.244 672.521 533.244L658.067 494.218C658.067 494.218 662.644 482.896 664.09 472.779C665.535 462.661 654.936 453.025 641.927 443.389C636.236 439.174 629.715 439.477 624.179 441.151C617.97 443.03 612.553 446.894 608.55 452C605.234 456.23 599.547 462.221 593.295 463.258C591.132 463.615 588.998 464.473 587.003 466.034C584.941 467.648 584.03 470.341 584.001 473.689C583.847 488.316 595.926 505.926 606.516 508.672C619.524 512.045 612.538 544.084 612.538 544.084C591.339 573.955 606.275 607.199 606.275 607.199L602.42 634.179C602.42 634.179 602.179 639.72 604.588 651.283Z" fill="#3F3D56"/>
<path d="M675.412 589.131L670.112 655.137C670.112 655.137 677.339 673.445 652.768 672.481C628.196 671.518 642.65 633.938 642.65 633.938L650.359 584.795" fill="#3F3D56"/>
<path d="M654.596 673C653.995 673 653.38 672.988 652.749 672.963C647.309 672.75 643.304 670.746 640.843 667.009C633.808 656.322 641.633 635.256 642.182 633.813L649.883 584.721C649.924 584.458 650.169 584.281 650.433 584.319C650.696 584.361 650.876 584.607 650.835 584.87L643.126 634.013C643.12 634.046 643.112 634.079 643.1 634.111C643.016 634.329 634.788 656.06 641.649 666.48C643.929 669.942 647.676 671.8 652.786 672C660.809 672.313 666.206 670.601 668.829 666.908C672.261 662.077 669.69 655.381 669.664 655.313C669.637 655.245 669.626 655.171 669.632 655.098L674.931 589.093C674.953 588.828 675.18 588.635 675.45 588.651C675.716 588.673 675.913 588.905 675.892 589.17L670.601 655.067C670.951 656.012 673.146 662.489 669.619 667.461C667.009 671.14 661.959 673 654.596 673Z" fill="#2F2E41"/>
<path d="M631.569 602.622C631.569 602.622 633.014 663.809 602.661 662.364C572.308 660.918 599.77 641.647 599.77 641.647L602.42 634.179" fill="#3F3D56"/>
<path d="M603.703 662.871C603.351 662.871 602.996 662.862 602.638 662.845C593.972 662.433 589.075 660.491 588.084 657.074C586.3 650.917 597.932 642.369 599.367 641.342L601.966 634.018C602.055 633.767 602.331 633.636 602.581 633.725C602.832 633.814 602.963 634.089 602.874 634.34L600.225 641.808C600.191 641.902 600.129 641.984 600.047 642.041C599.92 642.13 587.339 651.043 589.01 656.806C589.874 659.784 594.474 661.492 602.684 661.883C608.152 662.146 612.945 660.307 616.922 656.424C631.834 641.866 631.096 603.023 631.087 602.633C631.081 602.367 631.291 602.146 631.558 602.14C631.809 602.14 632.044 602.344 632.051 602.61C632.089 604.222 632.808 642.261 617.595 657.113C613.679 660.936 609.01 662.871 603.703 662.871Z" fill="#2F2E41"/>
<path d="M584.001 473.689C587.461 474.104 592.876 474.084 597.361 471.092C602.165 467.888 597.178 464.901 593.295 463.258C591.132 463.615 588.998 464.473 587.003 466.034C584.941 467.648 584.03 470.341 584.001 473.689Z" fill="#2F2E41"/>
<path d="M639.903 465.026C639.903 465.026 631.496 443.434 643.537 443.132C655.578 442.83 665.089 461.541 665.089 461.541C665.089 461.541 695.311 516.63 653.904 513.66C612.498 510.689 632.285 488.698 632.285 488.698C632.285 488.698 641.729 477.087 639.903 465.026Z" fill="#2F2E41"/>
<path d="M686.03 626.382C691.362 628.754 696.934 631.174 702.765 630.943C708.597 630.711 714.734 626.956 715.642 621.191C716.112 618.215 715.181 615.022 716.321 612.233C717.854 608.48 722.799 607.033 726.643 608.319C730.488 609.605 733.312 612.921 735.337 616.433C739.125 623.003 740.643 631.626 736.581 638.031C733.06 643.583 726.381 646.091 720.169 648.243C711.894 651.11 702.655 653.954 694.637 650.434C686.572 646.893 682.18 636.662 685.166 628.376" fill="#3F3D56"/>
<path d="M668.24 522.349C668.24 522.349 678.839 527.648 673.54 533.43C668.24 539.211 635.478 555.592 623.433 553.183C611.389 550.774 608.498 543.547 608.498 541.62C608.498 539.693 609.406 516.381 613.261 517.344C617.115 518.308 641.26 540.175 668.24 522.349Z" fill="#6C63FF"/>
</svg>
