<svg width="564" height="438" viewBox="0 0 564 438" fill="none" xmlns="http://www.w3.org/2000/svg">
<path d="M511.807 340.444H53.8737V40.8962C53.8806 36.4556 55.6479 32.199 58.7883 29.0595C61.9287 25.9199 66.1858 24.1538 70.6264 24.1482H495.053C499.494 24.1535 503.751 25.9195 506.892 29.0591C510.032 32.1986 511.8 36.4555 511.807 40.8962V340.444Z" fill="#090814"/>
<path d="M497.469 44.5683H66.4738V315.679H497.469V44.5683Z" fill="white"/>
<path d="M530.534 350.871H36.9307L5.33573 344.857C3.83562 344.57 2.48238 343.769 1.50863 342.592C0.534876 341.416 0.00143881 339.936 0 338.409V331.745H563.944V338.505C563.939 340.01 563.419 341.468 562.47 342.636C561.521 343.805 560.201 344.613 558.729 344.927L530.531 350.86L530.534 350.871Z" fill="#CCCCCC"/>
<path d="M321.126 340.444H242.826C240.883 340.44 239.02 339.666 237.646 338.292C236.272 336.917 235.499 335.054 235.496 333.11V331.753H328.473V333.11C328.47 335.053 327.696 336.916 326.322 338.29C324.948 339.664 323.086 340.437 321.143 340.441L321.126 340.444Z" fill="#2F2E41"/>
<path d="M371.263 70.021H192.681C190.086 70.021 187.981 72.125 187.981 74.7205V300.298C187.981 302.894 190.086 304.998 192.681 304.998H371.263C373.859 304.998 375.963 302.894 375.963 300.298V74.7205C375.963 72.125 373.859 70.021 371.263 70.021Z" fill="#E6E6E6"/>
<path d="M284.178 183.371L286.946 167.853C282.862 165.163 279.797 161.183 278.238 156.548C276.68 151.913 276.718 146.89 278.348 142.279C279.977 137.668 283.103 133.736 287.228 131.109C291.352 128.482 296.237 127.312 301.105 127.785C305.972 128.258 310.54 130.347 314.082 133.719C317.623 137.092 319.933 141.552 320.644 146.391C321.355 151.229 320.425 156.166 318.003 160.414C315.581 164.662 311.806 167.977 307.281 169.83L308.245 183.37L284.178 183.371Z" fill="#ED9DA0"/>
<path d="M243.123 305.011L258.482 205.268C259.306 200.078 261.227 195.124 264.115 190.734C267.003 186.344 270.793 182.62 275.232 179.809C279.671 176.998 284.658 175.164 289.862 174.43C295.065 173.696 300.364 174.078 305.408 175.551C314.227 178.102 321.778 183.849 326.587 191.669C331.395 199.489 333.116 208.821 331.412 217.841L315.195 305.011H243.123Z" fill="#6C63FF"/>
<path d="M304.847 320.341C306.046 319.549 307.057 318.503 307.809 317.279C308.56 316.054 309.034 314.679 309.197 313.251C309.359 311.824 309.207 310.377 308.751 309.015C308.294 307.652 307.544 306.406 306.554 305.365L322.582 274.327L304.532 276.254L292.079 305.433C290.445 307.214 289.521 309.531 289.48 311.947C289.439 314.363 290.284 316.71 291.855 318.546C293.427 320.381 295.616 321.577 298.01 321.908C300.403 322.239 302.835 321.682 304.846 320.342L304.847 320.341Z" fill="#ED9DA0"/>
<path d="M308.28 299.891C307.394 299.765 306.566 299.373 305.908 298.766L299.776 293.099C299.113 292.484 298.656 291.68 298.465 290.797C298.274 289.913 298.359 288.992 298.709 288.159L310.965 259.108L309.226 201.707C309.773 198.018 311.753 194.693 314.735 192.453C317.718 190.214 321.463 189.24 325.159 189.745C328.855 190.249 332.203 192.19 334.477 195.146C336.75 198.103 337.767 201.837 337.306 205.538L340.279 241.621C341.183 252.572 338.078 263.479 331.542 272.313L312.43 298.151C312.063 298.647 311.594 299.061 311.056 299.364C310.518 299.668 309.923 299.855 309.308 299.913C308.965 299.946 308.621 299.938 308.28 299.889V299.891Z" fill="#6C63FF"/>
<path d="M162.894 131.014C163.155 132.427 163.724 133.765 164.558 134.935C165.393 136.105 166.474 137.077 167.726 137.784C168.977 138.49 170.368 138.914 171.801 139.025C173.233 139.136 174.673 138.931 176.018 138.426L198.351 165.286L203.614 147.914L181.6 125.07C180.595 122.873 178.822 121.121 176.614 120.142C174.406 119.164 171.916 119.027 169.615 119.759C167.313 120.49 165.359 122.039 164.121 124.112C162.883 126.186 162.446 128.641 162.894 131.014Z" fill="#ED9DA0"/>
<path d="M180.388 142.148C180.849 141.38 181.533 140.771 182.348 140.402L189.959 136.965C190.784 136.594 191.702 136.486 192.59 136.655C193.478 136.824 194.293 137.262 194.924 137.909L216.895 160.521L270.431 181.3C272.041 182.246 273.448 183.5 274.571 184.991C275.695 186.482 276.513 188.18 276.978 189.988C277.443 191.796 277.546 193.678 277.282 195.526C277.017 197.375 276.39 199.152 275.437 200.757C274.483 202.362 273.222 203.763 271.725 204.879C270.229 205.995 268.526 206.804 266.716 207.26C264.906 207.716 263.023 207.81 261.176 207.537C259.33 207.263 257.555 206.627 255.955 205.665L221.569 194.334C211.132 190.897 202.299 183.785 196.713 174.322L180.374 146.645C180.06 146.113 179.861 145.521 179.792 144.907C179.722 144.293 179.782 143.671 179.968 143.082C180.071 142.754 180.213 142.44 180.39 142.146L180.388 142.148Z" fill="#6C63FF"/>
<path opacity="0.1" d="M317.693 225.585L316.716 256.866L298.708 288.16L313.747 253.288L317.693 225.585Z" fill="black"/>
<path d="M283.716 138.784C285.995 141.482 289.852 142.242 293.409 142.555C300.634 143.189 311.143 142.162 318.206 140.53C318.71 145.416 317.336 150.683 320.213 154.702C321.562 149.837 322.346 144.832 322.55 139.787C322.637 137.627 322.603 135.386 321.724 133.4C320.846 131.413 318.928 129.727 316.719 129.71C318.36 128.465 320.282 127.644 322.315 127.318L315.32 123.804L317.116 121.96L304.458 121.186L308.124 118.857C302.606 118.099 297.024 117.924 291.469 118.333C288.89 118.523 286.193 118.886 284.103 120.381C282.014 121.875 280.806 124.845 282.106 127.04C280.482 127.307 278.952 127.984 277.663 129.007C276.373 130.03 275.366 131.365 274.737 132.887C273.806 135.249 273.891 137.872 274.178 140.389C274.655 144.415 275.591 148.373 276.967 152.186" fill="#2F2E41"/>
<path d="M399.732 67.2629L164.189 121.642C163.033 121.908 161.818 121.704 160.812 121.075C159.805 120.446 159.089 119.444 158.821 118.288L145.332 59.8594C145.067 58.7027 145.271 57.4879 145.9 56.4815C146.528 55.4751 147.531 54.7592 148.687 54.4908L384.229 0.113585C385.386 -0.151876 386.601 0.0522382 387.607 0.681155C388.614 1.31007 389.33 2.31245 389.598 3.46847L403.086 61.8943C403.352 63.051 403.148 64.2658 402.519 65.2723C401.89 66.2788 400.888 66.9947 399.732 67.2629Z" fill="#E6E6E6"/>
<path d="M399.732 67.2629L164.189 121.642C163.033 121.908 161.818 121.704 160.812 121.075C159.805 120.446 159.089 119.444 158.821 118.288L145.332 59.8594C145.067 58.7027 145.271 57.4879 145.9 56.4815C146.528 55.4751 147.531 54.7592 148.687 54.4908L384.229 0.113585C385.386 -0.151876 386.601 0.0522382 387.607 0.681155C388.614 1.31007 389.33 2.31245 389.598 3.46847L403.086 61.8943C403.352 63.051 403.148 64.2658 402.519 65.2723C401.89 66.2788 400.888 66.9947 399.732 67.2629ZM149.089 56.236C148.396 56.397 147.794 56.8266 147.417 57.4306C147.039 58.0345 146.917 58.7635 147.076 59.4576L160.566 117.886C160.726 118.58 161.156 119.181 161.76 119.559C162.364 119.936 163.093 120.058 163.787 119.899L399.327 65.5194C400.021 65.3585 400.622 64.929 401 64.325C401.377 63.721 401.499 62.992 401.34 62.2979L387.85 3.86911C387.69 3.17529 387.26 2.57364 386.656 2.19621C386.052 1.81878 385.323 1.6964 384.629 1.85594L149.089 56.236Z" fill="#090814"/>
<path d="M230.821 56.0545C230.044 56.2429 229.373 56.7298 228.952 57.4097C228.532 58.0895 228.396 58.9077 228.574 59.6868C228.753 60.466 229.231 61.1435 229.906 61.5726C230.58 62.0017 231.396 62.1479 232.178 61.9795H232.188L371.793 29.7489C372.571 29.5597 373.242 29.0718 373.662 28.391C374.082 27.7101 374.216 26.8912 374.036 26.1118C373.856 25.3324 373.376 24.6553 372.7 24.2275C372.025 23.7996 371.207 23.6555 370.426 23.8263L230.821 56.0545Z" fill="#6C63FF"/>
<path d="M234.923 73.8235C234.529 73.9083 234.157 74.0704 233.827 74.3003C233.496 74.5303 233.215 74.8235 232.999 75.163C232.783 75.5025 232.636 75.8816 232.568 76.2781C232.5 76.6747 232.511 77.0809 232.601 77.4732C232.69 77.8654 232.857 78.236 233.091 78.5633C233.326 78.8905 233.622 79.168 233.965 79.3797C234.307 79.5914 234.688 79.7329 235.085 79.7962C235.483 79.8595 235.889 79.8433 236.28 79.7484H236.29L296.361 65.8777C297.138 65.6893 297.809 65.2024 298.23 64.5226C298.65 63.8427 298.786 63.0246 298.607 62.2454C298.429 61.4662 297.951 60.7887 297.276 60.3596C296.602 59.9305 295.785 59.7843 295.004 59.9528H294.994L234.923 73.8235Z" fill="#6C63FF"/>
<path d="M192.655 95.4361C202.726 95.4361 210.891 87.2718 210.891 77.2007C210.891 67.1296 202.726 58.9653 192.655 58.9653C182.584 58.9653 174.42 67.1296 174.42 77.2007C174.42 87.2718 182.584 95.4361 192.655 95.4361Z" fill="#6C63FF"/>
<path d="M192.142 87.7206C191.545 87.8592 190.919 87.8 190.359 87.552L190.324 87.5367L182.986 84.2059C182.646 84.0512 182.339 83.831 182.084 83.5579C181.829 83.2848 181.63 82.9641 181.499 82.6142C181.368 82.2642 181.307 81.8919 181.32 81.5184C181.333 81.1449 181.419 80.7776 181.574 80.4375C181.728 80.0973 181.949 79.7909 182.222 79.5359C182.495 79.2808 182.815 79.082 183.165 78.9509C183.515 78.8198 183.888 78.7588 184.261 78.7716C184.635 78.7844 185.002 78.8705 185.342 79.0253L190.097 81.19L196.767 66.5339C197.08 65.8478 197.652 65.3138 198.358 65.0494C199.064 64.785 199.846 64.8119 200.532 65.124L200.492 65.2198L200.535 65.1234C201.22 65.4365 201.754 66.0088 202.018 66.7149C202.283 67.421 202.256 68.2031 201.944 68.8895L194.1 86.131C193.918 86.5281 193.647 86.878 193.308 87.1536C192.969 87.4291 192.571 87.6229 192.145 87.72L192.142 87.7206Z" fill="white"/>
<path d="M409.461 419.192C411.504 428.999 423.15 416.945 423.15 416.945L437.043 415.31C437.043 415.31 445.828 415.515 451.549 420.009C457.269 424.504 461.151 418.579 461.151 418.579C467.596 420.728 475.492 420.719 482.331 420.031C492.185 419.039 500.084 411.433 501.438 401.623C509.078 346.279 467.076 319.081 467.076 319.081L454.818 285.984C454.818 285.984 458.7 276.381 459.925 267.8C461.151 259.219 452.162 251.047 441.129 242.875C436.302 239.299 430.772 239.556 426.077 240.977C420.81 242.57 416.216 245.847 412.821 250.177C410.009 253.765 405.186 258.846 399.883 259.726C398.049 260.028 396.239 260.756 394.547 262.079C392.798 263.448 392.026 265.733 392.001 268.572C391.87 280.978 402.114 295.913 411.096 298.242C422.128 301.102 416.204 328.275 416.204 328.275C398.224 353.609 410.892 381.804 410.892 381.804L407.623 404.686C407.623 404.686 407.418 409.385 409.461 419.192Z" fill="#3F3D56"/>
<path d="M469.528 366.481L465.033 422.461C465.033 422.461 471.162 437.989 450.323 437.171C429.484 436.354 441.742 404.482 441.742 404.482L448.28 362.803" fill="#3F3D56"/>
<path d="M451.874 437.611C451.364 437.611 450.842 437.601 450.307 437.58C445.694 437.399 442.297 435.7 440.21 432.53C434.243 423.466 440.879 405.599 441.345 404.376L447.876 362.74C447.911 362.517 448.119 362.367 448.343 362.399C448.566 362.435 448.718 362.644 448.684 362.867L442.146 404.546C442.141 404.574 442.134 404.602 442.123 404.629C442.052 404.814 435.074 423.244 440.893 432.081C442.827 435.018 446.005 436.593 450.339 436.763C457.143 437.028 461.72 435.577 463.945 432.445C466.856 428.347 464.675 422.668 464.653 422.611C464.63 422.553 464.621 422.49 464.626 422.428L469.12 366.448C469.138 366.223 469.332 366.059 469.561 366.073C469.786 366.092 469.953 366.288 469.935 366.514L465.448 422.402C465.745 423.203 467.606 428.697 464.615 432.913C462.401 436.033 458.118 437.611 451.874 437.611Z" fill="#2F2E41"/>
<path d="M432.344 377.922C432.344 377.922 433.57 429.816 407.827 428.59C382.084 427.364 405.375 411.02 405.375 411.02L407.623 404.686" fill="#3F3D56"/>
<path d="M408.71 429.02C408.412 429.02 408.111 429.013 407.807 428.999C400.457 428.649 396.304 427.002 395.464 424.104C393.95 418.882 403.816 411.632 405.033 410.761L407.238 404.55C407.313 404.337 407.546 404.226 407.759 404.301C407.972 404.377 408.083 404.61 408.008 404.823L405.76 411.156C405.732 411.237 405.679 411.306 405.61 411.354C405.502 411.43 394.832 418.989 396.249 423.876C396.981 426.402 400.883 427.851 407.846 428.182C412.484 428.405 416.549 426.846 419.921 423.553C432.569 411.206 431.943 378.263 431.935 377.932C431.93 377.706 432.108 377.519 432.334 377.513C432.548 377.514 432.747 377.687 432.752 377.912C432.785 379.28 433.395 411.541 420.493 424.137C417.172 427.38 413.211 429.02 408.71 429.02Z" fill="#2F2E41"/>
<path d="M392.001 268.572C394.935 268.924 399.528 268.907 403.332 266.37C407.406 263.653 403.177 261.119 399.883 259.726C398.049 260.028 396.239 260.756 394.547 262.079C392.798 263.448 392.026 265.732 392.001 268.572Z" fill="#2F2E41"/>
<path d="M439.412 261.225C439.412 261.225 432.282 242.912 442.494 242.656C452.706 242.4 460.773 258.269 460.773 258.269C460.773 258.269 486.404 304.991 451.287 302.472C416.17 299.952 432.951 281.301 432.951 281.301C432.951 281.301 440.961 271.454 439.412 261.225Z" fill="#2F2E41"/>
<path d="M478.533 398.073C483.056 400.085 487.781 402.138 492.727 401.942C497.673 401.745 502.877 398.56 503.648 393.671C504.046 391.147 503.257 388.439 504.223 386.074C505.524 382.891 509.718 381.664 512.978 382.754C516.239 383.845 518.634 386.657 520.351 389.636C523.564 395.208 524.852 402.521 521.407 407.953C518.42 412.662 512.756 414.789 507.487 416.615C500.469 419.045 492.633 421.458 485.833 418.472C478.993 415.469 475.268 406.792 477.8 399.765" fill="#3F3D56"/>
<path d="M463.445 309.841C463.445 309.841 472.435 314.336 467.94 319.239C463.445 324.143 435.659 338.036 425.444 335.993C415.229 333.949 412.777 327.82 412.777 326.186C412.777 324.551 413.548 304.78 416.816 305.597C420.085 306.414 440.563 324.96 463.445 309.841Z" fill="#6C63FF"/>
</svg>
