<svg width="238" height="209" viewBox="0 0 238 209" fill="none" xmlns="http://www.w3.org/2000/svg">
<path d="M231.637 163.382C230.511 163.382 229.41 163.716 228.473 164.341C227.536 164.967 226.806 165.857 226.375 166.898C225.944 167.938 225.831 169.083 226.051 170.188C226.271 171.293 226.813 172.308 227.61 173.105C228.406 173.901 229.421 174.444 230.526 174.663C231.631 174.883 232.776 174.77 233.817 174.339C234.858 173.908 235.747 173.178 236.373 172.241C236.999 171.305 237.333 170.204 237.333 169.077C237.333 167.567 236.733 166.118 235.665 165.05C234.597 163.982 233.148 163.382 231.637 163.382ZM231.637 172.582C230.944 172.582 230.266 172.377 229.69 171.992C229.114 171.606 228.664 171.059 228.399 170.419C228.134 169.778 228.064 169.073 228.2 168.393C228.335 167.713 228.669 167.089 229.159 166.599C229.649 166.108 230.274 165.775 230.954 165.639C231.633 165.504 232.338 165.574 232.979 165.839C233.619 166.104 234.167 166.553 234.552 167.13C234.937 167.706 235.142 168.384 235.142 169.077C235.142 170.007 234.773 170.898 234.116 171.556C233.458 172.213 232.567 172.582 231.637 172.582Z" fill="#F2F2F2"/>
<path d="M209.731 156H231.637V177.682C231.637 178.438 231.337 179.164 230.801 179.699C230.266 180.235 229.54 180.535 228.784 180.535H212.584C211.828 180.535 211.102 180.235 210.567 179.699C210.031 179.164 209.731 178.438 209.731 177.682V156Z" fill="#F2F2F2"/>
<path d="M41.6644 190.057C40.7514 187.979 39.8854 185.59 40.7989 183.513C41.3943 182.289 42.418 181.326 43.676 180.806C44.9209 180.298 46.2331 179.975 47.5712 179.845C51.7715 179.294 56.0217 179.236 60.2355 179.672C60.5428 182.104 59.8934 184.572 59.3353 186.922C58.8286 189.086 58.5387 189.406 56.3055 189.519C54.861 189.598 42.0065 190.822 41.6644 190.057Z" fill="#FBBEBE"/>
<path d="M130.726 142.651C132.167 142.101 133.755 142.3 135.3 142.508C140.273 143.187 145.32 143.884 149.93 145.871C152.094 146.797 154.154 148.035 155.617 149.857C156.915 151.497 157.672 153.506 158.393 155.484L160.055 160.037C160.761 161.748 161.248 163.542 161.504 165.376C162.023 170.825 158.297 175.962 153.609 178.793C148.922 181.623 143.403 182.632 138.028 183.688C132.652 184.744 127.255 185.913 121.901 187.15C119.404 187.798 116.87 188.297 114.314 188.643C108.583 189.293 102.593 188.336 97.1481 190.23C94.9839 190.987 92.8588 192.113 90.6128 192.636C89.1206 192.95 87.6119 193.18 86.0939 193.324L75.7888 194.502C73.6932 194.782 71.5834 194.944 69.4695 194.986C64.9681 194.986 60.5405 193.922 56.1693 192.855C55.7046 192.773 55.2623 192.595 54.8711 192.331C54.1771 191.786 54.0284 190.821 53.9293 189.946C53.4878 186.077 53.1011 182.203 52.7693 178.325C52.6652 177.065 52.5874 175.702 53.2759 174.642C54.1414 173.344 55.8298 172.937 57.3704 172.685C63.9041 171.616 70.5229 171.157 77.1415 171.313C79.6563 168.798 83.8028 168.785 87.0963 167.418C88.3079 166.861 89.4806 166.224 90.6063 165.509C96.4982 162.072 103.082 159.991 109.88 159.419C111.211 159.379 112.533 159.19 113.823 158.857C116.372 158.064 118.696 155.909 121.315 156.437C121.639 155.541 121.864 154.342 122.613 153.728C122.985 153.412 123.444 153.2 123.786 152.862C124.508 152.13 124.573 150.978 124.465 149.958C124.357 148.937 124.115 147.889 124.379 146.893C124.488 146.516 124.65 146.157 124.859 145.824C126.155 143.586 128.115 142.434 130.726 142.651Z" fill="#464353"/>
<path opacity="0.05" d="M130.726 142.651C132.167 142.101 133.755 142.3 135.3 142.508C140.273 143.187 145.32 143.884 149.93 145.871C152.094 146.797 154.154 148.035 155.617 149.857C156.915 151.497 157.672 153.506 158.393 155.484L160.055 160.037C160.761 161.748 161.248 163.542 161.504 165.376C162.023 170.825 158.297 175.962 153.609 178.793C148.922 181.623 143.403 182.632 138.028 183.688C132.652 184.744 127.255 185.913 121.901 187.15C119.404 187.798 116.87 188.297 114.314 188.643C108.583 189.293 102.593 188.336 97.1481 190.23C94.9839 190.987 92.8588 192.113 90.6128 192.636C89.1206 192.95 87.6119 193.18 86.0939 193.324L75.7888 194.502C73.6932 194.782 71.5834 194.944 69.4695 194.986C64.9681 194.986 60.5405 193.922 56.1693 192.855C55.7046 192.773 55.2623 192.595 54.8711 192.331C54.1771 191.786 54.0284 190.821 53.9293 189.946C53.4878 186.077 53.1011 182.203 52.7693 178.325C52.6652 177.065 52.5874 175.702 53.2759 174.642C54.1414 173.344 55.8298 172.937 57.3704 172.685C63.9041 171.616 70.5229 171.157 77.1415 171.313C79.6563 168.798 83.8028 168.785 87.0963 167.418C88.3079 166.861 89.4806 166.224 90.6063 165.509C96.4982 162.072 103.082 159.991 109.88 159.419C111.211 159.379 112.533 159.19 113.823 158.857C116.372 158.064 118.696 155.909 121.315 156.437C121.639 155.541 121.864 154.342 122.613 153.728C122.985 153.412 123.444 153.2 123.786 152.862C124.508 152.13 124.573 150.978 124.465 149.958C124.357 148.937 124.115 147.889 124.379 146.893C124.488 146.516 124.65 146.157 124.859 145.824C126.155 143.586 128.115 142.434 130.726 142.651Z" fill="black"/>
<path d="M45.6464 192.734C42.9696 195.837 40.6086 196.948 36.4144 196.846C33.8348 196.786 31.2581 196.652 28.6844 196.444C26.9253 196.253 25.1561 196.17 23.3869 196.196C18.0457 196.403 12.8908 198.849 7.56302 198.42C6.77516 198.359 5.99605 198.213 5.23867 197.988C4.03002 197.655 2.93767 196.993 2.08352 196.075C1.11912 194.861 0.500056 193.409 0.291559 191.872C-1.1326 184.108 2.77007 175.65 9.60581 171.697C10.4979 171.121 11.5121 170.761 12.5676 170.646C13.6023 170.642 14.6251 170.866 15.5627 171.304L15.6276 171.329C18.4043 172.472 20.9261 174.155 23.0463 176.281C23.3681 176.649 23.7519 176.958 24.1805 177.194C24.6084 177.356 25.0615 177.44 25.5189 177.445L31.2061 177.804C32.1697 177.833 33.1274 177.965 34.0628 178.198C35.094 178.558 36.098 178.992 37.0668 179.497C40.1267 180.864 43.5198 181.228 46.8267 181.756C47.1454 181.774 47.4494 181.896 47.6922 182.103C47.8241 182.267 47.9159 182.46 47.9603 182.666C48.425 184.405 48.4573 186.231 48.0544 187.986C47.6515 189.741 46.8257 191.37 45.6489 192.733L45.6464 192.734Z" fill="#3F3D56"/>
<path d="M125.774 182.102C128.955 182.015 132.526 181.854 134.863 183.998C137.093 186.023 137.386 189.364 137.533 192.375L137.702 195.868C137.834 196.93 137.72 198.008 137.369 199.018C136.607 200.75 134.517 201.585 132.61 201.485C130.704 201.386 128.949 200.551 127.205 199.798C122.469 197.758 117.538 196.204 112.489 195.162C112.654 192.747 112.928 190.344 113.311 187.952C113.575 186.294 113.618 183.52 114.726 182.144C115.899 180.689 117.427 181.477 119.02 181.747C121.255 182.088 123.518 182.209 125.777 182.106L125.774 182.102Z" fill="#FFB9B9"/>
<path d="M182.026 203.57C180.572 206.267 177.75 207.946 174.72 208.638C173.96 208.81 173.187 208.92 172.409 208.967C168.579 209.205 164.795 208.145 161.104 207.097L156.093 205.684C155.232 205.413 154.348 205.216 153.453 205.096C152.234 205.014 151.011 205.056 149.8 205.221C143.876 205.772 137.905 205.504 132.054 204.425C131.565 204.372 131.095 204.204 130.682 203.935C130.321 203.581 130 203.188 129.725 202.763C128.362 201.122 126.895 200.166 128.509 198.004C129.439 196.749 131.166 196.12 131.889 194.68C132.612 193.239 132.149 191.191 131.72 189.702C131.136 187.647 129.214 186.759 128.526 184.872C128.011 183.448 128.876 181.795 130.179 181.02C131.482 180.245 133.092 180.185 134.594 180.384C136.096 180.582 137.568 181.007 139.078 181.124C143.518 181.479 148.059 179.19 152.322 180.479C153.261 180.765 154.149 181.219 155.101 181.471C156.957 181.886 158.896 181.718 160.653 180.99C161.276 180.757 161.886 180.475 162.492 180.197C163.661 179.588 164.905 179.138 166.193 178.859C170.352 178.144 174.209 181.023 177.346 183.832C178.423 184.726 179.377 185.759 180.181 186.905C180.988 188.296 181.572 189.805 181.912 191.376C183.06 195.381 184.009 199.891 182.026 203.57Z" fill="#3F3D56"/>
<path d="M80.2069 176.042C114.389 176.042 142.1 168.29 142.1 158.729C142.1 149.168 114.389 141.417 80.2069 141.417C46.0243 141.417 18.3139 149.168 18.3139 158.729C18.3139 168.29 46.0243 176.042 80.2069 176.042Z" fill="#464353"/>
<path opacity="0.1" d="M80.2069 176.042C114.389 176.042 142.1 168.29 142.1 158.729C142.1 149.168 114.389 141.417 80.2069 141.417C46.0243 141.417 18.3139 149.168 18.3139 158.729C18.3139 168.29 46.0243 176.042 80.2069 176.042Z" fill="black"/>
<path d="M91.3043 67.3361C89.183 71.4363 85.6594 74.638 81.3753 76.3579C78.8462 77.2795 76.1845 77.7852 73.4936 77.8554C70.5546 77.9898 67.5556 77.7994 64.7941 76.7951C61.0892 75.4532 58.0119 72.7095 55.7048 69.5108C53.3978 66.312 51.8096 62.6592 50.4286 58.9761C49.7014 57.0587 49.0089 55.0159 49.3509 52.9905C51.5816 52.4839 54.0209 51.7398 55.1725 49.7615C56.1549 48.0647 55.8823 46.0308 55.3152 44.0916C55.1551 43.5419 54.9682 42.9966 54.7828 42.4726C54.3501 41.2175 52.857 38.8327 53.9173 37.7595C54.5796 37.0799 57.3541 36.7339 58.3103 36.2922C61.2577 34.933 63.9757 32.968 67.2131 32.3231C70.0133 31.765 72.9048 32.2884 75.7005 32.8684C76.0714 32.9224 76.4276 33.0505 76.7479 33.2451C77.1132 33.5528 77.3834 33.9581 77.5272 34.4135C78.3238 36.3527 78.7912 38.4951 79.4317 40.5161C80.0984 42.6328 80.955 44.619 82.561 46.121C83.8117 47.2938 85.4049 48.03 86.9629 48.7438L90.7976 50.501C91.4797 50.7565 92.0983 51.1566 92.6109 51.6739C93.1124 52.3632 93.412 53.1785 93.4764 54.0285C94.1635 58.5829 93.4036 63.2381 91.3038 67.3376L91.3043 67.3361Z" fill="#FFB9B9"/>
<path d="M65.0581 45.7644C76.0537 45.7644 84.9675 36.8506 84.9675 25.855C84.9675 14.8593 76.0537 5.94554 65.0581 5.94554C54.0624 5.94554 45.1487 14.8593 45.1487 25.855C45.1487 36.8506 54.0624 45.7644 65.0581 45.7644Z" fill="#FFB9B9"/>
<path d="M125.717 90.4705L124.081 80.5589C123.254 75.586 122.401 70.5174 120.09 66.0378C118.571 63.1032 109.569 57.8056 108.838 57.0437C106.951 55.0872 97.2881 51.5295 95.2557 50.2571C93.2234 48.9846 90.6893 48.0928 88.4388 48.9068C88.0755 52.7807 87.6898 56.7389 86.0456 60.2683C84.9749 62.5645 83.4046 64.5924 81.4494 66.2037C79.4943 67.815 77.2038 68.9691 74.7454 69.5814C72.2869 70.1938 69.7227 70.249 67.2402 69.743C64.7576 69.237 62.4196 68.1826 60.3969 66.6569C56.5404 63.7526 54.0693 59.2709 52.9178 54.5855C52.6362 53.4429 52.316 52.1313 51.2646 51.6079C50.1245 51.0363 48.7588 51.7288 47.8021 52.5685C46.0706 54.1226 25.9535 64.2175 25.0707 65.4568C24.1878 66.6961 23.7724 68.2357 23.3392 69.7243C28.0697 80.259 32.3981 90.807 37.1286 101.342C37.3503 101.739 37.4679 102.185 37.4707 102.64C37.3758 103.112 37.1746 103.556 36.8823 103.938C34.5624 107.665 34.6357 112.352 34.8915 116.732C35.1473 121.112 35.4586 125.739 33.5036 129.665C32.9712 130.742 32.2787 131.729 31.7721 132.807C30.5863 135.248 30.1576 143.056 30.8501 145.679H128.702C126.836 140.55 127.546 130.258 127.936 124.813C128.209 121.004 127.503 117.199 127.2 113.391C126.536 105.615 127.006 98.2352 125.717 90.4705Z" fill="#6C63FF"/>
<path d="M15.8429 101.81C15.6705 103.063 15.6539 104.332 15.7933 105.588L17.0355 123.451C17.1525 125.136 17.269 126.813 17.4251 128.493C17.7226 131.752 18.1687 134.987 18.7234 138.214C18.7355 138.673 18.9291 139.108 19.2619 139.424C19.5946 139.74 20.0392 139.911 20.498 139.9C25.973 141.059 31.63 141.012 37.2176 140.696C45.7437 140.22 54.2573 139.134 62.7958 139.32C64.9948 139.369 67.5546 139.32 68.89 137.589C70.2254 135.858 69.4482 133.057 67.7082 131.659C65.9683 130.261 63.6053 129.928 61.3717 129.928C58.4153 129.898 55.4594 130.318 52.512 130.145C49.8149 129.903 47.1461 129.411 44.5396 128.677L37.1819 126.847C37.4634 124.616 38.3116 122.519 39.1151 120.403C40.5606 116.65 41.9109 112.772 41.9371 108.754C41.9634 104.735 40.45 100.504 37.1546 98.2015C34.4451 96.3099 30.9583 95.9594 27.6545 96.0373C25.2523 96.1067 21.1018 95.5306 18.9073 96.47C17.1713 97.2264 16.1675 100.109 15.8429 101.81Z" fill="#FFB9B9"/>
<path d="M41.7035 147.005C41.7035 147.438 41.0239 147.005 40.9634 146.542C40.4876 143.04 37.7086 140.153 34.4697 138.751C31.2308 137.349 27.5447 137.275 24.0386 137.609C18.7346 138.111 12.7862 140.141 10.8465 145.096C10.3875 146.256 10.1798 147.511 9.61716 148.624C8.99406 149.844 7.97688 150.818 7.30173 152.004C6.13733 154.055 6.08974 156.57 6.50861 158.89C7.63831 165.079 11.8711 170.372 17.0002 174.039C22.1292 177.705 28.1237 179.895 34.1019 181.871C49.9075 187.082 66.1236 190.953 82.5787 193.444C85.2446 193.846 87.9367 194.219 90.4906 195.076C92.7758 195.842 94.9137 196.989 97.1474 197.889C102.341 199.975 107.929 200.719 113.464 201.451C114.406 201.572 115.49 201.659 116.187 201.018C117.087 200.183 116.789 198.729 116.534 197.53C115.594 192.971 116.383 188.226 118.746 184.216C119.672 182.658 120.877 181.061 120.702 179.256C120.494 177.153 118.4 175.664 116.313 175.327C114.227 174.989 112.106 175.487 110.011 175.759C109.293 175.924 108.541 175.85 107.869 175.547C107.558 175.337 107.275 175.087 107.029 174.804C105.586 173.411 103.739 172.512 101.753 172.234C99.7674 171.957 97.7446 172.315 95.975 173.258C95.2003 173.691 94.0274 172.726 93.2224 172.363L84.1203 168.242C73.661 163.512 63.1546 158.76 52.092 155.765C51.2093 155.591 50.3704 155.242 49.6248 154.739C49.0751 154.306 48.683 153.717 48.1749 153.237C47.071 152.196 45.5348 151.778 44.2093 151.038C42.8838 150.298 41.3991 148.49 41.7035 147.005Z" fill="#464353"/>
<path d="M23.0944 70.0459C22.6728 70.4873 22.3459 71.0103 22.1337 71.5826C18.6351 79.4673 16.5687 87.9121 16.0311 96.5214C16.0404 96.9412 15.9436 97.3566 15.7495 97.7289C15.5583 97.9767 15.3455 98.2069 15.1135 98.417C14.9029 98.6667 14.7457 98.9571 14.6516 99.27C14.5576 99.583 14.5288 99.9118 14.5669 100.236C14.6051 100.561 14.7094 100.874 14.8734 101.157C15.0374 101.439 15.2577 101.685 15.5205 101.879C16.2348 100.534 17.9445 100.095 19.4633 99.9794C26.7388 99.4039 33.8457 102.789 41.1429 102.533C40.6279 100.754 39.8878 99.0445 39.4679 97.2436C37.611 89.2494 42.2439 80.5454 39.403 72.8456C38.8359 71.305 37.8881 69.7901 36.3951 69.115C35.7769 68.8653 35.1299 68.6938 34.4693 68.6044C32.6252 68.2713 28.9551 66.8471 27.172 67.4187C26.5142 67.6308 26.2545 68.2495 25.7092 68.6218C24.8789 69.1536 23.7804 69.3494 23.0944 70.0459Z" fill="#6C63FF"/>
<path d="M128.545 85.8002H39.9279C37.746 85.8002 35.9772 87.569 35.9772 89.7509V143.309C35.9772 145.491 37.746 147.26 39.9279 147.26H128.545C130.727 147.26 132.495 145.491 132.495 143.309V89.7509C132.495 87.569 130.727 85.8002 128.545 85.8002Z" fill="#464353"/>
<path d="M84.0196 119.127C85.4538 119.127 86.6166 117.965 86.6166 116.53C86.6166 115.096 85.4538 113.933 84.0196 113.933C82.5853 113.933 81.4226 115.096 81.4226 116.53C81.4226 117.965 82.5853 119.127 84.0196 119.127Z" fill="white"/>
<path d="M45.0893 14.644C47.0954 10.8588 49.6448 3.31467 53.6942 1.9158C55.943 1.17022 58.2672 0.675151 60.6246 0.439588L67.5075 3.08615L63.7614 0.172903C64.4908 0.129611 65.2196 0.0940878 65.948 0.0663284L70.5917 1.85085L68.2158 0.00287549C72.5453 -0.0417378 77.0141 0.408853 80.369 3.04401C83.2292 5.29103 86.0626 13.8008 86.5206 17.4105C87.0104 20.8619 86.8389 24.3749 86.0155 27.7622L84.8392 28.8805C84.4279 27.9372 84.1186 26.9526 83.9167 25.9435C83.4951 24.058 82.6853 22.2811 81.5389 20.7259C80.3925 19.1707 78.9347 17.8714 77.2584 16.9108L77.1945 16.8746C75.2221 15.7642 72.8283 15.8158 70.5664 15.8971L59.8236 16.2837C57.239 16.3769 54.4556 16.5405 52.4406 18.1615C51.0794 19.2565 50.2639 20.8725 49.4887 22.4379C48.4873 24.4589 46.5308 32.0813 46.5308 32.0813C46.5308 32.0813 45.4239 30.6438 44.895 31.7135C44.0441 28.9195 43.5268 26.0346 43.3538 23.119C43.184 20.1906 43.7821 17.2686 45.0888 14.6425L45.0893 14.644Z" fill="#090814"/>
</svg>
