<svg width="802" height="648" viewBox="0 0 802 648" fill="none" xmlns="http://www.w3.org/2000/svg">
<g clip-path="url(#clip0_42_101)">
<path d="M230.751 397.592C236.676 397.592 242.469 399.349 247.395 402.641C252.322 405.933 256.162 410.612 258.43 416.086C260.697 421.561 261.29 427.584 260.134 433.396C258.978 439.207 256.125 444.545 251.935 448.735C247.745 452.925 242.407 455.778 236.596 456.934C230.784 458.09 224.76 457.497 219.286 455.23C213.812 452.962 209.133 449.122 205.841 444.195C202.549 439.269 200.792 433.476 200.792 427.551C200.792 419.605 203.948 411.985 209.567 406.367C215.185 400.748 222.805 397.592 230.751 397.592Z" fill="#757575"/>
<path d="M769.821 0.00407464H529.206C517.595 0.00368751 506.329 3.95378 497.26 11.205C488.192 18.4563 481.86 28.5772 479.306 39.9041L357.73 579.172C356.404 585.054 356.381 591.155 357.662 597.047C358.943 602.939 361.497 608.479 365.146 613.28C368.794 618.08 373.449 622.024 378.783 624.836C384.117 627.647 390.002 629.257 396.024 629.554L643.379 641.741C656.624 642.394 669.654 638.205 680.038 629.956C690.421 621.707 697.449 609.962 699.809 596.913L768.779 215.646L773.91 217.112L787.11 144.847L781.829 143.527L801.079 37.1011C801.904 32.5425 801.713 27.8581 800.52 23.3817C799.327 18.9054 797.161 14.7474 794.176 11.2042C791.192 7.66106 787.462 4.81995 783.254 2.88345C779.045 0.94696 774.462 -0.0372209 769.829 0.00107629L769.821 0.00407464Z" fill="#3F3D56"/>
<path d="M560.879 11.6341H532.795C524.729 11.6342 516.906 14.3928 510.624 19.452C504.342 24.5111 499.979 31.5666 498.259 39.4471L381.559 574.31C380.887 577.39 380.887 580.578 381.56 583.657C382.233 586.737 383.563 589.635 385.459 592.153C387.355 594.671 389.772 596.75 392.545 598.248C395.319 599.747 398.383 600.629 401.528 600.834L648.079 616.994C655.035 617.45 661.915 615.329 667.406 611.036C672.898 606.742 676.616 600.577 677.852 593.717L777.432 40.8791C778.076 37.3012 777.926 33.6257 776.995 30.1118C776.063 26.598 774.371 23.3314 772.039 20.5425C769.708 17.7536 766.792 15.5104 763.499 13.9712C760.205 12.432 756.614 11.6342 752.979 11.6341H726.337C723.758 11.634 721.251 12.4841 719.204 14.0527C717.157 15.6213 715.685 17.8209 715.014 20.3111C714.422 22.5102 713.121 24.4528 711.313 25.8378C709.506 27.2228 707.291 27.973 705.014 27.9721H578.526C574.068 27.972 569.773 26.2893 566.502 23.2603C563.23 20.2314 561.222 16.0793 560.879 11.6341Z" fill="white"/>
<path d="M481.908 405.002C481.682 405.002 481.463 405.079 481.287 405.219C481.11 405.359 480.986 405.555 480.935 405.775L478.612 415.731C478.579 415.872 478.577 416.018 478.606 416.159C478.635 416.301 478.694 416.434 478.78 416.551C478.865 416.667 478.975 416.764 479.101 416.834C479.228 416.904 479.368 416.945 479.512 416.956L610.742 426.283C610.985 426.298 611.226 426.225 611.42 426.077C611.613 425.929 611.747 425.715 611.795 425.476L614.029 413.957C614.056 413.817 614.053 413.673 614.02 413.535C613.987 413.396 613.924 413.267 613.837 413.154C613.75 413.042 613.64 412.949 613.514 412.883C613.388 412.816 613.249 412.778 613.107 412.769L481.969 405.004L481.908 405.002Z" fill="#E6E6E6"/>
<path d="M641.345 463.265C641.582 463.284 641.817 463.218 642.01 463.079C642.202 462.94 642.339 462.738 642.396 462.507L645.24 450.964C645.275 450.823 645.278 450.675 645.25 450.532C645.222 450.389 645.164 450.254 645.078 450.136C644.992 450.018 644.882 449.921 644.754 449.85C644.627 449.779 644.485 449.737 644.34 449.727L476.751 438.006C476.524 437.988 476.297 438.049 476.109 438.179C475.922 438.309 475.785 438.5 475.722 438.719L472.767 448.694C472.725 448.837 472.715 448.987 472.738 449.134C472.762 449.281 472.817 449.42 472.901 449.543C472.986 449.666 473.096 449.768 473.225 449.843C473.353 449.917 473.497 449.962 473.645 449.974L641.345 463.265Z" fill="#E6E6E6"/>
<path d="M632.345 500.265C632.582 500.284 632.817 500.218 633.01 500.079C633.202 499.94 633.339 499.738 633.396 499.507L636.24 487.964C636.275 487.823 636.278 487.675 636.25 487.532C636.222 487.389 636.164 487.254 636.078 487.136C635.992 487.018 635.882 486.921 635.754 486.85C635.627 486.779 635.485 486.737 635.34 486.727L467.751 475.006C467.524 474.988 467.297 475.049 467.109 475.179C466.922 475.309 466.785 475.5 466.722 475.719L463.767 485.694C463.725 485.837 463.715 485.987 463.738 486.134C463.762 486.281 463.817 486.42 463.901 486.543C463.986 486.666 464.096 486.768 464.225 486.843C464.353 486.917 464.497 486.962 464.645 486.974L632.345 500.265Z" fill="#E6E6E6"/>
<path d="M341.778 630.523C341.778 638.892 265.173 639.783 170.889 645.676C76.689 651.563 0 638.892 0 630.523C0 622.154 77.047 605.316 170.889 615.37C265.173 625.472 341.778 622.154 341.778 630.523Z" fill="#E6E6E6"/>
<path d="M555.16 563.517C555.399 563.542 555.638 563.479 555.834 563.34C556.03 563.202 556.168 562.997 556.224 562.763L562.237 538.712C562.272 538.572 562.277 538.425 562.25 538.283C562.223 538.14 562.165 538.005 562.081 537.887C561.996 537.769 561.888 537.671 561.762 537.599C561.636 537.528 561.495 537.484 561.351 537.472L458.435 528.816C458.195 528.8 457.956 528.869 457.762 529.011C457.568 529.154 457.431 529.361 457.375 529.595L452.246 552.678C452.215 552.817 452.214 552.96 452.243 553.099C452.272 553.238 452.33 553.369 452.414 553.484C452.497 553.599 452.604 553.694 452.727 553.765C452.851 553.835 452.988 553.878 453.129 553.891L555.16 563.517Z" fill="#595959"/>
<path d="M208.011 379.125C208.011 379.125 223.011 410.384 213.011 411.635C203.011 412.886 200.511 383.502 200.511 383.502L208.011 379.125Z" fill="#ED9DA0"/>
<path d="M171.126 229.706C174.645 230.632 177.812 232.577 180.229 235.297C182.647 238.017 184.206 241.391 184.713 244.994L193.632 308.478L206.132 359.118C206.132 359.118 212.384 364.745 209.883 367.871C207.382 370.997 213.009 384.126 213.009 384.126L197.379 389.126C197.379 389.126 195.503 375.997 192.379 375.372C189.632 374.823 158.879 292.672 151.466 272.772C150.444 270.028 149.866 268.472 149.866 268.472C149.866 268.472 151.12 226.58 171.126 229.706Z" fill="#D6D6E3"/>
<path d="M151.12 579.185L163.32 602.329L142.997 608.256L138.668 587.325L151.12 579.185Z" fill="#ED9DA0"/>
<path d="M162.441 599.666L183.924 610.657C183.924 610.657 217.546 618.672 195.655 625.333C173.764 631.994 163.91 627.259 163.91 627.259C163.91 627.259 135.274 628.748 135.735 620.759C136.196 612.77 141.705 601.535 141.705 601.535C141.705 601.535 160.872 606.544 162.441 599.666Z" fill="#090814"/>
<path d="M106.73 378.809L116.108 492.281C116.108 492.281 116.421 560.114 126.424 573.243C136.427 586.372 136.737 592.94 136.737 592.94L157.37 582.309C157.37 582.309 146.742 564.599 148.93 561.888C150.279 560.169 151.238 558.177 151.743 556.051L146.116 486.03L156.744 364.118L106.73 378.809Z" fill="#090814"/>
<path d="M132.361 579.185L123.608 602.317L98.601 592.939L114.231 576.684L132.361 579.185Z" fill="#ED9DA0"/>
<path d="M186.13 379.125L191.13 483.531C191.13 483.531 166.748 552.931 145.491 564.18C145.491 564.18 145.491 577.934 140.491 580.435C139.001 581.204 137.68 582.264 136.606 583.552C135.532 584.841 134.727 586.331 134.239 587.935L106.731 581.058L119.231 561.052L146.739 494.152C146.739 494.152 151.115 492.276 152.366 486.024C153.617 479.772 156.117 479.772 149.866 478.524C143.615 477.276 143.614 471.024 143.614 471.024L122.983 375.995L186.13 379.125Z" fill="#090814"/>
<path d="M137.048 226.894C138.696 224.832 140.073 210.294 140.819 200.606C138.596 195.685 138.024 190.176 139.19 184.904C140.357 179.631 143.2 174.878 147.292 171.354C151.384 167.83 156.504 165.725 161.892 165.353C167.279 164.982 172.642 166.363 177.179 169.291C181.716 172.22 185.184 176.538 187.064 181.6C188.943 186.662 189.134 192.197 187.608 197.377C186.082 202.557 182.921 207.104 178.597 210.338C174.273 213.573 169.018 215.321 163.618 215.322C163.276 215.322 162.934 215.315 162.595 215.301C162.825 222.454 163.308 229.389 163.308 229.389C163.308 229.389 160.949 229.44 157.64 229.44C149.393 229.442 135.265 229.123 137.048 226.894Z" fill="#ED9DA0"/>
<path d="M132.987 217.202C132.987 217.202 156.744 214.702 165.497 222.202C168.293 224.589 171.289 226.732 174.451 228.607C177.091 230.191 179.291 232.413 180.848 235.069C182.405 237.725 183.269 240.73 183.361 243.807L188.004 385.996C188.004 385.996 117.358 379.744 104.229 385.996C104.229 385.996 103.604 371.617 102.353 369.741C101.441 368.374 99.865 313.841 99.078 284.392C98.5389 267.757 104.416 251.552 115.492 239.13C119.281 234.936 123.515 231.42 127.985 229.7C127.986 229.705 126.735 217.83 132.987 217.202Z" fill="#D6D6E3"/>
<path opacity="0.1" d="M150.181 268.153L188.003 370.478C188.003 370.478 151.431 301.288 150.181 268.153Z" fill="black"/>
<path d="M149.222 203.129C151.151 202.254 153.335 202.181 155.395 201.688C159.061 200.689 162.248 198.409 164.379 195.263C166.51 192.116 167.443 188.311 167.01 184.536C166.781 183.569 166.712 182.571 166.806 181.581C167.214 179.403 169.541 178.124 171.723 177.755C173.905 177.387 176.191 177.593 178.296 176.909C179.9 176.301 181.317 175.285 182.408 173.961C183.498 172.638 184.225 171.052 184.516 169.362C185.052 165.957 184.498 162.47 182.932 159.399L182.02 161.591C180.895 160.516 180.095 159.147 179.709 157.639C178.817 157.734 177.964 158.056 177.232 158.575C176.5 159.094 175.914 159.792 175.529 160.602C174.237 161.263 174.239 158.23 172.887 157.701C172.286 157.589 171.664 157.703 171.142 158.022C168.286 159.15 165.125 157.847 162.19 156.95C157.105 155.401 151.728 155.07 146.492 155.984C142.969 156.458 139.653 157.919 136.926 160.198C134.875 162.261 133.247 164.705 132.135 167.393C129.103 173.858 126.937 180.919 127.375 188.048C127.749 193.881 129.843 199.472 133.391 204.116C135.24 206.528 141.242 214.906 144.88 213.759C149.449 212.317 143.792 205.594 149.222 203.129Z" fill="#090814"/>
<path d="M121.509 590.227C121.509 590.227 129.775 585.105 130.809 587.154C131.843 589.203 135.975 597.911 135.975 597.911L140.625 610.716C140.625 610.716 169.039 628.644 144.758 629.668C120.477 630.692 114.278 616.863 114.278 616.863C114.278 616.863 86.897 605.082 91.03 597.911C95.163 590.74 109.63 583.302 109.63 583.302C109.63 583.302 116.859 595.862 121.509 590.227Z" fill="#090814"/>
<path d="M522.596 60.4261H732.208C736.451 60.4261 740.521 62.1118 743.522 65.1124C746.522 68.113 748.208 72.1826 748.208 76.4261L700.138 360.247C700.138 364.491 698.452 368.56 695.452 371.561C692.451 374.561 688.381 376.247 684.138 376.247L464.222 360.247C459.979 360.247 455.909 358.561 452.908 355.561C449.908 352.56 448.222 348.491 448.222 344.247L506.596 76.4261C506.596 72.1826 508.282 68.113 511.282 65.1124C514.283 62.1118 518.353 60.4261 522.596 60.4261Z" fill="#B3B3B3"/>
<path d="M230 416C226.576 416.01 223.273 417.271 220.713 419.547L219.158 417.992C218.995 417.828 218.787 417.717 218.561 417.672C218.335 417.627 218.1 417.65 217.887 417.739C217.674 417.827 217.492 417.977 217.363 418.168C217.235 418.36 217.167 418.586 217.167 418.816V424.167C217.167 424.476 217.29 424.773 217.508 424.992C217.727 425.21 218.024 425.333 218.333 425.333H223.684C223.914 425.333 224.14 425.265 224.332 425.137C224.524 425.008 224.673 424.826 224.761 424.613C224.85 424.4 224.873 424.165 224.828 423.939C224.783 423.713 224.672 423.505 224.509 423.342L223.184 422.018C224.73 420.698 226.625 419.854 228.64 419.59C230.655 419.326 232.703 419.653 234.537 420.53C236.37 421.407 237.909 422.797 238.968 424.532C240.026 426.267 240.558 428.272 240.5 430.303C240.425 432.928 239.369 435.43 237.541 437.314C235.712 439.199 233.244 440.33 230.623 440.485C228.001 440.64 225.417 439.807 223.38 438.15C221.342 436.493 220 434.133 219.617 431.535C219.562 431.113 219.356 430.725 219.037 430.442C218.718 430.16 218.308 430.003 217.882 430C217.635 429.997 217.39 430.046 217.163 430.146C216.937 430.245 216.734 430.391 216.569 430.574C216.403 430.758 216.279 430.975 216.204 431.21C216.129 431.446 216.105 431.695 216.134 431.94C216.62 435.377 218.363 438.512 221.026 440.738C223.69 442.963 227.084 444.122 230.553 443.99C234.062 443.821 237.382 442.351 239.866 439.866C242.351 437.382 243.82 434.062 243.99 430.553C244.062 428.67 243.754 426.792 243.083 425.03C242.413 423.269 241.395 421.661 240.089 420.303C238.783 418.944 237.216 417.863 235.483 417.123C233.749 416.384 231.884 416.002 230 416V416Z" fill="white"/>
<path d="M229.417 424.166C228.953 424.166 228.507 424.35 228.179 424.679C227.851 425.007 227.667 425.452 227.667 425.916V430.925C227.667 431.543 227.913 432.137 228.35 432.574L230.442 434.666C230.772 434.985 231.214 435.161 231.673 435.157C232.132 435.153 232.571 434.969 232.895 434.645C233.22 434.32 233.404 433.881 233.408 433.422C233.412 432.964 233.236 432.522 232.917 432.192L231.167 430.442V425.916C231.167 425.452 230.982 425.007 230.654 424.679C230.326 424.35 229.881 424.166 229.417 424.166Z" fill="white"/>
<path d="M520.878 229.79C520.878 229.79 520.866 229.79 520.842 229.79C520.458 229.797 520.073 229.744 519.687 229.63C519.301 229.517 518.983 229.175 518.733 228.603C518.483 228.007 518.345 227.001 518.32 225.586C518.303 224.602 518.414 223.4 518.654 221.979C518.893 220.559 519.202 219.029 519.582 217.39C519.985 215.727 520.424 214.075 520.899 212.435C521.375 210.794 521.828 209.262 522.259 207.838C522.714 206.414 523.113 205.195 523.456 204.181C523.822 203.166 524.086 202.489 524.248 202.151C524.409 201.74 524.679 201.387 525.058 201.092C525.46 200.773 525.878 200.61 526.31 200.602C527.197 200.587 527.778 200.817 528.05 201.292C528.322 201.743 528.463 202.245 528.472 202.797C528.481 203.277 528.296 204.396 527.919 206.155C527.541 207.89 526.937 210.445 526.108 213.82C528.121 213.641 530.182 213.413 532.289 213.136C534.421 212.859 536.3 212.598 537.928 212.353C538.287 210.907 538.636 209.569 538.975 208.338C539.313 207.084 539.606 206.035 539.856 205.191C540.105 204.322 540.275 203.743 540.365 203.453C540.734 202.559 541.131 201.94 541.557 201.596C542.007 201.252 542.472 201.076 542.952 201.068C543.576 201.057 544.108 201.252 544.547 201.652C545.009 202.028 545.249 202.672 545.265 203.584C545.275 204.16 545.137 205.23 544.853 206.796C544.568 208.361 544.215 210.131 543.793 212.107C544.157 212.341 544.474 212.623 544.744 212.954C545.038 213.285 545.187 213.595 545.192 213.883C545.199 214.267 545.109 214.64 544.924 215.004C544.762 215.343 544.383 215.649 543.788 215.924C543.621 215.999 543.322 216.088 542.892 216.191C542.469 218.047 542.056 219.83 541.653 221.542C541.275 223.229 540.952 224.674 540.685 225.879C540.417 227.06 540.263 227.819 540.221 228.156C540.092 229.046 539.841 229.795 539.468 230.401C539.095 231.032 538.512 231.354 537.72 231.368C537.12 231.378 536.624 231.111 536.23 230.566C535.836 230.021 535.625 228.896 535.595 227.192C535.573 225.921 535.679 224.442 535.914 222.758C536.148 221.05 536.442 219.304 536.794 217.522C535 217.841 533.06 218.127 530.977 218.38C528.892 218.608 526.854 218.728 524.862 218.738C524.213 221.462 523.675 223.632 523.247 225.248C522.843 226.863 522.468 228.022 522.12 228.724C521.772 229.426 521.358 229.781 520.878 229.79ZM580.716 213.047C581.363 214.356 582.012 215.736 582.661 217.189C583.311 218.642 583.851 220.061 584.284 221.446C584.739 222.806 584.977 224.038 584.996 225.142C585.019 226.438 584.702 227.523 584.045 228.399C583.412 229.25 582.583 229.925 581.56 230.423C580.537 230.945 579.451 231.312 578.303 231.524C577.154 231.736 576.088 231.85 575.104 231.868C574.384 231.88 573.782 231.735 573.296 231.431C572.835 231.151 572.599 230.675 572.587 230.003C572.577 229.427 572.774 229.016 573.178 228.769C573.581 228.498 574.094 228.309 574.716 228.202C575.195 228.121 575.769 228.015 576.439 227.884C577.133 227.751 577.813 227.56 578.481 227.308C579.149 227.056 579.695 226.747 580.121 226.379C580.57 225.987 580.79 225.503 580.78 224.927C580.758 223.68 580.46 222.413 579.885 221.126C579.31 219.816 578.699 218.483 578.051 217.126C576.904 218.802 575.565 220.47 574.034 222.129C572.526 223.763 570.932 225.255 569.251 226.605C567.594 227.93 565.944 228.991 564.302 229.788C562.684 230.608 561.203 231.03 559.86 231.053C557.94 231.087 556.345 230.479 555.075 229.229C553.829 227.978 553.183 226.021 553.136 223.358C553.109 221.822 553.263 220.295 553.596 218.777C553.929 217.235 554.349 215.835 554.855 214.578C555.385 213.321 555.932 212.315 556.495 211.561C557.058 210.807 557.567 210.426 558.023 210.418C558.503 210.41 558.926 210.547 559.29 210.828C559.679 211.11 559.88 211.598 559.892 212.294C559.897 212.582 559.787 213.124 559.56 213.92C559.358 214.716 559.111 215.656 558.818 216.741C558.549 217.826 558.304 218.959 558.085 220.139C557.889 221.318 557.8 222.412 557.818 223.42C557.836 224.452 558.018 225.253 558.364 225.823C558.734 226.392 559.279 226.671 559.999 226.658C560.959 226.642 562.046 226.335 563.259 225.737C564.473 225.14 565.719 224.35 566.999 223.368C568.302 222.385 569.555 221.295 570.758 220.098C571.985 218.9 573.08 217.669 574.042 216.404C575.028 215.138 575.799 213.949 576.356 212.835C576.203 212.309 576.074 211.784 575.969 211.257C575.887 210.731 575.842 210.191 575.832 209.639C575.809 208.32 576.042 207.235 576.532 206.387C577.02 205.514 577.853 205.067 579.029 205.047C580.084 205.028 580.882 205.363 581.422 206.049C581.963 206.736 582.242 207.643 582.262 208.771C582.273 209.395 582.129 210.07 581.829 210.795C581.554 211.496 581.183 212.246 580.716 213.047ZM559.259 206.976C558.323 206.993 557.599 206.765 557.087 206.294C556.599 205.822 556.347 205.179 556.333 204.363C556.317 203.451 556.628 202.714 557.267 202.15C557.905 201.563 558.643 201.262 559.483 201.247C560.419 201.231 561.167 201.47 561.728 201.964C562.289 202.459 562.577 203.174 562.594 204.11C562.601 204.518 562.452 204.952 562.148 205.414C561.868 205.851 561.478 206.217 560.979 206.514C560.481 206.811 559.907 206.965 559.259 206.976ZM613.41 210.604C613.415 210.892 613.323 211.145 613.135 211.365C612.947 211.584 612.71 211.756 612.424 211.881C612.019 212.056 611.315 212.285 610.311 212.566C609.308 212.848 608.09 213.169 606.656 213.53C605.246 213.891 603.728 214.265 602.103 214.654C600.477 215.018 598.851 215.371 597.224 215.711C596.641 218.026 596.046 220.412 595.441 222.871C594.835 225.306 594.229 227.705 593.622 230.068C593.397 230.912 593.12 231.553 592.792 231.991C592.464 232.453 591.892 232.691 591.076 232.705C590.188 232.72 589.583 232.443 589.261 231.872C588.963 231.326 588.914 230.57 589.114 229.607C589.692 226.98 590.225 224.534 590.714 222.27C591.226 220.004 591.638 218.173 591.95 216.775C590.514 217.04 589.258 217.254 588.181 217.417C587.103 217.556 586.336 217.617 585.879 217.601C585.375 217.562 584.951 217.365 584.609 217.011C584.267 216.657 584.103 216.216 584.118 215.688C584.157 215.207 584.366 214.795 584.744 214.453C585.122 214.086 585.574 213.862 586.101 213.781C586.843 213.696 587.801 213.571 588.975 213.407C590.148 213.242 591.441 213.052 592.853 212.835C593.144 211.606 593.482 210.339 593.867 209.037C594.252 207.71 594.65 206.443 595.061 205.235C595.496 204.003 595.909 202.928 596.301 202.009C596.693 201.09 597.053 200.424 597.382 200.01C597.641 199.693 597.961 199.448 598.342 199.273C598.747 199.098 599.141 199.007 599.525 199C600.029 198.991 600.44 199.164 600.758 199.519C601.076 199.873 601.24 200.291 601.248 200.77C601.251 200.962 601.243 201.167 601.223 201.383C601.202 201.575 601.157 201.768 601.089 201.961C600.654 203.169 600.187 204.63 599.689 206.343C599.215 208.055 598.72 209.936 598.203 211.985C599.998 211.69 601.758 211.395 603.481 211.101C605.227 210.783 606.807 210.491 608.218 210.226C609.653 209.937 610.801 209.689 611.662 209.482C612.139 209.306 612.547 209.335 612.887 209.569C613.227 209.779 613.401 210.124 613.41 210.604ZM614.312 229.923C612.608 229.953 611.23 229.377 610.177 228.195C609.124 226.989 608.579 225.366 608.544 223.327C608.532 222.679 608.605 222.017 608.761 221.343C608.941 220.667 609.158 220.039 609.412 219.459C609.264 219.245 609.14 218.972 609.038 218.637C608.96 218.279 608.916 217.859 608.908 217.379C608.881 215.82 609.132 214.387 609.661 213.082C610.19 211.752 610.914 210.599 611.833 209.623C612.752 208.647 613.771 207.885 614.89 207.337C616.008 206.79 617.143 206.506 618.295 206.486C620.263 206.451 621.882 207.083 623.153 208.381C624.448 209.679 625.12 211.72 625.168 214.503C625.192 215.895 625.001 217.314 624.594 218.762C624.188 220.209 623.624 221.599 622.903 222.932C622.206 224.24 621.386 225.419 620.444 226.467C619.526 227.516 618.533 228.349 617.463 228.968C616.418 229.586 615.367 229.905 614.312 229.923ZM613.523 217.767C613.648 218.029 613.713 218.34 613.72 218.7C613.726 219.06 613.66 219.433 613.523 219.819C613.386 220.206 613.251 220.724 613.118 221.374C612.985 222.001 612.929 222.902 612.949 224.078C612.955 224.39 612.995 224.653 613.071 224.868C613.171 225.058 613.376 225.151 613.688 225.145C614.504 225.131 615.267 224.853 615.978 224.313C616.713 223.772 617.36 223.065 617.921 222.191C618.506 221.316 618.993 220.348 619.383 219.285C619.796 218.197 620.101 217.1 620.297 215.992C620.518 214.86 620.619 213.814 620.603 212.855C620.592 212.231 620.464 211.801 620.22 211.565C619.976 211.329 619.554 211.217 618.954 211.227C618.138 211.241 617.303 211.52 616.448 212.063C615.617 212.582 614.921 213.29 614.361 214.188C613.8 215.062 613.529 216.05 613.549 217.154C613.552 217.37 613.544 217.574 613.523 217.767ZM631.022 230.027C630.422 230.038 629.902 229.831 629.463 229.406C629.047 228.982 628.833 228.361 628.818 227.545C628.812 227.185 628.85 226.597 628.931 225.779C629.037 224.937 629.164 223.975 629.313 222.892C629.486 221.809 629.647 220.678 629.794 219.499C629.965 218.32 630.102 217.201 630.204 216.143C630.329 215.085 630.409 214.184 630.444 213.439C630.476 212.526 630.705 211.874 631.13 211.483C631.555 211.067 632.067 210.854 632.667 210.844C633.147 210.835 633.581 210.948 633.969 211.181C634.381 211.39 634.641 211.853 634.75 212.572C634.882 213.265 634.912 214.273 634.839 215.595C635.861 213.656 636.899 211.922 637.952 210.391C639.03 208.86 640.161 207.64 641.345 206.732C643.31 205.185 645.097 204.398 646.705 204.37C647.616 204.354 648.22 204.547 648.515 204.95C648.81 205.353 648.961 205.771 648.969 206.202C648.974 206.49 648.907 206.756 648.767 206.998C648.651 207.24 648.391 207.497 647.988 207.768C647.585 208.039 646.967 208.398 646.135 208.844C645.017 209.44 643.914 210.215 642.827 211.17C641.763 212.125 640.704 213.344 639.65 214.826C638.596 216.309 637.535 218.128 636.469 220.283C635.402 222.438 634.307 225.001 633.182 227.973C632.981 228.793 632.678 229.338 632.275 229.609C631.896 229.88 631.478 230.019 631.022 230.027ZM653.741 237.948C652.397 237.971 651.172 237.909 650.065 237.76C648.959 237.635 647.874 237.414 646.813 237.097C645.751 236.779 644.604 236.355 643.37 235.825C642.862 235.594 642.438 235.349 642.097 235.091C641.757 234.833 641.582 234.44 641.572 233.912C641.559 233.144 641.789 232.552 642.262 232.135C642.711 231.744 643.343 231.541 644.159 231.526C644.591 231.519 645.146 231.653 645.822 231.929C646.5 232.23 647.274 232.564 648.144 232.933C649.039 233.325 650.029 233.656 651.114 233.925C652.199 234.218 653.366 234.354 654.614 234.332C655.886 234.31 657.064 233.761 658.15 232.686C659.235 231.611 660.097 230.108 660.735 228.176C661.398 226.269 661.707 224.019 661.662 221.427C661.651 220.827 661.628 220.18 661.592 219.484C661.555 218.765 661.518 218.009 661.48 217.218C660.645 218.865 659.735 220.405 658.752 221.838C657.769 223.271 656.745 224.442 655.681 225.348C654.64 226.231 653.58 226.681 652.5 226.7C651.18 226.723 650.215 226.428 649.604 225.814C649.017 225.177 648.711 224.162 648.687 222.77C648.667 221.594 648.728 220.309 648.872 218.914C649.039 217.495 649.266 216.063 649.553 214.618C649.84 213.172 650.176 211.798 650.561 210.495C650.97 209.168 651.406 208.02 651.869 207.052C652.217 206.35 652.763 205.992 653.507 205.979C653.987 205.971 654.471 206.19 654.958 206.638C655.47 207.085 655.733 207.693 655.746 208.461C655.754 208.892 655.657 209.518 655.455 210.338C655.253 211.158 655.006 212.086 654.712 213.123C654.441 214.136 654.16 215.209 653.868 216.343C653.575 217.452 653.33 218.548 653.133 219.632C652.935 220.691 652.844 221.653 652.859 222.517C652.861 222.613 652.934 222.66 653.078 222.657C653.366 222.652 653.745 222.406 654.217 221.917C654.712 221.405 655.253 220.747 655.839 219.945C656.448 219.118 657.057 218.219 657.664 217.248C658.295 216.253 658.902 215.271 659.485 214.3C660.068 213.33 660.593 212.445 661.059 211.644C660.98 211.262 660.926 210.927 660.897 210.639C660.892 210.327 660.887 210.063 660.883 209.847C660.866 208.863 661.02 208.044 661.345 207.391C661.693 206.736 662.383 206.4 663.415 206.382C664.087 206.371 664.608 206.614 664.976 207.111C665.345 207.585 665.536 208.266 665.552 209.154C665.559 209.537 665.506 209.982 665.395 210.488C665.284 210.97 665.057 211.743 664.716 212.805L665.092 211.682C665.346 213.838 665.559 215.754 665.732 217.432C665.93 219.108 666.043 220.775 666.072 222.43C666.126 225.55 665.645 228.259 664.629 230.557C663.638 232.879 662.205 234.68 660.331 235.961C658.481 237.241 656.284 237.904 653.741 237.948Z" fill="black"/>
</g>
<path d="M230.751 397.592C236.676 397.592 242.469 399.349 247.395 402.641C252.322 405.933 256.162 410.612 258.43 416.086C260.697 421.561 261.29 427.584 260.134 433.396C258.978 439.207 256.125 444.545 251.935 448.735C247.745 452.925 242.407 455.778 236.596 456.934C230.784 458.09 224.76 457.497 219.286 455.23C213.812 452.962 209.133 449.122 205.841 444.195C202.549 439.269 200.792 433.476 200.792 427.551C200.792 419.605 203.948 411.985 209.567 406.367C215.185 400.748 222.805 397.592 230.751 397.592Z" fill="#757575"/>
<path d="M769.821 0.00407464H529.206C517.595 0.00368751 506.329 3.95378 497.26 11.205C488.192 18.4563 481.86 28.5772 479.306 39.9041L357.73 579.172C356.404 585.054 356.381 591.155 357.662 597.047C358.943 602.939 361.497 608.479 365.146 613.28C368.794 618.08 373.449 622.024 378.783 624.836C384.117 627.647 390.002 629.257 396.024 629.554L643.379 641.741C656.624 642.394 669.654 638.205 680.038 629.956C690.421 621.707 697.449 609.962 699.809 596.913L768.779 215.646L773.91 217.112L787.11 144.847L781.829 143.527L801.079 37.1011C801.904 32.5425 801.713 27.8581 800.52 23.3817C799.327 18.9054 797.161 14.7474 794.176 11.2042C791.192 7.66106 787.462 4.81995 783.254 2.88345C779.045 0.94696 774.462 -0.0372209 769.829 0.00107629L769.821 0.00407464Z" fill="#3F3D56"/>
<path d="M560.879 11.6341H532.795C524.729 11.6342 516.906 14.3928 510.624 19.452C504.342 24.5111 499.979 31.5666 498.259 39.4471L381.559 574.31C380.887 577.39 380.887 580.578 381.56 583.657C382.233 586.737 383.563 589.635 385.459 592.153C387.355 594.671 389.772 596.75 392.545 598.248C395.319 599.747 398.383 600.629 401.528 600.834L648.079 616.994C655.035 617.45 661.915 615.329 667.406 611.036C672.898 606.742 676.616 600.577 677.852 593.717L777.432 40.8791C778.076 37.3012 777.926 33.6257 776.995 30.1118C776.063 26.598 774.371 23.3314 772.039 20.5425C769.708 17.7536 766.792 15.5104 763.499 13.9712C760.205 12.432 756.614 11.6342 752.979 11.6341H726.337C723.758 11.634 721.251 12.4841 719.204 14.0527C717.157 15.6213 715.685 17.8209 715.014 20.3111C714.422 22.5102 713.121 24.4528 711.313 25.8378C709.506 27.2228 707.291 27.973 705.014 27.9721H578.526C574.068 27.972 569.773 26.2893 566.502 23.2603C563.23 20.2314 561.222 16.0793 560.879 11.6341Z" fill="white"/>
<path d="M481.908 405.002C481.682 405.002 481.463 405.079 481.287 405.219C481.11 405.359 480.986 405.555 480.935 405.775L478.612 415.731C478.579 415.872 478.577 416.018 478.606 416.159C478.635 416.301 478.694 416.434 478.78 416.551C478.865 416.667 478.975 416.764 479.101 416.834C479.228 416.904 479.368 416.945 479.512 416.956L610.742 426.283C610.985 426.298 611.226 426.225 611.42 426.077C611.613 425.929 611.747 425.715 611.795 425.476L614.029 413.957C614.056 413.817 614.053 413.673 614.02 413.535C613.987 413.396 613.924 413.267 613.837 413.154C613.75 413.042 613.64 412.949 613.514 412.883C613.388 412.816 613.249 412.778 613.107 412.769L481.969 405.004L481.908 405.002Z" fill="#E6E6E6"/>
<path d="M641.345 463.265C641.582 463.284 641.817 463.218 642.01 463.079C642.202 462.94 642.339 462.738 642.396 462.507L645.24 450.964C645.275 450.823 645.278 450.675 645.25 450.532C645.222 450.389 645.164 450.254 645.078 450.136C644.992 450.018 644.882 449.921 644.754 449.85C644.627 449.779 644.485 449.737 644.34 449.727L476.751 438.006C476.524 437.988 476.297 438.049 476.109 438.179C475.922 438.309 475.785 438.5 475.722 438.719L472.767 448.694C472.725 448.837 472.715 448.987 472.738 449.134C472.762 449.281 472.817 449.42 472.901 449.543C472.986 449.666 473.096 449.768 473.225 449.843C473.353 449.917 473.497 449.962 473.645 449.974L641.345 463.265Z" fill="#E6E6E6"/>
<path d="M632.345 500.265C632.582 500.284 632.817 500.218 633.01 500.079C633.202 499.94 633.339 499.738 633.396 499.507L636.24 487.964C636.275 487.823 636.278 487.675 636.25 487.532C636.222 487.389 636.164 487.254 636.078 487.136C635.992 487.018 635.882 486.921 635.754 486.85C635.627 486.779 635.485 486.737 635.34 486.727L467.751 475.006C467.524 474.988 467.297 475.049 467.109 475.179C466.922 475.309 466.785 475.5 466.722 475.719L463.767 485.694C463.725 485.837 463.715 485.987 463.738 486.134C463.762 486.281 463.817 486.42 463.901 486.543C463.986 486.666 464.096 486.768 464.225 486.843C464.353 486.917 464.497 486.962 464.645 486.974L632.345 500.265Z" fill="#E6E6E6"/>
<path d="M341.778 630.523C341.778 638.892 265.173 639.783 170.889 645.676C76.689 651.563 0 638.892 0 630.523C0 622.154 77.047 605.316 170.889 615.37C265.173 625.472 341.778 622.154 341.778 630.523Z" fill="#E6E6E6"/>
<path d="M622.308 577.992C622.768 578.029 623.229 577.936 623.607 577.732C623.984 577.529 624.251 577.227 624.358 576.884L635.942 541.545C636.01 541.338 636.018 541.122 635.966 540.913C635.914 540.704 635.803 540.506 635.641 540.332C635.479 540.159 635.269 540.015 635.026 539.909C634.783 539.804 634.513 539.74 634.235 539.722L435.969 527.004C435.506 526.979 435.047 527.081 434.673 527.291C434.299 527.5 434.035 527.804 433.927 528.148L424.046 562.066C423.987 562.269 423.985 562.48 424.04 562.684C424.096 562.889 424.208 563.081 424.369 563.25C424.53 563.418 424.736 563.559 424.974 563.662C425.211 563.765 425.475 563.829 425.747 563.848L622.308 577.992Z" fill="#595959"/>
<path d="M442.055 556.159C441.851 556.061 441.615 555.925 441.347 555.752C441.077 555.593 440.825 555.386 440.59 555.131C440.355 554.876 440.18 554.576 440.064 554.231C439.952 553.816 439.882 553.411 439.854 553.016C439.839 552.622 439.857 552.167 439.907 551.651C439.958 550.925 440.051 550.3 440.186 549.776C440.335 549.239 440.542 548.7 440.804 548.157C440.835 548.117 440.892 548.001 440.976 547.811C441.074 547.607 441.18 547.39 441.295 547.159C441.423 546.93 441.52 546.754 441.584 546.632C441.713 546.403 441.902 546.1 442.153 545.725C442.419 545.336 442.697 544.963 442.989 544.604C443.436 544.032 443.813 543.567 444.118 543.21C444.425 542.838 444.713 542.529 444.983 542.281C445.267 542.034 445.571 541.796 445.896 541.566C446.235 541.337 446.653 541.078 447.15 540.79C447.473 540.588 447.874 540.476 448.353 540.453C448.846 540.432 449.315 540.542 449.761 540.783C450.208 541.011 450.524 541.412 450.709 541.986C450.842 542.29 450.886 542.665 450.84 543.111C450.796 543.543 450.68 544.005 450.491 544.497C450.303 544.975 450.075 545.423 449.808 545.839C449.54 546.255 449.25 546.586 448.938 546.831C448.745 546.986 448.499 546.996 448.199 546.863C447.914 546.731 447.68 546.567 447.497 546.372C447.388 546.126 447.328 545.981 447.317 545.938C447.32 545.897 447.349 545.871 447.406 545.861C447.497 545.769 447.62 545.609 447.777 545.381C447.933 545.154 448.09 544.912 448.248 544.656C448.408 544.387 448.521 544.17 448.589 544.006C448.741 543.428 448.845 543.049 448.9 542.87C448.955 542.678 448.924 542.514 448.808 542.38C448.756 542.32 448.673 542.293 448.561 542.299C448.462 542.306 448.289 542.365 448.043 542.474C447.712 542.591 447.308 542.85 446.831 543.252C446.369 543.641 445.901 544.113 445.427 544.67C444.816 545.371 444.302 545.994 443.885 546.541C443.468 547.087 443.141 547.653 442.903 548.24C442.872 548.294 442.815 548.395 442.735 548.544C442.668 548.694 442.635 548.769 442.635 548.769C442.645 548.826 442.614 548.964 442.543 549.183C442.472 549.389 442.397 549.566 442.316 549.715C442.118 550.347 441.983 550.962 441.913 551.56C441.844 552.145 441.843 552.664 441.91 553.118C441.991 553.559 442.129 553.891 442.324 554.115C442.497 554.253 442.724 554.311 443.007 554.289C443.289 554.267 443.617 554.191 443.991 554.063C444.365 553.935 444.767 553.795 445.199 553.642C445.544 553.526 445.862 553.394 446.153 553.246C446.444 553.098 446.664 552.966 446.812 552.85C446.93 552.774 447.075 552.7 447.249 552.628C447.437 552.543 447.594 552.505 447.72 552.514C447.92 552.457 448.063 552.524 448.148 552.712C448.233 552.9 448.266 553.134 448.247 553.414C448.233 553.609 448.077 553.837 447.778 554.096C447.479 554.356 447.155 554.572 446.806 554.744C446.687 554.848 446.526 554.942 446.323 555.026C446.136 555.097 445.942 555.161 445.742 555.217C445.433 555.42 445.054 555.611 444.607 555.79C444.159 555.97 443.708 556.099 443.253 556.18C442.813 556.261 442.413 556.255 442.055 556.159ZM451.085 554.833C450.966 554.726 450.835 554.591 450.693 554.427C450.564 554.263 450.53 554.043 450.591 553.767C450.661 553.379 450.74 553.041 450.831 552.752C450.922 552.45 451.03 552.107 451.155 551.722C451.195 551.557 451.285 551.275 451.425 550.878C451.579 550.482 451.756 550.052 451.957 549.589C452.158 549.126 452.364 548.691 452.575 548.285C452.786 547.865 452.97 547.555 453.124 547.355C453.287 547.226 453.516 547.172 453.809 547.192C454.116 547.214 454.322 547.284 454.426 547.404C454.57 547.54 454.604 547.767 454.525 548.085C454.448 548.388 454.219 548.856 453.838 549.489C453.756 549.652 453.653 549.827 453.527 550.015C453.417 550.189 453.336 550.338 453.286 550.461C453.236 550.57 453.246 550.619 453.317 550.61C453.412 550.463 453.578 550.299 453.815 550.119C454.053 549.925 454.304 549.739 454.569 549.561C454.834 549.383 455.084 549.225 455.318 549.087C455.553 548.949 455.713 548.862 455.8 548.826C455.916 548.764 456.046 548.717 456.189 548.685C456.346 548.64 456.454 548.605 456.512 548.581C456.843 548.45 457.197 548.419 457.571 548.487C457.96 548.542 458.189 548.678 458.258 548.893C458.264 549.006 458.3 549.092 458.366 549.153C458.446 549.215 458.486 549.246 458.486 549.246C458.542 549.25 458.568 549.272 458.565 549.314C458.576 549.357 458.582 549.379 458.582 549.379C458.575 549.476 458.468 549.609 458.259 549.777C458.065 549.946 457.856 550.03 457.631 550.028C457.449 550.029 457.286 550.053 457.142 550.099C456.999 550.145 456.826 550.203 456.625 550.273C456.073 550.543 455.572 550.782 455.122 550.989C454.687 551.197 454.228 551.53 453.747 551.988C453.642 552.093 453.53 552.19 453.411 552.28C453.292 552.37 453.171 552.502 453.046 552.676C452.972 552.74 452.891 552.889 452.805 553.122C452.718 553.354 452.639 553.58 452.568 553.8C452.511 554.006 452.482 554.131 452.479 554.173C452.479 554.173 452.453 554.241 452.401 554.378C452.35 554.5 452.272 554.621 452.165 554.74C451.982 554.952 451.805 555.08 451.633 555.124C451.476 555.169 451.293 555.072 451.085 554.833ZM459.675 555.56C459.627 555.444 459.509 555.324 459.322 555.198C459.148 555.074 459.063 554.984 459.067 554.928C459.071 554.872 459.042 554.786 458.98 554.669C458.933 554.54 458.883 554.445 458.831 554.385C458.767 554.297 458.802 554.096 458.936 553.782C459.072 553.455 459.268 553.061 459.524 552.602C459.781 552.143 460.059 551.678 460.359 551.208C460.478 551.104 460.6 550.965 460.724 550.792C460.849 550.618 460.941 550.505 461.001 550.453C461.005 550.397 461.029 550.35 461.074 550.311C461.12 550.258 461.17 550.233 461.226 550.237L461.417 549.914C461.449 549.86 461.541 549.754 461.692 549.596C461.858 549.439 462.052 549.27 462.275 549.09C462.499 548.895 462.722 548.714 462.944 548.547C463.181 548.381 463.371 548.261 463.517 548.187C463.824 548.012 464.131 547.942 464.437 547.978C464.757 548.014 465.023 548.131 465.233 548.328C465.272 548.373 465.357 548.463 465.488 548.598C465.633 548.735 465.791 548.886 465.962 549.053C466.146 549.22 466.304 549.371 466.435 549.507L467.162 550.252L466.732 551.275C466.512 551.821 466.429 552.306 466.483 552.731C466.538 553.156 466.645 553.528 466.805 553.848C466.864 554.007 466.947 554.132 467.052 554.223C467.172 554.316 467.329 554.383 467.523 554.425C467.633 554.446 467.735 554.496 467.828 554.572C467.921 554.649 467.962 554.764 467.951 554.918C467.928 555.253 467.848 555.493 467.711 555.638C467.59 555.77 467.458 555.845 467.317 555.863C466.852 555.886 466.415 555.807 466.007 555.624C465.599 555.441 465.25 555.017 464.96 554.351C464.909 554.263 464.843 554.104 464.761 553.874C464.694 553.63 464.656 553.473 464.647 553.403C464.586 553.468 464.503 553.554 464.397 553.659C464.307 553.751 464.217 553.836 464.127 553.913C463.065 554.85 462.167 555.447 461.434 555.704C460.715 555.948 460.129 555.9 459.675 555.56ZM460.949 553.902C461.046 553.923 461.203 553.884 461.42 553.787C461.638 553.676 461.932 553.493 462.301 553.238C462.804 552.867 463.218 552.559 463.544 552.315C463.87 552.071 464.194 551.75 464.517 551.351L465.03 550.63C464.913 550.299 464.802 550.08 464.697 549.975C464.592 549.869 464.484 549.812 464.372 549.805C464.191 549.792 463.966 549.895 463.698 550.115C463.431 550.321 463.121 550.636 462.769 551.061C462.431 551.472 462.044 551.993 461.607 552.622C461.404 552.916 461.243 553.207 461.125 553.493C461.008 553.766 460.949 553.902 460.949 553.902ZM470.073 559.276C469.986 559.326 469.854 559.303 469.678 559.207C469.503 559.11 469.325 558.943 469.145 558.706C469.055 558.588 468.931 558.46 468.772 558.322C468.627 558.186 468.588 557.944 468.654 557.598C468.721 557.449 468.763 557.248 468.78 556.997C468.811 556.76 468.828 556.614 468.832 556.558C468.838 556.474 468.872 556.28 468.936 555.976C469.013 555.673 469.092 555.355 469.171 555.024C469.251 554.679 469.319 554.417 469.373 554.238C469.374 554.224 469.384 554.19 469.401 554.135C469.419 554.08 469.437 554.032 469.454 553.991C469.49 553.868 469.537 553.702 469.593 553.496C469.664 553.29 469.731 553.035 469.794 552.731C469.93 552.39 470.045 552.054 470.138 551.724C470.247 551.38 470.305 551.146 470.314 551.02C470.332 550.769 470.442 550.594 470.645 550.496C470.664 550.427 470.713 550.325 470.793 550.19C470.874 550.042 470.945 549.92 471.008 549.827C471.343 549.05 471.603 548.437 471.789 547.987C471.976 547.522 472.179 547.123 472.399 546.787C472.5 546.556 472.635 546.32 472.807 546.079C472.992 545.839 473.145 545.653 473.267 545.522C473.349 545.345 473.526 545.126 473.797 544.864C474.069 544.588 474.354 544.328 474.652 544.082C474.95 543.822 475.188 543.628 475.366 543.5C475.684 543.368 475.986 543.263 476.272 543.185C476.573 543.093 476.87 543.058 477.164 543.078C477.429 543.097 477.668 543.184 477.882 543.339C478.097 543.481 478.289 543.641 478.459 543.822C478.64 544.045 478.742 544.192 478.765 544.264C478.788 544.336 478.793 544.47 478.779 544.665C478.741 544.803 478.643 545.006 478.484 545.276C478.325 545.532 478.145 545.8 477.943 546.08C477.741 546.361 477.556 546.6 477.388 546.799C477.219 546.998 477.107 547.095 477.051 547.091C476.723 547.167 476.574 546.988 476.605 546.555C476.612 546.457 476.562 546.363 476.456 546.271C476.365 546.166 476.32 546.114 476.32 546.114C476.323 546.072 476.351 545.962 476.406 545.783C476.476 545.592 476.542 545.449 476.604 545.355C476.684 545.22 476.705 545.116 476.668 545.044C476.645 544.972 476.555 544.952 476.399 544.983C476.355 545.008 476.26 545.064 476.113 545.152C475.982 545.227 475.835 545.315 475.674 545.416C475.527 545.504 475.394 545.6 475.275 545.704C475.17 545.795 475.116 545.861 475.114 545.903C475.114 545.903 475.081 545.964 475.017 546.086C474.953 546.194 474.838 546.333 474.672 546.504C474.564 546.637 474.464 546.77 474.37 546.904C474.291 547.025 474.251 547.099 474.249 547.127C474.245 547.183 474.234 547.245 474.215 547.314C474.211 547.37 474.174 547.395 474.104 547.391C474.104 547.391 474.079 547.452 474.028 547.575C473.978 547.698 473.89 547.853 473.764 548.04C473.699 548.176 473.618 548.318 473.524 548.466C473.43 548.6 473.354 548.692 473.294 548.744L473.315 548.746C473.315 548.746 473.288 548.828 473.234 548.993C473.181 549.157 473.12 549.329 473.051 549.506C472.997 549.685 472.96 549.802 472.943 549.857C473.139 549.856 473.379 549.831 473.664 549.781C473.962 549.731 474.287 549.698 474.639 549.68C475.188 549.649 475.697 549.607 476.163 549.555C476.63 549.504 477.116 549.384 477.62 549.194C477.767 548.896 477.922 548.591 478.084 548.279C478.26 547.969 478.419 547.699 478.562 547.471C478.719 547.229 478.828 547.075 478.889 547.009C479.135 546.9 479.372 546.826 479.599 546.785C479.84 546.746 480.023 546.843 480.147 547.076C480.21 547.179 480.274 547.261 480.34 547.321C480.407 547.368 480.451 547.448 480.471 547.562C480.492 547.662 480.453 547.82 480.353 548.038C480.268 548.257 480.091 548.581 479.822 549.011C479.743 549.146 479.671 549.267 479.607 549.375C479.545 549.469 479.513 549.516 479.513 549.516C479.568 549.534 479.651 549.547 479.763 549.555C479.875 549.562 480.015 549.565 480.184 549.563C480.339 549.546 480.487 549.535 480.628 549.531C480.77 549.513 480.909 549.522 481.047 549.56C481.368 549.583 481.598 549.711 481.736 549.945C481.874 550.179 481.94 550.437 481.934 550.717C481.952 550.872 481.859 550.985 481.658 551.055C481.457 551.126 481.167 551.147 480.79 551.121C480.665 551.112 480.483 551.107 480.244 551.104C480.006 551.101 479.761 551.098 479.508 551.095C479.271 551.078 479.06 551.077 478.877 551.093C478.708 551.095 478.623 551.11 478.621 551.138C478.577 551.163 478.513 551.278 478.428 551.482C478.358 551.688 478.278 551.928 478.189 552.202C478.113 552.478 478.032 552.732 477.946 552.964C477.815 553.432 477.693 553.873 477.58 554.286C477.481 554.7 477.42 555.061 477.399 555.368C477.392 555.662 477.447 555.883 477.563 556.032C477.68 556.166 477.892 556.237 478.201 556.245C478.524 556.239 478.804 556.154 479.04 555.988C479.395 555.718 479.676 555.618 479.882 555.689C480.087 555.759 480.196 555.914 480.207 556.154C480.232 556.394 480.145 556.64 479.945 556.893C479.76 557.133 479.506 557.347 479.184 557.535C478.861 557.737 478.536 557.875 478.208 557.951C477.88 558.026 477.599 558.02 477.367 557.934C477.175 557.864 476.964 557.779 476.732 557.679C476.514 557.594 476.306 557.453 476.109 557.256C475.957 557.021 475.841 556.782 475.759 556.537C475.693 556.28 475.657 555.997 475.65 555.688C475.645 555.364 475.656 555 475.685 554.595C475.696 554.428 475.741 554.185 475.82 553.868C475.913 553.538 476.014 553.194 476.123 552.837C476.247 552.48 476.353 552.165 476.442 551.891C476.546 551.603 476.609 551.418 476.628 551.335C476.592 551.249 476.512 551.194 476.387 551.171C476.276 551.149 476.059 551.148 475.735 551.168C475.425 551.188 474.945 551.225 474.296 551.277C474.04 551.316 473.742 551.365 473.401 551.425C473.06 551.486 472.761 551.549 472.504 551.615C472.247 551.667 472.118 551.715 472.115 551.756C472.059 551.753 472.006 551.805 471.957 551.914C471.907 552.023 471.881 552.098 471.878 552.14C471.864 552.335 471.826 552.48 471.763 552.574C471.729 552.656 471.67 552.806 471.584 553.025C471.513 553.244 471.433 553.484 471.344 553.745C471.271 553.992 471.205 554.226 471.148 554.447C471.09 554.667 471.059 554.819 471.053 554.903C470.962 554.995 470.905 555.117 470.88 555.27C470.856 555.409 470.84 555.534 470.833 555.645C470.769 555.753 470.727 555.856 470.706 555.952C470.686 556.035 470.674 556.105 470.67 556.16C470.669 556.174 470.667 556.202 470.664 556.244C470.661 556.286 470.652 556.328 470.635 556.368C470.611 556.507 470.577 556.687 470.534 556.909C470.503 557.145 470.48 557.375 470.464 557.599L470.359 558.202C470.332 558.382 470.297 558.59 470.252 558.826C470.208 559.061 470.148 559.211 470.073 559.276ZM484.868 558.143C484.1 558.089 483.522 557.824 483.134 557.348C482.761 556.873 482.606 556.174 482.67 555.252C482.706 554.75 482.835 554.204 483.059 553.616C483.296 553.03 483.588 552.461 483.936 551.909C484.297 551.359 484.681 550.888 485.087 550.495C485.495 550.089 485.893 549.815 486.281 549.674C486.426 549.614 486.576 549.575 486.732 549.558C486.902 549.528 487.064 549.518 487.218 549.529C487.385 549.54 487.566 549.567 487.76 549.609C487.968 549.637 488.161 549.693 488.337 549.775C488.652 549.895 488.918 550.104 489.136 550.399C489.368 550.696 489.465 551.11 489.428 551.641C489.418 551.781 489.393 551.933 489.354 552.099C489.315 552.25 489.255 552.401 489.175 552.549C488.961 552.998 488.651 553.418 488.245 553.811C487.852 554.204 487.448 554.471 487.031 554.61C486.915 554.658 486.801 554.692 486.687 554.712C486.588 554.719 486.483 554.719 486.371 554.711C486.078 554.691 485.816 554.63 485.584 554.53C485.366 554.43 485.165 554.304 484.979 554.151L484.822 553.992L484.702 554.194C484.586 554.453 484.5 554.672 484.446 554.85C484.405 555.03 484.382 555.161 484.376 555.245C484.364 555.413 484.359 555.588 484.36 555.77C484.363 555.939 484.395 556.082 484.457 556.198C484.508 556.272 484.574 556.333 484.655 556.38C484.749 556.429 484.867 556.458 485.006 556.468C485.09 556.474 485.167 556.479 485.237 556.484C485.322 556.476 485.392 556.467 485.449 556.457C485.704 556.419 485.913 556.342 486.076 556.227C486.253 556.099 486.436 555.993 486.624 555.908L486.711 555.872L486.695 555.807C486.941 555.698 487.107 555.633 487.192 555.611C487.279 555.575 487.345 555.544 487.388 555.519C487.448 555.467 487.513 555.444 487.583 555.448C487.78 555.434 487.965 555.503 488.137 555.656C488.323 555.795 488.41 555.962 488.396 556.158C488.39 556.242 488.318 556.37 488.18 556.543C488.055 556.716 487.896 556.888 487.702 557.057C487.523 557.213 487.339 557.333 487.15 557.418C487.107 557.429 487.064 557.447 487.02 557.472C486.977 557.483 486.934 557.501 486.89 557.526L486.911 557.528C486.774 557.686 486.642 557.761 486.516 557.753L486.349 557.741C486.286 557.835 486.097 557.927 485.782 558.017C485.466 558.121 485.161 558.163 484.868 558.143ZM486.311 553.17C486.436 553.179 486.549 553.166 486.65 553.131C486.765 553.097 486.873 553.055 486.975 553.006C487.326 552.792 487.564 552.5 487.689 552.13C487.813 551.759 487.798 551.471 487.644 551.263C487.619 551.22 487.586 551.189 487.545 551.172C487.505 551.142 487.457 551.124 487.401 551.12C487.248 551.109 487.07 551.146 486.867 551.23C486.679 551.315 486.488 551.442 486.293 551.611C486.099 551.78 485.916 551.985 485.745 552.225L485.442 552.646C485.471 552.634 485.492 552.629 485.506 552.63C485.535 552.618 485.557 552.612 485.571 552.613C485.696 552.622 485.777 552.67 485.813 552.756C485.849 552.843 485.892 552.93 485.942 553.018C486.006 553.107 486.129 553.157 486.311 553.17ZM496.837 558.58C496.626 558.579 496.43 558.572 496.249 558.559C496.081 558.548 495.95 558.511 495.856 558.448C495.62 558.221 495.464 558.041 495.389 557.91C495.328 557.779 495.303 557.637 495.313 557.484C495.341 557.289 495.362 557.094 495.375 556.899C495.39 556.689 495.401 556.528 495.409 556.417C495.357 556.357 495.241 556.412 495.061 556.582C494.88 556.752 494.673 556.913 494.437 557.065C493.97 557.523 493.561 557.852 493.21 558.052C492.861 558.238 492.545 558.336 492.264 558.344C491.982 558.366 491.702 558.354 491.424 558.306C491.175 558.261 490.96 558.12 490.78 557.882C490.614 557.646 490.494 557.364 490.419 557.036C490.357 556.709 490.351 556.393 490.401 556.088C490.511 555.52 490.672 555.012 490.886 554.564C491.101 554.102 491.408 553.625 491.807 553.133C491.99 552.922 492.231 552.693 492.529 552.447C492.841 552.202 493.172 551.98 493.523 551.78C493.875 551.566 494.187 551.419 494.459 551.34C494.876 551.187 495.218 551.126 495.482 551.159C495.76 551.192 496.03 551.253 496.29 551.342C496.479 551.453 496.629 551.513 496.741 551.521C496.866 551.529 496.962 551.466 497.028 551.33C497.119 551.224 497.192 551.089 497.246 550.924C497.299 550.76 497.38 550.604 497.489 550.457L498.045 549.128C498.225 548.761 498.437 548.341 498.68 547.867C498.924 547.393 499.199 546.865 499.507 546.283C499.866 545.761 500.158 545.493 500.384 545.481C500.623 545.47 500.859 545.613 501.091 545.909C501.247 546.089 501.323 546.305 501.319 546.557C501.33 546.796 501.248 547.071 501.072 547.382C500.963 547.529 500.845 547.717 500.717 547.946C500.589 548.162 500.438 548.418 500.263 548.715C500.084 549.067 499.898 549.419 499.705 549.77C499.526 550.123 499.338 550.509 499.14 550.931C499.068 551.15 498.973 551.403 498.855 551.69C498.751 551.977 498.662 552.237 498.59 552.471C498.532 552.692 498.469 552.898 498.399 553.089C498.345 553.268 498.29 553.355 498.234 553.351C498.115 553.441 497.996 553.643 497.875 553.958C497.756 554.258 497.649 554.581 497.555 554.925C497.475 555.27 497.406 555.553 497.349 555.773C497.309 555.939 497.271 556.175 497.236 556.481C497.201 556.774 497.174 557.059 497.155 557.339C497.136 557.604 497.124 557.786 497.117 557.883C497.098 558.149 497.064 558.336 497.014 558.445C496.98 558.54 496.92 558.585 496.837 558.58ZM492.218 556.594C492.539 556.616 492.849 556.504 493.146 556.259C493.459 556 493.801 555.729 494.172 555.446C494.396 555.251 494.628 555.036 494.869 554.8C495.111 554.55 495.332 554.306 495.531 554.068C495.744 553.83 495.913 553.624 496.037 553.45C496.162 553.277 496.226 553.162 496.23 553.106C496.235 553.036 496.183 552.969 496.075 552.906C495.982 552.843 495.866 552.793 495.728 552.755C495.591 552.703 495.466 552.688 495.353 552.708C495.011 552.782 494.728 552.91 494.505 553.091C494.296 553.272 493.988 553.56 493.581 553.952C493.172 554.387 492.841 554.806 492.588 555.209C492.336 555.612 492.172 555.945 492.098 556.206C492.038 556.455 492.078 556.584 492.218 556.594ZM514.593 561.358C514.02 560.925 513.691 560.509 513.607 560.11C513.536 559.712 513.698 559.408 514.092 559.197C514.179 559.147 514.34 559.151 514.575 559.209C514.823 559.269 515.006 559.366 515.123 559.5C515.385 559.771 515.688 559.947 516.033 560.027C516.392 560.122 516.834 560.118 517.361 560.015C517.96 559.874 518.422 559.682 518.748 559.438C519.089 559.181 519.471 558.829 519.896 558.382C520.215 558.025 520.444 557.669 520.581 557.314C520.732 556.959 520.811 556.635 520.817 556.341C520.839 556.034 520.785 555.798 520.656 555.635C520.341 555.122 519.932 554.756 519.428 554.539C518.924 554.307 518.246 554.274 517.393 554.438C517.294 554.446 517.145 554.463 516.947 554.491C516.748 554.52 516.571 554.549 516.414 554.58C516.259 554.598 516.174 554.606 516.16 554.605C516.06 554.626 515.982 554.635 515.927 554.631C515.871 554.627 515.796 554.692 515.702 554.825C515.624 554.946 515.493 555.211 515.31 555.619C515.128 556.013 514.854 556.626 514.487 557.456C514.134 558.287 513.84 558.877 513.605 559.226C513.385 559.561 513.2 559.71 513.048 559.671C512.897 559.618 512.733 559.453 512.557 559.174C512.458 558.97 512.348 558.745 512.225 558.498C512.116 558.252 512.14 558.008 512.297 557.766C512.376 557.645 512.439 557.537 512.488 557.443C512.538 557.334 512.607 557.149 512.695 556.889C512.78 556.684 512.938 556.33 513.169 555.827C513.416 555.311 513.703 554.714 514.032 554.035C514.361 553.342 514.705 552.63 515.065 551.897C515.425 551.164 515.768 550.472 516.094 549.822C516.435 549.172 516.719 548.623 516.946 548.176C517.172 547.757 517.313 547.451 517.368 547.258C517.424 547.066 517.417 546.96 517.348 546.941C517.353 546.871 517.337 546.807 517.299 546.748C517.262 546.675 517.252 546.612 517.27 546.557C517.274 546.501 517.398 546.432 517.642 546.351C517.901 546.271 518.172 546.199 518.457 546.134C518.743 546.07 518.947 546.056 519.071 546.093C519.141 546.098 519.224 546.104 519.322 546.111C519.421 546.104 519.472 546.072 519.476 546.016C519.518 546.019 519.652 546.014 519.877 546.002C520.103 545.99 520.347 546.007 520.61 546.053C521.54 546.203 522.289 546.529 522.858 547.032C523.427 547.52 523.67 548.26 523.587 549.251C523.556 549.487 523.437 549.788 523.229 550.152C523.021 550.516 522.764 550.877 522.458 551.235C522.167 551.593 521.857 551.902 521.531 552.16C521.338 552.3 521.132 552.447 520.91 552.6C520.704 552.74 520.52 552.861 520.359 552.962C520.212 553.05 520.139 553.094 520.139 553.094C520.139 553.094 520.193 553.119 520.302 553.168C520.411 553.218 520.527 553.268 520.65 553.319C521.275 553.601 521.757 553.937 522.095 554.325C522.447 554.715 522.677 555.236 522.786 555.889C522.827 556.103 522.809 556.361 522.731 556.664C522.668 556.969 522.584 557.271 522.478 557.573C522.374 557.86 522.266 558.105 522.153 558.308C522.049 558.399 521.965 558.498 521.901 558.606C521.838 558.7 521.807 558.747 521.807 558.747C521.805 558.775 521.741 558.883 521.616 559.07C521.491 559.244 521.345 559.437 521.175 559.65C521.006 559.863 520.846 560.048 520.694 560.206C520.547 560.308 520.334 560.447 520.055 560.624C519.789 560.816 519.495 560.999 519.174 561.173C518.867 561.348 518.578 561.475 518.305 561.554C517.903 561.695 517.455 561.776 516.962 561.797C516.482 561.834 516.028 561.809 515.599 561.723C515.169 561.651 514.834 561.529 514.593 561.358ZM516.709 552.77C516.709 552.77 516.823 552.757 517.049 552.73C517.29 552.691 517.553 552.653 517.836 552.617C518.12 552.567 518.334 552.518 518.477 552.472C518.55 552.435 518.652 552.386 518.782 552.325C518.927 552.265 519.074 552.17 519.223 552.04C519.432 551.872 519.655 551.685 519.894 551.477C520.134 551.255 520.368 551.019 520.596 550.768C520.838 550.518 521.047 550.245 521.222 549.949C521.578 549.468 521.778 549.117 521.822 548.896C521.866 548.674 521.803 548.466 521.634 548.272C521.519 548.11 521.352 547.986 521.134 547.9C520.916 547.801 520.675 547.742 520.409 547.723C520.159 547.692 519.913 547.703 519.67 547.756C519.485 547.799 519.34 547.859 519.237 547.936C519.134 547.999 519.077 548.107 519.067 548.261C519.058 548.387 519.007 548.517 518.913 548.65C518.834 548.771 518.758 548.864 518.683 548.929C518.662 549.026 518.607 549.12 518.516 549.212C518.44 549.291 518.402 549.33 518.402 549.33C518.398 549.386 518.295 549.554 518.093 549.835C517.906 550.103 517.696 550.495 517.464 551.012C517.17 551.595 516.973 552.016 516.87 552.276C516.768 552.535 516.714 552.7 516.709 552.77ZM525.378 565.607C525.321 565.617 525.239 565.59 525.131 565.526C525.037 565.464 524.96 565.36 524.9 565.215C524.84 565.071 524.832 564.888 524.876 564.666C524.833 564.467 524.857 564.223 524.948 563.935C525.051 563.661 525.255 563.254 525.559 562.714C525.715 562.501 525.859 562.244 525.992 561.945C526.139 561.646 526.3 561.349 526.476 561.052C526.554 560.931 526.688 560.723 526.877 560.428C527.08 560.133 527.301 559.784 527.54 559.379C527.794 558.962 528.027 558.529 528.241 558.081C527.852 558.433 527.512 558.767 527.224 559.083C526.95 559.387 526.701 559.629 526.478 559.81C526.27 559.978 526.055 560.047 525.832 560.018C525.654 559.963 525.445 559.829 525.208 559.616C524.97 559.403 524.824 559.175 524.771 558.933C524.737 558.622 524.743 558.229 524.79 557.756C524.852 557.283 524.993 556.57 525.214 555.617C525.359 555.15 525.433 554.79 525.436 554.538C525.455 554.272 525.434 554.074 525.373 553.944C525.312 553.813 525.229 553.695 525.124 553.59C524.954 553.409 524.953 553.227 525.12 553.042C525.287 552.857 525.472 552.723 525.674 552.639C525.973 552.589 526.204 552.592 526.369 552.645C526.548 552.686 526.722 552.817 526.888 553.039C526.988 553.229 527.086 553.432 527.183 553.649C527.28 553.867 527.315 554.171 527.287 554.562C527.276 554.73 527.255 554.918 527.227 555.126C527.199 555.321 527.172 555.501 527.147 555.668C527.121 555.834 527.098 555.966 527.077 556.063C526.901 556.57 526.744 557.008 526.606 557.377C526.468 557.747 526.434 557.934 526.504 557.938C526.799 557.735 527.051 557.535 527.261 557.339C527.486 557.144 527.727 556.908 527.985 556.632C528.243 556.355 528.563 555.991 528.945 555.541C529.087 555.312 529.229 555.091 529.37 554.876C529.512 554.661 529.633 554.438 529.733 554.207C529.829 554.031 529.954 553.85 530.108 553.664C530.262 553.465 530.368 553.36 530.424 553.35C530.496 553.327 530.594 553.341 530.716 553.391C530.839 553.442 530.954 553.499 531.062 553.563C531.185 553.613 531.245 553.653 531.243 553.681C531.256 553.696 531.325 553.715 531.45 553.737C531.575 553.76 531.699 553.783 531.824 553.806C531.95 553.814 532.011 553.84 532.008 553.882C532.006 553.91 531.957 554.011 531.861 554.187C531.778 554.364 531.68 554.56 531.567 554.777C531.453 554.994 531.348 555.19 531.252 555.365C531.17 555.528 531.136 555.624 531.148 555.653C531.174 555.683 531.145 555.786 531.063 555.963C530.981 556.125 530.884 556.308 530.772 556.511C530.673 556.714 530.583 556.898 530.502 557.06C530.33 557.511 530.137 557.961 529.923 558.409C529.711 558.843 529.463 559.275 529.18 559.704C529.085 559.866 528.941 560.116 528.749 560.453C528.571 560.792 528.393 561.123 528.216 561.447C528.052 561.787 527.922 562.044 527.825 562.22C527.762 562.328 527.666 562.497 527.537 562.726C527.422 562.971 527.291 563.235 527.145 563.52C527.013 563.805 526.882 564.07 526.753 564.313C526.622 564.571 526.524 564.768 526.459 564.903C526.412 565.167 526.336 565.358 526.229 565.477C526.095 565.594 525.916 565.644 525.692 565.629C525.483 565.614 525.378 565.607 525.378 565.607ZM557.247 563.604C557.247 563.604 557.208 563.559 557.13 563.469C557.065 563.395 556.917 563.293 556.688 563.165C556.455 562.882 556.316 562.465 556.27 561.915C556.238 561.365 556.267 560.757 556.356 560.089C556.351 559.752 556.38 559.34 556.442 558.853C556.519 558.353 556.611 557.84 556.718 557.315C556.839 556.79 556.958 556.286 557.076 555.803C557.208 555.321 557.32 554.922 557.413 554.605C557.646 553.878 557.852 553.24 558.031 552.691C558.223 552.143 558.323 551.82 558.33 551.722C558.236 551.87 558.095 552.078 557.908 552.345C557.734 552.614 557.483 552.996 557.154 553.493C556.952 553.773 556.734 554.081 556.5 554.415C556.28 554.751 556.139 554.951 556.079 555.017C555.926 555.189 555.769 555.431 555.607 555.742C555.446 556.04 555.183 556.485 554.819 557.077C554.279 557.769 553.822 558.291 553.446 558.644C553.085 558.997 552.767 559.228 552.493 559.335C552.234 559.429 551.98 559.446 551.731 559.387C551.333 559.261 551.074 559.053 550.954 558.764C550.835 558.461 550.76 558.119 550.731 557.738C550.729 557.359 550.744 557.051 550.774 556.815C550.82 556.565 550.833 556.384 550.813 556.27C550.85 556.132 550.888 555.988 550.927 555.836C550.967 555.67 550.996 555.546 551.016 555.463C551.02 555.407 551.043 555.283 551.085 555.089C551.14 554.897 551.182 554.703 551.209 554.509C551.27 554.246 551.347 553.943 551.441 553.598C551.537 553.24 551.622 552.916 551.699 552.627C551.775 552.338 551.802 552.157 551.779 552.085C551.699 552.22 551.605 552.361 551.497 552.508C551.388 552.654 551.31 552.761 551.264 552.828C551.004 553.133 550.69 553.609 550.322 554.257C549.955 554.891 549.46 555.747 548.837 556.827C548.773 557.131 548.62 557.513 548.378 557.973C548.15 558.421 547.947 558.82 547.768 559.173C547.651 559.431 547.495 559.757 547.299 560.15C547.118 560.531 546.932 560.89 546.74 561.227C546.562 561.565 546.419 561.801 546.311 561.934C546.121 562.243 545.97 562.408 545.856 562.428C545.741 562.462 545.519 562.335 545.188 562.045C544.979 561.82 544.805 561.604 544.665 561.398C544.539 561.192 544.555 560.962 544.713 560.706C544.822 560.56 544.955 560.358 545.113 560.103C545.272 559.833 545.418 559.563 545.549 559.291C545.694 559.021 545.779 558.816 545.802 558.677C545.82 558.623 545.869 558.528 545.949 558.393C546.042 558.259 546.165 558.113 546.316 557.956C546.306 557.899 546.383 557.694 546.548 557.34C546.715 556.973 546.933 556.56 547.203 556.102C547.25 556.035 547.283 555.967 547.302 555.898C547.335 555.83 547.361 555.762 547.379 555.693C547.44 555.627 547.502 555.547 547.565 555.454C547.627 555.36 547.693 555.224 547.761 555.046C547.798 554.923 547.865 554.766 547.963 554.576C548.06 554.387 548.149 554.217 548.23 554.069C548.294 553.947 548.365 553.846 548.44 553.768C548.531 553.676 548.608 553.583 548.67 553.489C548.729 553.451 548.783 553.385 548.832 553.29C548.88 553.195 548.935 553.121 548.994 553.069C549.062 552.906 549.181 552.704 549.353 552.463C549.539 552.209 549.734 551.928 549.938 551.62C550.156 551.312 550.346 551.003 550.508 550.691C550.625 550.629 550.729 550.538 550.822 550.419C550.914 550.299 550.993 550.171 551.059 550.035C551.059 550.035 551.099 549.961 551.18 549.812C551.274 549.664 551.368 549.537 551.459 549.432C551.536 549.339 551.65 549.206 551.803 549.035C551.955 548.863 552.099 548.704 552.236 548.56C552.387 548.402 552.484 548.317 552.527 548.306C552.612 548.298 552.756 548.35 552.958 548.463C553.175 548.576 553.369 548.709 553.541 548.861C553.713 549.014 553.794 549.16 553.784 549.299C553.801 549.455 553.793 549.679 553.758 549.971C553.738 550.265 553.71 550.564 553.674 550.871C553.64 551.163 553.594 551.412 553.538 551.619C553.488 551.924 553.421 552.277 553.337 552.678C553.253 553.08 553.17 553.467 553.088 553.84C553.005 554.213 552.935 554.517 552.876 554.751C552.771 555.263 552.687 555.65 552.627 555.913C552.567 556.161 552.538 556.285 552.538 556.285C552.562 556.343 552.57 556.421 552.563 556.519C552.571 556.618 552.578 556.709 552.586 556.794L552.596 556.963L552.849 556.644C553.123 556.34 553.338 556.075 553.495 555.847C553.651 555.62 553.807 555.399 553.962 555.185C553.967 555.115 553.993 555.047 554.039 554.98C554.087 554.899 554.142 554.819 554.204 554.739C554.292 554.675 554.391 554.57 554.499 554.423C554.609 554.262 554.661 554.118 554.656 553.992C554.81 553.792 555.011 553.525 555.259 553.192C555.521 552.859 555.799 552.5 556.092 552.113C556.387 551.713 556.673 551.333 556.951 550.973C557.244 550.601 557.498 550.282 557.713 550.016C557.942 549.752 558.108 549.581 558.212 549.504C558.532 549.33 558.881 549.256 559.259 549.282C559.637 549.295 559.929 549.427 560.136 549.68C560.304 549.889 560.386 550.119 560.382 550.371C560.393 550.625 560.347 550.881 560.244 551.141C560.021 551.728 559.856 552.278 559.75 552.79C559.644 553.302 559.591 553.656 559.592 553.853C559.527 553.974 559.468 554.111 559.416 554.261C559.378 554.399 559.348 554.523 559.326 554.634C559.317 554.774 559.278 554.918 559.212 555.068C559.16 555.205 559.097 555.299 559.024 555.35C559.057 555.478 559.066 555.647 559.051 555.857C559.052 556.053 559.032 556.234 558.992 556.4C558.669 557.809 558.471 558.939 558.397 559.79C558.325 560.627 558.331 561.238 558.417 561.623C558.503 561.994 558.608 562.197 558.732 562.234C558.789 562.224 558.815 562.247 558.811 562.303C558.821 562.36 558.808 562.443 558.773 562.553C558.765 562.664 558.7 562.786 558.579 562.918C558.47 563.065 558.356 563.19 558.237 563.294C558.13 563.413 558.061 563.492 558.031 563.532C557.937 563.666 557.855 563.738 557.784 563.747C557.727 563.757 557.548 563.709 557.247 563.604ZM562.727 563.061C562.545 563.048 562.401 563.003 562.294 562.925C562.201 562.849 562.082 562.742 561.938 562.606C561.692 562.308 561.496 561.992 561.351 561.659C561.22 561.327 561.184 561.044 561.242 560.81C561.292 560.701 561.313 560.597 561.306 560.498C561.314 560.387 561.318 560.331 561.318 560.331C561.253 560.256 561.235 560.213 561.264 560.201C561.294 560.175 561.324 560.135 561.356 560.081C561.44 560.087 561.473 560.012 561.456 559.856C561.436 559.743 561.494 559.508 561.632 559.153C561.784 558.785 561.976 558.44 562.209 558.12C562.303 557.986 562.441 557.813 562.624 557.601C562.808 557.376 563.006 557.158 563.217 556.948C563.443 556.725 563.645 556.55 563.822 556.422C564.192 556.153 564.53 555.938 564.836 555.777C565.156 555.617 565.472 555.513 565.784 555.465C566.096 555.416 566.413 555.403 566.734 555.426C567.069 555.449 567.334 555.58 567.528 555.818C567.839 555.98 568.049 556.184 568.158 556.43C568.281 556.678 568.351 556.991 568.366 557.371C568.379 557.793 568.301 558.307 568.132 558.913C567.965 559.504 567.574 560.179 566.959 560.936C566.575 561.414 566.205 561.781 565.851 562.037C565.496 562.293 565.108 562.526 564.686 562.735C564.379 562.91 564.057 563.006 563.719 563.025C563.38 563.043 563.05 563.055 562.727 563.061ZM565.042 560.654C565.368 560.411 565.605 560.132 565.753 559.82C565.915 559.509 566.088 559.142 566.272 558.719C566.334 558.64 566.379 558.502 566.406 558.308C566.448 558.114 566.468 557.926 566.467 557.744C566.466 557.547 566.425 557.432 566.343 557.398C566.225 557.292 566.1 557.262 565.971 557.309C565.842 557.342 565.675 557.422 565.47 557.548C565.027 557.868 564.607 558.245 564.212 558.681C563.831 559.103 563.548 559.638 563.363 560.284C563.297 560.631 563.313 560.898 563.412 561.088C563.526 561.264 563.718 561.327 563.988 561.275C564.273 561.211 564.625 561.004 565.042 560.654ZM570.511 563.816C570.403 563.766 570.264 563.644 570.095 563.45C569.927 563.241 569.781 563.021 569.657 562.788C569.534 562.54 569.478 562.34 569.489 562.186C569.569 562.038 569.679 561.772 569.818 561.388C569.971 561.006 570.141 560.576 570.329 560.098C570.452 559.952 570.548 559.783 570.617 559.592C570.702 559.387 570.778 559.203 570.845 559.039C570.975 558.796 571.12 558.518 571.283 558.207C571.445 557.895 571.6 557.576 571.749 557.25C571.912 556.925 572.059 556.64 572.188 556.396C572.413 555.991 572.599 555.639 572.746 555.341C572.908 555.029 573.063 554.724 573.21 554.426C573.371 554.129 573.542 553.797 573.722 553.43C573.961 553.012 574.18 552.599 574.377 552.192C574.588 551.772 574.769 551.398 574.918 551.072C575.081 550.747 575.182 550.515 575.219 550.377C575.213 550.265 575.232 550.189 575.277 550.15C575.323 550.097 575.381 550.066 575.452 550.057C575.525 550.02 575.639 550 575.793 549.996C575.948 549.993 576.053 549.994 576.109 549.997C576.275 550.037 576.432 550.188 576.582 550.452C576.747 550.702 576.824 550.911 576.812 551.078C576.797 551.302 576.656 551.713 576.389 552.312C576.138 552.897 575.781 553.588 575.318 554.384C574.756 555.397 574.329 556.181 574.038 556.736C573.76 557.292 573.571 557.686 573.471 557.918C573.371 558.149 573.325 558.3 573.334 558.371C573.334 558.371 573.391 558.354 573.506 558.32C573.621 558.286 573.795 558.2 574.029 558.062C574.19 557.975 574.373 557.861 574.579 557.722C574.786 557.582 574.984 557.455 575.174 557.342C575.379 557.23 575.538 557.164 575.651 557.144C575.725 557.093 575.828 557.03 575.959 556.955C576.091 556.88 576.215 556.811 576.331 556.749C576.611 556.572 576.824 556.524 576.973 556.605C577.122 556.685 577.253 556.814 577.367 556.99C577.508 557.183 577.55 557.382 577.494 557.589C577.452 557.782 577.218 558.025 576.79 558.318C576.467 558.52 576.124 558.714 575.76 558.899C575.397 559.07 575.064 559.222 574.76 559.355C574.47 559.489 574.259 559.601 574.126 559.69C574.126 559.69 574.182 559.785 574.295 559.975C574.408 560.166 574.515 560.348 574.615 560.524C574.711 560.755 574.831 561.051 574.974 561.412C575.118 561.759 575.227 562.005 575.301 562.151C575.439 562.385 575.583 562.542 575.731 562.623C575.894 562.704 576.14 562.701 576.469 562.611C576.682 562.57 576.856 562.589 576.991 562.669C577.141 562.735 577.26 562.842 577.348 562.988C577.396 563.104 577.416 563.218 577.408 563.33C577.4 563.441 577.3 563.568 577.108 563.709C576.698 563.947 576.299 564.143 575.909 564.298C575.532 564.468 575.184 564.43 574.864 564.183C574.587 563.939 574.325 563.668 574.079 563.37C573.848 563.06 573.587 562.683 573.295 562.242C573.299 562.186 573.265 562.064 573.194 561.877C573.123 561.69 573.075 561.581 573.049 561.551C573 561.435 572.944 561.333 572.88 561.245C572.831 561.143 572.807 561.092 572.807 561.092C572.776 560.936 572.729 560.806 572.666 560.703C572.617 560.602 572.544 560.54 572.447 560.52C572.388 560.558 572.32 560.623 572.244 560.716C572.167 560.809 572.089 560.923 572.009 561.057C571.911 561.261 571.813 561.465 571.714 561.668C571.617 561.858 571.532 562.07 571.459 562.303C571.388 562.523 571.334 562.792 571.297 563.113C571.301 563.267 571.226 563.431 571.074 563.602C570.922 563.76 570.735 563.831 570.511 563.816ZM580.772 564.596C580.325 564.565 579.92 564.438 579.557 564.217C579.208 563.982 578.933 563.71 578.73 563.401C578.528 563.078 578.437 562.777 578.456 562.498C578.465 562.372 578.492 562.283 578.538 562.23C578.598 562.178 578.677 562.155 578.774 562.162C578.843 562.181 578.925 562.222 579.018 562.284C579.112 562.347 579.206 562.417 579.299 562.493C579.511 562.663 579.749 562.777 580.011 562.838C580.274 562.898 580.512 562.901 580.726 562.846C580.942 562.777 581.069 562.659 581.109 562.494C581.113 562.438 581.093 562.317 581.05 562.132C581.007 561.946 580.949 561.767 580.877 561.593C580.564 561.052 580.382 560.548 580.33 560.081C580.28 559.601 580.257 559.122 580.262 558.645C580.276 558.45 580.382 558.24 580.58 558.015C580.779 557.776 581.02 557.547 581.302 557.329C581.613 557.098 581.95 556.883 582.315 556.684C582.694 556.486 583.063 556.322 583.423 556.193C583.783 556.064 584.083 555.993 584.322 555.982C584.573 555.999 584.838 556.032 585.115 556.079C585.407 556.114 585.599 556.177 585.691 556.267C585.876 556.434 586.04 556.699 586.183 557.059C586.327 557.42 586.39 557.719 586.373 557.957C586.365 558.069 586.293 558.204 586.155 558.363C586.033 558.508 585.916 558.676 585.804 558.864C585.742 558.958 585.686 559.06 585.636 559.168C585.586 559.277 585.529 559.385 585.466 559.493C585.368 559.683 585.209 559.756 584.987 559.712C584.781 559.656 584.593 559.53 584.424 559.336C584.256 559.128 584.181 558.898 584.199 558.647C584.213 558.437 584.289 558.26 584.425 558.115C584.562 557.97 584.632 557.87 584.636 557.814C584.638 557.786 584.625 557.764 584.598 557.748C584.571 557.733 584.523 557.722 584.453 557.717C584.355 557.71 584.192 557.741 583.963 557.809C583.748 557.864 583.517 557.954 583.27 558.077C583.023 558.2 582.795 558.352 582.586 558.534C582.435 558.678 582.305 558.837 582.194 559.012C582.099 559.174 582.044 559.352 582.031 559.548C582.017 559.743 582.036 559.976 582.087 560.246C582.153 560.504 582.229 560.719 582.315 560.894C582.341 560.924 582.378 561.004 582.425 561.133C582.487 561.25 582.554 561.395 582.626 561.568C583.069 562.666 583.097 563.461 582.712 563.953C582.341 564.446 581.694 564.661 580.772 564.596ZM594.735 565.299C594.465 565.35 594.182 565.38 593.887 565.387C593.605 565.409 593.366 565.309 593.171 565.084C593.059 564.88 592.96 564.698 592.873 564.537C592.786 564.377 592.742 564.1 592.741 563.707C592.746 563.441 592.78 563.155 592.843 562.851C592.922 562.534 592.959 562.305 592.955 562.164C593.102 561.655 593.156 561.287 593.116 561.06C593.09 560.833 593.042 560.718 592.972 560.713C592.82 560.674 592.568 560.769 592.215 560.997C591.876 561.226 591.467 561.555 590.988 561.985C590.524 562.401 590.021 562.878 589.478 563.416C589.187 563.76 588.972 564.019 588.834 564.192C588.711 564.351 588.621 564.429 588.565 564.425C588.314 564.408 588.086 564.35 587.883 564.251C587.679 564.153 587.52 564.023 587.405 563.86C587.29 563.698 587.224 563.532 587.208 563.362C587.212 563.306 587.257 563.162 587.343 562.93C587.431 562.683 587.535 562.403 587.655 562.088C587.775 561.774 587.887 561.48 587.99 561.207C588.108 560.934 588.191 560.743 588.241 560.635C588.392 560.28 588.569 559.851 588.773 559.346C588.992 558.828 589.185 558.371 589.353 557.976C589.422 557.798 589.537 557.547 589.7 557.221C589.865 556.882 590.029 556.542 590.193 556.203C590.357 555.864 590.473 555.612 590.54 555.448C590.59 555.34 590.68 555.149 590.812 554.878C590.944 554.592 591.085 554.28 591.235 553.939C591.399 553.6 591.547 553.287 591.68 553.002C591.827 552.703 591.926 552.486 591.978 552.349C591.973 552.222 591.987 552.111 592.022 552.015C592.072 551.907 592.12 551.826 592.165 551.773C592.221 551.777 592.284 551.781 592.354 551.786C592.425 551.777 592.46 551.772 592.46 551.772C592.462 551.744 592.551 551.779 592.727 551.875C592.916 551.973 593.098 552.091 593.27 552.229C593.458 552.354 593.549 552.459 593.543 552.543C593.6 552.729 593.591 552.967 593.514 553.256C593.439 553.532 593.262 553.948 592.985 554.504C592.816 554.716 592.639 555.041 592.454 555.477C592.283 555.914 592.117 556.281 591.956 556.579C591.893 556.673 591.797 556.841 591.668 557.085C591.553 557.316 591.415 557.594 591.252 557.919C591.103 558.231 590.954 558.565 590.803 558.919C590.652 559.273 590.515 559.622 590.393 559.964C590.23 560.29 590.165 560.51 590.199 560.624C590.233 560.739 590.41 560.625 590.728 560.282C591.149 559.891 591.538 559.539 591.897 559.227C592.269 558.916 592.609 558.674 592.916 558.499C593.238 558.311 593.517 558.239 593.752 558.283C593.876 558.32 594.03 558.422 594.215 558.589C594.415 558.744 594.599 558.925 594.766 559.133C594.949 559.328 595.063 559.512 595.107 559.683C595.149 559.883 595.171 560.074 595.172 560.256C595.187 560.44 595.176 560.699 595.139 561.033C595.102 561.353 595.034 561.832 594.933 562.471C594.816 562.94 594.736 563.278 594.694 563.486C594.652 563.679 594.649 563.819 594.685 563.906C594.735 563.994 594.813 564.09 594.918 564.196C595.115 564.378 595.185 564.587 595.126 564.821C595.069 565.042 594.939 565.201 594.735 565.299ZM599.417 565.753C599.081 565.729 598.8 565.534 598.573 565.167C598.361 564.788 598.245 564.345 598.224 563.838C598.246 563.727 598.271 563.567 598.3 563.359C598.342 563.151 598.386 562.937 598.429 562.715C598.504 562.454 598.604 562.117 598.731 561.705C598.858 561.293 598.992 560.881 599.133 560.47C599.275 560.045 599.399 559.682 599.504 559.38C599.611 559.065 599.673 558.88 599.691 558.825C599.788 558.635 599.98 558.6 600.266 558.718C600.553 558.836 600.79 559.063 600.977 559.399C601.053 559.517 601.092 559.653 601.095 559.807C601.113 559.963 601.076 560.185 600.986 560.473C600.909 560.763 600.767 561.188 600.56 561.749C600.367 562.297 600.217 562.742 600.108 563.085C600.015 563.416 599.962 563.77 599.95 564.148C599.849 564.786 599.762 565.222 599.69 565.456C599.619 565.676 599.527 565.774 599.417 565.753ZM601.952 557.194C601.893 557.232 601.836 557.249 601.78 557.245C601.739 557.228 601.665 557.181 601.558 557.103C601.461 557.082 601.34 557.011 601.194 556.888C601.063 556.753 600.947 556.618 600.844 556.485C600.755 556.352 600.711 556.272 600.713 556.244C600.709 556.103 600.732 555.88 600.781 555.575C600.844 555.271 600.941 554.99 601.071 554.732C601.217 554.462 601.395 554.327 601.605 554.327C601.661 554.331 601.778 554.368 601.955 554.436C602.147 554.506 602.344 554.59 602.548 554.688C602.645 554.905 602.731 555.185 602.805 555.527C602.88 555.869 602.864 556.198 602.757 556.513C602.666 556.816 602.398 557.042 601.952 557.194ZM604.573 566.155C604.422 566.117 604.26 566.014 604.089 565.848C603.92 565.668 603.765 565.474 603.625 565.268C603.5 565.049 603.421 564.868 603.389 564.725C603.391 564.697 603.373 564.661 603.334 564.616C603.309 564.572 603.296 564.55 603.296 564.55C603.243 564.505 603.221 564.321 603.229 563.998C603.253 563.663 603.3 563.295 603.37 562.892C603.44 562.49 603.511 562.173 603.584 561.939C603.669 561.72 603.795 561.428 603.961 561.06C604.128 560.679 604.271 560.338 604.39 560.038L605.041 558.862L604.219 558.573C604.123 558.538 604.044 558.477 603.98 558.388C603.93 558.3 603.907 558.229 603.91 558.173C603.918 558.061 603.992 557.905 604.133 557.704C604.273 557.503 604.371 557.405 604.427 557.409C604.496 557.428 604.621 557.443 604.803 557.456C604.998 557.47 605.187 557.476 605.37 557.475C605.552 557.473 605.665 557.467 605.708 557.456C605.766 557.432 605.824 557.401 605.883 557.363C605.942 557.311 605.99 557.237 606.024 557.142C606.105 556.993 606.176 556.879 606.238 556.799C606.3 556.719 606.385 556.598 606.495 556.438C606.605 556.263 606.693 556.115 606.757 555.993C606.836 555.872 606.953 555.705 607.108 555.491C607.185 555.398 607.27 555.285 607.364 555.151C607.457 555.017 607.57 554.906 607.703 554.817C607.836 554.714 608.044 554.651 608.326 554.629C608.624 554.594 608.871 554.674 609.067 554.87C609.169 555.018 609.223 555.155 609.228 555.282C609.233 555.408 609.166 555.565 609.027 555.752C608.898 555.981 608.751 556.188 608.583 556.373C608.431 556.545 608.284 556.745 608.141 556.974C607.896 557.266 607.842 557.437 607.979 557.489C608.116 557.54 608.509 557.54 609.158 557.487C609.568 557.446 609.858 557.508 610.029 557.674C610.2 557.841 610.291 558.043 610.302 558.283C610.321 558.621 610.272 558.821 610.155 558.883C610.038 558.945 609.715 558.957 609.184 558.92C608.845 558.953 608.556 558.968 608.318 558.965C608.08 558.948 607.906 558.936 607.794 558.928C607.612 558.93 607.492 558.928 607.437 558.924C607.381 558.921 607.296 558.929 607.182 558.949C607.069 558.969 606.981 559.012 606.921 559.078C606.875 559.131 606.82 559.211 606.756 559.319C606.697 559.371 606.603 559.512 606.474 559.741C606.346 559.971 606.188 560.22 606.001 560.487C605.765 561.06 605.557 561.614 605.38 562.149C605.217 562.671 605.068 563.194 604.933 563.718C604.873 563.98 604.866 564.176 604.913 564.306C604.975 564.422 605.152 564.505 605.443 564.553C605.596 564.578 605.819 564.593 606.113 564.6C606.409 564.593 606.656 564.568 606.855 564.526C607.014 564.466 607.179 564.408 607.352 564.35C607.525 564.278 607.685 564.205 607.83 564.131C607.961 564.07 608.092 564.009 608.222 563.948C608.354 563.872 608.419 563.835 608.419 563.835C608.497 563.728 608.593 563.756 608.708 563.918C608.838 564.068 608.925 564.228 608.969 564.4C608.958 564.567 608.909 564.767 608.822 565C608.737 565.218 608.462 565.438 607.997 565.658C607.341 566.005 606.696 566.199 606.062 566.238C605.428 566.278 604.931 566.251 604.573 566.155ZM617.818 566.724C617.457 566.867 617.111 566.906 616.778 566.84C616.461 566.762 616.201 566.568 615.998 566.26C615.81 565.938 615.736 565.483 615.777 564.897C615.788 564.743 615.808 564.562 615.836 564.354C615.88 564.132 615.938 563.905 616.011 563.671C616.084 563.424 616.171 563.177 616.273 562.932C616.323 562.809 616.388 562.687 616.467 562.566C616.559 562.446 616.578 562.385 616.522 562.381C616.466 562.377 616.394 562.407 616.305 562.471C616.23 562.536 616.17 562.588 616.126 562.627C615.755 562.909 615.411 563.208 615.095 563.523C614.793 563.825 614.519 564.128 614.273 564.434C614.042 564.726 613.854 565.001 613.71 565.258C613.58 565.515 613.508 565.735 613.496 565.916C613.481 566.126 613.366 566.265 613.151 566.334C612.935 566.403 612.754 566.384 612.608 566.275C612.353 566.103 612.125 565.848 611.924 565.512C611.737 565.176 611.683 564.751 611.761 564.237C611.848 563.584 611.945 563.001 612.051 562.489C612.157 561.977 612.308 561.426 612.504 560.837C612.714 560.234 612.983 559.502 613.31 558.64C613.526 558.164 613.725 557.715 613.909 557.293C614.094 556.857 614.253 556.489 614.386 556.19C614.534 555.891 614.624 555.708 614.656 555.64C614.731 555.575 614.834 555.414 614.964 555.156C615.095 554.885 615.212 554.612 615.316 554.339C615.433 554.066 615.494 553.902 615.498 553.846C615.505 553.735 615.533 553.638 615.581 553.558C615.643 553.478 615.697 553.404 615.744 553.337C615.841 553.148 615.92 553.02 615.981 552.954C616.057 552.875 616.122 552.838 616.178 552.841C616.248 552.846 616.357 552.889 616.506 552.97C616.669 553.051 616.816 553.153 616.948 553.274C617.095 553.383 617.178 553.494 617.198 553.607C617.282 553.81 617.324 554.016 617.324 554.227C617.324 554.423 617.258 554.664 617.126 554.95C616.993 555.235 616.77 555.626 616.454 556.124C616.2 556.541 615.967 556.974 615.753 557.422C615.539 557.87 615.331 558.34 615.128 558.831C615.044 559.035 614.933 559.308 614.797 559.65C614.662 559.977 614.526 560.318 614.389 560.674C614.266 561.016 614.161 561.324 614.071 561.599C613.982 561.873 613.934 562.052 613.929 562.136C613.922 562.234 613.974 562.287 614.086 562.295C614.199 562.288 614.316 562.212 614.439 562.067C614.502 561.959 614.6 561.86 614.733 561.771C614.866 561.668 614.986 561.565 615.092 561.46C615.213 561.328 615.357 561.176 615.523 561.006C615.705 560.822 615.892 560.652 616.085 560.498C616.293 560.33 616.478 560.195 616.64 560.094C616.815 559.994 616.959 559.948 617.07 559.956C617.336 559.975 617.554 560.067 617.724 560.233C617.895 560.4 618.032 560.648 618.136 560.978C618.175 561.023 618.213 561.081 618.25 561.154C618.288 561.213 618.313 561.257 618.325 561.286C618.39 561.346 618.41 561.572 618.382 561.963C618.356 562.34 618.208 562.856 617.937 563.511C617.776 564.019 617.672 564.398 617.626 564.647C617.595 564.898 617.635 565.027 617.747 565.035C617.747 565.035 617.819 564.998 617.965 564.924C618.124 564.85 618.291 564.771 618.466 564.685C618.889 564.448 619.188 564.385 619.363 564.495C619.538 564.605 619.62 564.738 619.609 564.891C619.6 565.017 619.541 565.16 619.432 565.321C619.336 565.483 619.287 565.591 619.283 565.647C619.283 565.647 619.282 565.654 619.281 565.668C619.281 565.668 619.279 565.696 619.275 565.752C619.273 565.78 619.176 565.871 618.982 566.026C618.789 566.181 618.575 566.334 618.34 566.486C618.12 566.625 617.946 566.705 617.818 566.724Z" fill="white"/>
<path d="M208.011 379.125C208.011 379.125 223.011 410.384 213.011 411.635C203.011 412.886 200.511 383.502 200.511 383.502L208.011 379.125Z" fill="#ED9DA0"/>
<path d="M171.126 229.706C174.645 230.632 177.812 232.577 180.229 235.297C182.647 238.017 184.206 241.391 184.713 244.994L193.632 308.478L206.132 359.118C206.132 359.118 212.384 364.745 209.883 367.871C207.382 370.997 213.009 384.126 213.009 384.126L197.379 389.126C197.379 389.126 195.503 375.997 192.379 375.372C189.632 374.823 158.879 292.672 151.466 272.772C150.444 270.028 149.866 268.472 149.866 268.472C149.866 268.472 151.12 226.58 171.126 229.706Z" fill="#D6D6E3"/>
<path d="M151.12 579.185L163.32 602.329L142.997 608.256L138.668 587.325L151.12 579.185Z" fill="#ED9DA0"/>
<path d="M162.441 599.666L183.924 610.657C183.924 610.657 217.546 618.672 195.655 625.333C173.764 631.994 163.91 627.259 163.91 627.259C163.91 627.259 135.274 628.748 135.735 620.759C136.196 612.77 141.705 601.535 141.705 601.535C141.705 601.535 160.872 606.544 162.441 599.666Z" fill="#090814"/>
<path d="M106.73 378.809L116.108 492.281C116.108 492.281 116.421 560.114 126.424 573.243C136.427 586.372 136.737 592.94 136.737 592.94L157.37 582.309C157.37 582.309 146.742 564.599 148.93 561.888C150.279 560.169 151.238 558.177 151.743 556.051L146.116 486.03L156.744 364.118L106.73 378.809Z" fill="#090814"/>
<path d="M132.361 579.185L123.608 602.317L98.601 592.939L114.231 576.684L132.361 579.185Z" fill="#ED9DA0"/>
<path d="M186.13 379.125L191.13 483.531C191.13 483.531 166.748 552.931 145.491 564.18C145.491 564.18 145.491 577.934 140.491 580.435C139.001 581.204 137.68 582.264 136.606 583.552C135.532 584.841 134.727 586.331 134.239 587.935L106.731 581.058L119.231 561.052L146.739 494.152C146.739 494.152 151.115 492.276 152.366 486.024C153.617 479.772 156.117 479.772 149.866 478.524C143.615 477.276 143.614 471.024 143.614 471.024L122.983 375.995L186.13 379.125Z" fill="#090814"/>
<path d="M137.048 226.894C138.696 224.832 140.073 210.294 140.819 200.606C138.596 195.685 138.024 190.176 139.19 184.904C140.357 179.631 143.2 174.878 147.292 171.354C151.384 167.83 156.504 165.725 161.892 165.353C167.279 164.982 172.642 166.363 177.179 169.291C181.716 172.22 185.184 176.538 187.064 181.6C188.943 186.662 189.134 192.197 187.608 197.377C186.082 202.557 182.921 207.104 178.597 210.338C174.273 213.573 169.018 215.321 163.618 215.322C163.276 215.322 162.934 215.315 162.595 215.301C162.825 222.454 163.308 229.389 163.308 229.389C163.308 229.389 160.949 229.44 157.64 229.44C149.393 229.442 135.265 229.123 137.048 226.894Z" fill="#ED9DA0"/>
<path d="M132.987 217.202C132.987 217.202 156.744 214.702 165.497 222.202C168.293 224.589 171.289 226.732 174.451 228.607C177.091 230.191 179.291 232.413 180.848 235.069C182.405 237.725 183.269 240.73 183.361 243.807L188.004 385.996C188.004 385.996 117.358 379.744 104.229 385.996C104.229 385.996 103.604 371.617 102.353 369.741C101.441 368.374 99.865 313.841 99.078 284.392C98.5389 267.757 104.416 251.552 115.492 239.13C119.281 234.936 123.515 231.42 127.985 229.7C127.986 229.705 126.735 217.83 132.987 217.202Z" fill="#D6D6E3"/>
<path opacity="0.1" d="M150.181 268.153L188.003 370.478C188.003 370.478 151.431 301.288 150.181 268.153Z" fill="black"/>
<path d="M149.222 203.129C151.151 202.254 153.335 202.181 155.395 201.688C159.061 200.689 162.248 198.409 164.379 195.263C166.51 192.116 167.443 188.311 167.01 184.536C166.781 183.569 166.712 182.571 166.806 181.581C167.214 179.403 169.541 178.124 171.723 177.755C173.905 177.387 176.191 177.593 178.296 176.909C179.9 176.301 181.317 175.285 182.408 173.961C183.498 172.638 184.225 171.052 184.516 169.362C185.052 165.957 184.498 162.47 182.932 159.399L182.02 161.591C180.895 160.516 180.095 159.147 179.709 157.639C178.817 157.734 177.964 158.056 177.232 158.575C176.5 159.094 175.914 159.792 175.529 160.602C174.237 161.263 174.239 158.23 172.887 157.701C172.286 157.589 171.664 157.703 171.142 158.022C168.286 159.15 165.125 157.847 162.19 156.95C157.105 155.401 151.728 155.07 146.492 155.984C142.969 156.458 139.653 157.919 136.926 160.198C134.875 162.261 133.247 164.705 132.135 167.393C129.103 173.858 126.937 180.919 127.375 188.048C127.749 193.881 129.843 199.472 133.391 204.116C135.24 206.528 141.242 214.906 144.88 213.759C149.449 212.317 143.792 205.594 149.222 203.129Z" fill="#090814"/>
<path d="M121.509 590.227C121.509 590.227 129.775 585.105 130.809 587.154C131.843 589.203 135.975 597.911 135.975 597.911L140.625 610.716C140.625 610.716 169.039 628.644 144.758 629.668C120.477 630.692 114.278 616.863 114.278 616.863C114.278 616.863 86.897 605.082 91.03 597.911C95.163 590.74 109.63 583.302 109.63 583.302C109.63 583.302 116.859 595.862 121.509 590.227Z" fill="#090814"/>
<path d="M522.596 60.4261H732.208C736.451 60.4261 740.521 62.1118 743.522 65.1124C746.522 68.113 748.208 72.1826 748.208 76.4261L700.138 360.247C700.138 364.491 698.452 368.56 695.452 371.561C692.451 374.561 688.381 376.247 684.138 376.247L464.222 360.247C459.979 360.247 455.909 358.561 452.908 355.561C449.908 352.56 448.222 348.491 448.222 344.247L506.596 76.4261C506.596 72.1826 508.282 68.113 511.282 65.1124C514.283 62.1118 518.353 60.4261 522.596 60.4261Z" fill="#B3B3B3"/>
<path d="M503.334 228.322C503.334 228.322 503.321 228.321 503.296 228.321C502.89 228.314 502.486 228.243 502.083 228.11C501.68 227.976 501.357 227.603 501.115 226.991C500.872 226.353 500.764 225.287 500.79 223.793C500.808 222.754 500.97 221.49 501.275 220C501.579 218.511 501.962 216.909 502.423 215.194C502.909 213.454 503.433 211.727 503.995 210.014C504.557 208.301 505.092 206.702 505.599 205.216C506.132 203.73 506.598 202.459 506.996 201.401C507.42 200.345 507.724 199.64 507.907 199.289C508.092 198.861 508.39 198.499 508.8 198.202C509.236 197.881 509.683 197.724 510.139 197.732C511.076 197.748 511.679 198.012 511.949 198.523C512.219 199.01 512.349 199.544 512.339 200.126C512.33 200.633 512.094 201.807 511.632 203.649C511.169 205.465 510.438 208.138 509.439 211.668C511.57 211.553 513.751 211.388 515.985 211.174C518.244 210.96 520.236 210.754 521.963 210.556C522.394 209.043 522.811 207.644 523.214 206.359C523.617 205.049 523.965 203.953 524.26 203.071C524.554 202.164 524.755 201.559 524.861 201.257C525.283 200.327 525.725 199.689 526.187 199.342C526.674 198.996 527.171 198.827 527.678 198.836C528.337 198.847 528.89 199.072 529.338 199.511C529.813 199.925 530.041 200.613 530.025 201.575C530.014 202.183 529.83 203.308 529.472 204.948C529.114 206.589 528.676 208.443 528.158 210.512C528.534 210.772 528.858 211.082 529.13 211.441C529.428 211.801 529.574 212.133 529.569 212.437C529.562 212.842 529.454 213.233 529.244 213.61C529.061 213.961 528.65 214.271 528.012 214.538C527.833 214.611 527.515 214.694 527.057 214.788C526.542 216.73 526.041 218.596 525.554 220.386C525.092 222.152 524.698 223.665 524.372 224.926C524.047 226.162 523.855 226.957 523.798 227.311C523.63 228.245 523.338 229.025 522.921 229.652C522.505 230.303 521.878 230.622 521.042 230.607C520.409 230.596 519.895 230.296 519.5 229.706C519.105 229.116 518.923 227.922 518.954 226.124C518.978 224.781 519.144 223.226 519.454 221.458C519.764 219.664 520.138 217.834 520.576 215.967C518.671 216.237 516.615 216.468 514.407 216.657C512.2 216.821 510.045 216.872 507.943 216.81C507.159 219.66 506.511 221.929 506 223.617C505.515 225.307 505.075 226.515 504.683 227.243C504.29 227.971 503.84 228.33 503.334 228.322ZM565.519 206.262C565.485 208.237 565.271 210.324 564.878 212.521C564.51 214.694 563.929 216.825 563.132 218.914C562.361 220.978 561.353 222.848 560.108 224.524C558.862 226.2 557.369 227.529 555.629 228.512C553.915 229.496 551.917 229.968 549.638 229.928C547.029 229.882 544.941 229.01 543.374 227.31C541.808 225.611 541.055 223.038 541.115 219.594C541.144 217.897 541.363 216.241 541.771 214.626C542.206 212.987 542.662 211.513 543.141 210.204C543.094 209.975 543.074 209.708 543.079 209.404C543.098 208.315 543.28 207.292 543.626 206.335C543.998 205.354 544.457 204.5 545.001 203.775C545.572 203.025 546.165 202.44 546.78 202.02C547.421 201.6 548.02 201.395 548.577 201.405C549.16 201.415 549.663 201.627 550.086 202.04C550.536 202.427 550.752 203.103 550.735 204.065C550.725 204.648 550.496 205.455 550.047 206.486C549.624 207.492 549.134 208.699 548.577 210.108C548.021 211.492 547.512 213.054 547.051 214.794C546.616 216.51 546.381 218.355 546.347 220.331C546.299 223.067 547.643 224.458 550.378 224.506C551.797 224.531 553.02 224.147 554.047 223.354C555.1 222.536 555.968 221.436 556.651 220.055C557.359 218.674 557.944 217.113 558.405 215.373C558.866 213.633 559.227 211.84 559.487 209.995C559.748 208.124 559.944 206.329 560.075 204.608C560.168 203.647 560.471 202.956 560.985 202.534C561.525 202.112 562.162 201.908 562.896 201.921C563.378 201.929 563.819 202.026 564.222 202.21C564.624 202.369 564.947 202.755 565.19 203.367C565.432 203.98 565.542 204.944 565.519 206.262ZM576.908 232.532C576.173 232.519 575.594 232.307 575.171 231.894C574.772 231.507 574.579 230.959 574.591 230.249C574.603 229.591 574.79 229.037 575.152 228.587C575.515 228.112 576.207 227.668 577.228 227.255C577.304 227.231 577.381 227.207 577.457 227.183C576.826 227.045 576.389 226.683 576.146 226.096C575.928 225.509 575.826 224.836 575.839 224.076C575.847 223.646 575.935 222.95 576.104 221.991C576.272 221.031 576.481 219.932 576.731 218.695C576.981 217.458 577.243 216.234 577.517 215.022C577.792 213.786 578.027 212.7 578.22 211.766C578.739 209.621 579.393 207.733 580.181 206.099C580.97 204.466 582.018 203.205 583.326 202.316C584.634 201.401 586.301 200.961 588.328 200.997C589.873 201.024 591.387 201.38 592.87 202.064C594.379 202.724 595.743 203.647 596.964 204.834C598.185 206.021 599.149 207.406 599.856 208.989C600.589 210.573 600.938 212.302 600.906 214.176C600.869 216.304 599.995 218.43 598.286 220.554C596.577 222.677 594.198 224.701 591.149 226.624C588.126 228.522 584.6 230.221 580.57 231.722C579.907 231.964 579.309 232.156 578.774 232.299C578.264 232.467 577.642 232.545 576.908 232.532ZM580.288 226.13C583.986 224.725 586.974 223.371 589.252 222.068C591.53 220.765 593.188 219.375 594.228 217.898C595.292 216.422 595.841 214.734 595.874 212.834C595.893 211.77 595.556 210.751 594.864 209.776C594.171 208.801 593.273 208.013 592.168 207.411C591.065 206.783 589.892 206.459 588.651 206.437C587.308 206.414 586.222 206.94 585.393 208.015C584.564 209.064 583.886 210.877 583.36 213.452C583.114 214.486 582.853 215.609 582.579 216.821C582.33 218.007 582.082 219.156 581.834 220.266C581.613 221.352 581.42 222.261 581.255 222.993C581.115 223.725 581.032 224.154 581.004 224.281C580.864 225.038 580.626 225.655 580.288 226.13ZM613.603 233.173C612.869 233.16 612.29 232.947 611.866 232.534C611.467 232.147 611.274 231.599 611.287 230.89C611.298 230.231 611.485 229.677 611.848 229.228C612.211 228.752 612.903 228.308 613.923 227.896C614 227.872 614.076 227.848 614.153 227.824C613.522 227.686 613.085 227.324 612.841 226.737C612.624 226.15 612.521 225.477 612.535 224.717C612.542 224.286 612.63 223.591 612.799 222.631C612.968 221.671 613.177 220.573 613.427 219.336C613.676 218.098 613.938 216.874 614.213 215.663C614.488 214.426 614.722 213.341 614.916 212.407C615.435 210.262 616.088 208.373 616.877 206.74C617.666 205.107 618.714 203.846 620.022 202.956C621.33 202.042 622.997 201.602 625.023 201.637C626.568 201.664 628.082 202.02 629.565 202.705C631.074 203.364 632.439 204.288 633.66 205.475C634.88 206.661 635.844 208.046 636.552 209.63C637.284 211.213 637.634 212.942 637.601 214.817C637.564 216.944 636.691 219.07 634.982 221.194C633.272 223.318 630.893 225.341 627.845 227.264C624.822 229.163 621.295 230.862 617.266 232.363C616.603 232.604 616.004 232.797 615.47 232.939C614.96 233.108 614.338 233.186 613.603 233.173ZM616.983 226.771C620.682 225.366 623.67 224.012 625.948 222.709C628.225 221.406 629.884 220.016 630.923 218.539C631.988 217.063 632.537 215.375 632.57 213.475C632.588 212.411 632.252 211.392 631.559 210.417C630.867 209.442 629.968 208.653 628.864 208.051C627.76 207.424 626.588 207.099 625.346 207.078C624.004 207.054 622.918 207.58 622.088 208.655C621.259 209.705 620.582 211.517 620.055 214.092C619.809 215.127 619.549 216.25 619.274 217.461C619.026 218.648 618.777 219.796 618.53 220.907C618.308 221.993 618.115 222.901 617.95 223.633C617.811 224.366 617.727 224.795 617.7 224.921C617.56 225.679 617.321 226.295 616.983 226.771ZM655.544 233.563C654.606 233.546 653.635 233.301 652.63 232.828C651.624 232.38 650.776 231.63 650.085 230.579C649.419 229.529 649.101 228.142 649.131 226.42C649.163 224.596 649.348 222.712 649.686 220.767C650.05 218.797 650.501 216.866 651.041 214.975C651.607 213.06 652.208 211.259 652.846 209.572C653.509 207.886 654.156 206.39 654.786 205.083C655.443 203.777 656.043 202.762 656.588 202.036C657.158 201.286 657.608 200.914 657.938 200.92C658.621 200.932 659.225 201.195 659.748 201.711C660.296 202.228 660.562 203.005 660.543 204.044C660.539 204.297 660.376 204.915 660.055 205.897C659.76 206.855 659.371 208.052 658.89 209.488C658.434 210.924 657.926 212.486 657.364 214.174C656.828 215.837 656.318 217.525 655.832 219.24C655.371 220.955 654.975 222.569 654.645 224.084C654.34 225.599 654.178 226.901 654.159 227.99C654.153 228.294 654.328 228.449 654.683 228.455C655.189 228.464 655.939 228.35 656.931 228.114C657.948 227.879 659.056 227.581 660.253 227.222C661.476 226.838 662.648 226.466 663.769 226.105C664.89 225.745 665.845 225.445 666.635 225.205C667.425 224.966 667.87 224.847 667.972 224.848C668.605 224.859 669.108 225.046 669.482 225.407C669.856 225.768 670.037 226.278 670.025 226.937C670.017 227.392 669.704 227.919 669.086 228.516C668.468 229.088 667.646 229.682 666.622 230.298C665.598 230.888 664.449 231.425 663.174 231.91C661.923 232.42 660.636 232.828 659.314 233.135C657.991 233.441 656.734 233.584 655.544 233.563ZM685.65 232.416C684.966 232.404 684.221 232.226 683.417 231.883C682.638 231.515 681.901 230.906 681.206 230.058C680.511 229.21 679.949 228.047 679.519 226.57C679.088 225.093 678.893 223.227 678.932 220.973C678.961 219.301 679.206 217.608 679.667 215.893C680.153 214.153 680.891 212.519 681.881 210.991C682.87 209.463 684.135 208.142 685.675 207.029C687.24 205.916 689.103 205.15 691.264 204.732C692.154 204.545 693.17 204.372 694.313 204.215C695.482 204.033 696.663 203.876 697.856 203.745C699.049 203.588 700.179 203.469 701.245 203.386C702.336 203.303 703.248 203.269 703.983 203.282C705.199 203.303 706.108 203.483 706.71 203.823C707.312 204.163 707.711 204.55 707.906 204.984C708.101 205.393 708.196 205.762 708.19 206.091C708.183 206.497 708.05 206.9 707.789 207.301C707.554 207.702 706.916 207.957 705.876 208.065C705.647 208.087 705.165 208.142 704.429 208.23C703.693 208.293 702.804 208.392 701.763 208.526C700.747 208.66 699.668 208.806 698.525 208.963C697.408 209.096 696.316 209.241 695.249 209.4C694.208 209.534 693.306 209.658 692.544 209.771C690.867 210.046 689.503 210.529 688.452 211.22C687.401 211.886 686.577 212.682 685.978 213.609C685.404 214.536 684.982 215.517 684.71 216.551C685.727 216.341 686.783 216.131 687.876 215.922C688.969 215.713 689.998 215.529 690.964 215.368C691.955 215.208 692.806 215.084 693.517 214.995C694.228 214.906 694.71 214.864 694.963 214.868C695.951 214.885 696.544 215.022 696.742 215.279C696.966 215.536 697.073 215.931 697.064 216.463C697.055 216.944 696.615 217.494 695.743 218.112C694.871 218.705 693.492 219.302 691.607 219.902C689.721 220.503 687.255 221.017 684.207 221.445C684.206 221.471 684.206 221.483 684.206 221.483C684.147 221.989 684.099 222.571 684.062 223.229C684.025 223.862 684.002 224.495 683.991 225.128C683.979 225.761 684.008 226.281 684.077 226.688C684.146 227.094 684.282 227.299 684.485 227.303C685.042 227.313 685.816 227.212 686.808 227.001C687.8 226.791 688.843 226.53 689.938 226.22C691.033 225.91 692.052 225.611 692.994 225.323C693.937 225.01 694.626 224.769 695.059 224.599C695.697 224.357 696.335 224.115 696.972 223.872C697.635 223.631 698.157 223.513 698.537 223.52C698.917 223.526 699.243 223.684 699.517 223.993C699.79 224.276 699.872 224.708 699.76 225.289C699.73 225.542 699.457 225.955 698.94 226.529C698.449 227.078 697.767 227.699 696.893 228.394C696.046 229.063 695.033 229.717 693.857 230.355C692.706 230.968 691.43 231.478 690.03 231.884C688.655 232.266 687.195 232.443 685.65 232.416Z" fill="black"/>
<g clip-path="url(#clip1_42_101)">
<path d="M237.146 442C227.299 442.277 209.868 424.826 218.25 415.342C218.28 415.313 219.569 414.189 219.569 414.189C220.379 413.441 221.443 413.03 222.544 413.039C223.646 413.048 224.703 413.477 225.5 414.239L228.1 417.04C228.866 417.84 229.29 418.908 229.281 420.016C229.272 421.123 228.832 422.184 228.053 422.972L227.584 423.449C228.981 426.541 231.451 429.021 234.537 430.43L235.034 429.947C235.839 429.18 236.909 428.752 238.021 428.752C239.134 428.752 240.203 429.18 241.009 429.947L243.712 432.454C244.513 433.236 244.972 434.303 244.991 435.422C245.009 436.541 244.585 437.622 243.811 438.431C243.811 438.431 242.687 439.719 242.658 439.749C241.934 440.47 241.074 441.041 240.128 441.427C239.181 441.814 238.168 442.008 237.146 442ZM220.773 417.954C214.902 425.226 233.695 442.934 240.052 437.227C240.052 437.227 241.168 435.948 241.199 435.919C241.312 435.805 241.375 435.652 241.375 435.491C241.375 435.331 241.312 435.178 241.199 435.064L238.494 432.558C238.132 432.256 237.928 432.252 237.592 432.51L236.219 433.861C235.971 434.104 235.659 434.272 235.319 434.343C234.979 434.414 234.626 434.386 234.301 434.262C231.89 433.365 229.7 431.96 227.88 430.142C226.059 428.324 224.651 426.136 223.75 423.726C223.619 423.399 223.586 423.041 223.656 422.696C223.725 422.35 223.893 422.032 224.141 421.781L225.479 420.42C225.54 420.366 225.589 420.3 225.623 420.226C225.657 420.152 225.675 420.071 225.676 419.99C225.677 419.908 225.661 419.827 225.629 419.752C225.597 419.677 225.55 419.61 225.49 419.554L222.887 416.753C222.772 416.657 222.625 416.608 222.475 416.617C222.325 416.626 222.184 416.692 222.082 416.801C222.053 416.832 220.773 417.954 220.773 417.954ZM245 424.479C244.996 421.436 243.786 418.518 241.634 416.366C239.482 414.214 236.564 413.004 233.521 413C233.04 413 232.579 413.191 232.239 413.531C231.899 413.871 231.708 414.332 231.708 414.813C231.708 415.293 231.899 415.754 232.239 416.094C232.579 416.434 233.04 416.625 233.521 416.625C235.603 416.628 237.599 417.456 239.072 418.928C240.544 420.401 241.372 422.397 241.375 424.479C241.375 424.96 241.566 425.421 241.906 425.761C242.246 426.101 242.707 426.292 243.187 426.292C243.668 426.292 244.129 426.101 244.469 425.761C244.809 425.421 245 424.96 245 424.479ZM238.958 424.479C238.957 423.038 238.383 421.655 237.364 420.636C236.345 419.617 234.962 419.043 233.521 419.042C233.04 419.042 232.579 419.233 232.239 419.573C231.899 419.913 231.708 420.374 231.708 420.854C231.708 421.335 231.899 421.796 232.239 422.136C232.579 422.476 233.04 422.667 233.521 422.667C234.002 422.667 234.463 422.858 234.802 423.198C235.142 423.538 235.333 423.999 235.333 424.479C235.333 424.96 235.524 425.421 235.864 425.761C236.204 426.101 236.665 426.292 237.146 426.292C237.627 426.292 238.088 426.101 238.427 425.761C238.767 425.421 238.958 424.96 238.958 424.479Z" fill="white"/>
</g>
<defs>
<clipPath id="clip0_42_101">
<rect width="801.583" height="647.185" fill="white"/>
</clipPath>
<clipPath id="clip1_42_101">
<rect width="29" height="29" fill="white" transform="translate(216 413)"/>
</clipPath>
</defs>
</svg>
