<svg width="223" height="368" viewBox="0 0 223 368" fill="none" xmlns="http://www.w3.org/2000/svg">
<path d="M79.7456 0.700815C79.7456 0.700815 50.5636 -7.51975 41.933 32.3485C33.3025 72.2168 39.8832 92.3582 39.8832 92.3582L105.028 84.7549C105.028 84.7549 123.518 12.8232 79.7456 0.700815Z" fill="#090814"/>
<path d="M36.0902 173.377C36.0902 173.377 -6.71461 177.64 0.909746 194.922C8.5341 212.204 8.5341 213.728 8.5341 213.728L46.1463 280.82L58.346 268.112C58.346 268.112 44.6177 238.119 44.6177 228.467C44.6177 218.815 30.3857 202.042 30.3857 202.042L55.2911 200.008L36.0902 173.377Z" fill="#FFB9B9"/>
<path d="M153.385 193.904L167.617 224.909C167.617 224.909 178.29 235.582 189.981 278.277C201.671 320.972 204.212 319.447 204.212 319.447L186.427 323.005C186.427 323.005 166.6 276.755 159.993 273.194C153.385 269.634 145.252 237.107 145.252 237.107L121.872 207.628L128.988 191.872L153.385 193.904Z" fill="#FFB9B9"/>
<path d="M136.105 158.33L157.96 198.991C157.96 198.991 130.513 186.285 126.451 214.239L101.546 194.924C101.546 194.924 66.9836 206.106 46.1405 202.04C46.1405 202.04 52.2398 182.726 30.3846 174.086L79.687 167.987L77.6535 157.313L82.736 147.148L136.105 158.33Z" fill="#090814"/>
<path d="M49.1848 271.672C49.1848 271.672 35.4612 269.638 39.0197 281.837L46.1392 306.227C46.1392 306.227 36.991 331.132 51.2218 325.541C65.4526 319.95 74.602 285.388 74.602 285.388C74.602 285.388 80.7013 258.958 74.602 258.958C68.5028 258.958 49.1836 254.892 51.2218 258.958C53.2599 263.024 49.1848 271.672 49.1848 271.672Z" fill="#090814"/>
<path d="M202.687 312.331C202.687 312.331 184.898 307.756 180.832 314.872C176.767 321.988 177.787 345.369 177.787 345.877C177.787 346.385 183.886 351.468 185.919 351.468C187.953 351.468 200.66 374.34 217.941 366.208C235.222 358.077 202.687 312.331 202.687 312.331Z" fill="#090814"/>
<path d="M74.6043 62.7709C85.5522 62.7709 94.4272 53.896 94.4272 42.9481C94.4272 32.0002 85.5522 23.1252 74.6043 23.1252C63.6565 23.1252 54.7815 32.0002 54.7815 42.9481C54.7815 53.896 63.6565 62.7709 74.6043 62.7709Z" fill="#FFB9B9"/>
<path d="M90.8698 47.0151C90.8698 47.0151 94.9356 68.3631 98.4942 71.4121C102.053 74.4611 71.553 79.0365 71.553 79.0365C71.553 79.0365 76.1271 64.2961 70.5363 56.673C64.9454 49.0498 90.8698 47.0151 90.8698 47.0151Z" fill="#FFB9B9"/>
<path d="M144.238 167.983C140.777 167.983 131.963 166.55 122.083 164.703C113.532 163.108 104.176 161.212 96.7969 159.677C88.8926 158.03 83.2467 156.797 83.2467 156.797C83.2467 156.797 81.2132 169.504 74.6056 167.979C68.9128 166.667 51.9012 107.245 47.3013 90.8226C46.9652 89.6235 47.0302 88.3474 47.4863 87.1887C47.9424 86.0299 48.7647 85.0519 49.8279 84.4035L73.1929 70.1365L79.1809 72.4241C79.1809 72.4241 89.2956 64.6065 95.1664 64.4495C101.037 64.2925 111.202 62.7675 111.202 62.7675C111.202 62.7675 122.892 63.7842 124.926 72.4241C126.959 81.064 127.971 134.942 135.599 144.598C143.227 154.255 153.895 167.983 144.238 167.983Z" fill="#D6D6E3"/>
<path d="M73.0793 196.446C73.0793 196.446 73.0793 216.269 86.2946 213.219C99.5098 210.169 87.3113 191.872 87.3113 191.872L73.0793 196.446Z" fill="#FFB9B9"/>
<path d="M109.675 198.482C109.675 198.482 105.101 221.862 95.4429 218.305C85.7851 214.747 95.4429 193.908 95.4429 193.908L109.675 198.482Z" fill="#FFB9B9"/>
<path opacity="0.15" d="M131.023 143.078C131.023 143.078 126.047 154.951 122.082 164.705C113.531 163.109 104.175 161.213 96.7958 159.678C97.3259 158.274 98.0699 156.961 99.0015 155.785C102.559 151.719 100.524 150.702 100.524 150.702C97.4787 144.603 100.016 136.47 100.016 136.47C93.9166 120.206 103.061 99.8748 103.061 99.8748L131.023 143.078Z" fill="black"/>
<path d="M104.593 99.8737C104.593 99.8737 95.444 120.205 101.548 136.469C101.548 136.469 99.0061 144.602 102.056 150.701C102.056 150.701 104.09 151.718 100.534 155.784C96.9773 159.849 93.9259 174.081 96.4677 177.13C99.0096 180.179 92.9103 185.772 94.4343 188.821C95.9582 191.87 91.8925 195.937 91.8925 195.937C91.8925 195.937 107.141 198.982 109.682 203.561C109.682 203.561 112.727 200.004 111.205 195.937C109.682 191.87 110.696 190.346 112.221 187.804C113.746 185.262 118.321 179.671 118.829 177.13C119.337 174.59 132.553 143.077 132.553 143.077L126.349 85.6499L104.593 99.8737Z" fill="#D6D6E3"/>
<path d="M51.7325 85.6428L50.7825 85.815C49.4585 86.055 48.2616 86.7548 47.4029 87.7909C46.5443 88.827 46.0789 90.1329 46.0889 91.4785C46.1252 96.5821 46.4122 105.638 47.6656 118.171C49.699 138.503 56.8138 168.999 58.3389 172.054C60.7606 177.45 63.4756 182.71 66.4717 187.81C71.0458 195.434 72.0625 192.892 71.0458 196.451C70.7363 197.43 70.7153 198.479 70.9853 199.47C71.2553 200.461 71.805 201.354 72.5686 202.042C72.5686 202.042 81.7169 191.877 90.8663 197.467C91.5204 196.03 91.8667 194.472 91.883 192.893C91.883 190.351 93.4058 187.811 90.8663 186.286C88.3268 184.761 92.3891 178.153 88.3245 174.596C84.2599 171.038 83.7503 171.55 84.2587 167.988C84.496 165.569 84.1472 163.128 83.242 160.872L51.7325 85.6428Z" fill="#D6D6E3"/>
<path d="M82.0145 17.484C82.0145 17.484 73.7939 39.2712 53.6548 48.3094L50.3668 28.9914L82.0145 17.484Z" fill="#090814"/>
</svg>
