<svg width="91" height="142" viewBox="0 0 91 142" fill="none" xmlns="http://www.w3.org/2000/svg">
<path d="M61.8731 32.9413C69.4373 32.9413 75.5693 26.8093 75.5693 19.2451C75.5693 11.6809 69.4373 5.54889 61.8731 5.54889C54.3089 5.54889 48.1769 11.6809 48.1769 19.2451C48.1769 26.8093 54.3089 32.9413 61.8731 32.9413Z" fill="#2F2E41"/>
<path d="M27.7884 136.432H21.79L18.9369 113.301H27.7877L27.7884 136.432Z" fill="#FEB8B8"/>
<path d="M17.5081 134.718H29.0734V142H10.226C10.226 140.069 10.9932 138.216 12.3588 136.851C13.7245 135.485 15.5767 134.718 17.5081 134.718Z" fill="#2F2E41"/>
<path d="M18.427 133.085L12.7055 131.289L16.9086 108.364L25.353 111.015L18.427 133.085Z" fill="#FEB8B8"/>
<path d="M9.12811 128.373L20.1632 131.836L17.9828 138.784L0 133.14C0.286339 132.228 0.749587 131.381 1.3633 130.647C1.97701 129.914 2.72917 129.309 3.57683 128.866C4.42449 128.423 5.35104 128.152 6.30359 128.067C7.25614 127.982 8.21603 128.086 9.12846 128.373L9.12811 128.373Z" fill="#2F2E41"/>
<path d="M20.3782 123.855C20.1162 123.854 19.8563 123.807 19.611 123.715L15.1977 122.061C14.7024 121.873 14.2909 121.514 14.0382 121.049C13.7856 120.583 13.7085 120.043 13.8212 119.525C14.9319 114.531 18.7175 97.5275 20.7905 88.4076C23.2488 77.5899 59.1121 75.5797 60.6375 75.4995L60.7631 75.4929L64.7974 80.5605C66.2551 85.2462 65.793 88.901 63.424 91.4238C56.5109 98.7841 35.8712 94.2169 33.4101 93.6391L22.4404 122.437C22.2805 122.854 21.9979 123.213 21.6299 123.466C21.262 123.719 20.8259 123.855 20.3793 123.855H20.3782Z" fill="#2F2E41"/>
<path d="M26.7373 127.279C26.4752 127.279 26.2153 127.232 25.97 127.139L21.5581 125.485C21.0627 125.297 20.6512 124.938 20.3985 124.473C20.1459 124.007 20.0689 123.467 20.1816 122.949C21.2923 117.955 25.0779 100.951 27.1509 91.8315C29.6092 81.0138 65.4725 79.0036 66.9979 78.9234L67.1235 78.9168L71.1564 83.9858C72.6141 88.6715 72.152 92.3264 69.783 94.8492C62.8702 102.208 42.2302 97.6423 39.7691 97.0641L28.798 125.861C28.6381 126.278 28.3555 126.637 27.9876 126.89C27.6196 127.143 27.1835 127.278 26.7369 127.278L26.7373 127.279Z" fill="#2F2E41"/>
<path d="M13.9728 56.8295C14.1349 57.0464 14.2796 57.2756 14.4056 57.5151L38.531 60.0568L42.0045 55.295L49.8753 59.5968L43.0542 71.1513L13.4665 63.6073C12.72 64.3351 11.7696 64.8184 10.7417 64.9929C9.71387 65.1674 8.65724 65.0249 7.71237 64.5842C6.7675 64.1436 5.97916 63.4257 5.45222 62.5261C4.92528 61.6265 4.6847 60.5878 4.76248 59.5481C4.84026 58.5085 5.23271 57.5171 5.88763 56.7059C6.54256 55.8947 7.42892 55.3021 8.42884 55.007C9.42875 54.7118 10.4948 54.7281 11.4853 55.0536C12.4757 55.3791 13.3436 55.9984 13.9735 56.8291L13.9728 56.8295Z" fill="#FEB8B8"/>
<path d="M70.0365 85.9262C69.6877 85.9254 69.344 85.8417 69.0339 85.6821C64.2097 83.229 54.816 78.981 46.105 78.092C45.8069 78.0628 45.5182 77.9716 45.2574 77.8242C44.9967 77.6768 44.7696 77.4766 44.5908 77.2362C44.4085 76.9934 44.2783 76.7155 44.2081 76.4201C44.138 76.1246 44.1295 75.8179 44.1831 75.519C44.9692 71.1677 46.7722 60.0875 46.5399 51.2074C46.4715 48.477 47.3342 45.8046 48.986 43.6295C50.6379 41.4543 52.9807 39.906 55.6292 39.2389C57.2233 38.8183 58.8424 38.499 60.4768 38.283C62.3558 38.045 64.2645 38.2504 66.0499 38.8828C67.8353 39.5151 69.4478 40.5568 70.7582 41.9244C72.0687 43.292 73.0406 44.9475 73.5961 46.7583C74.1517 48.5691 74.2754 50.4848 73.9574 52.352C72.4041 61.5546 70.8379 74.4079 72.1991 83.3804C72.2616 83.7825 72.2116 84.1942 72.0545 84.5696C71.8975 84.9451 71.6396 85.2698 71.3094 85.5077C70.94 85.7782 70.4944 85.9247 70.0365 85.9262Z" fill="#CCCCCC"/>
<path d="M46.9866 62.5193C46.6859 62.5188 46.3885 62.4567 46.1127 62.3369L39.828 59.6167C39.2927 59.3842 38.8714 58.9489 38.6566 58.4063C38.4419 57.8636 38.4511 57.2579 38.6824 56.7221L43.5404 45.4999C43.8289 44.8199 44.2486 44.2033 44.7754 43.6855C45.3023 43.1677 45.926 42.7587 46.6109 42.4819C47.2958 42.2051 48.0285 42.0659 48.7672 42.0723C49.5058 42.0787 50.2361 42.2305 50.9161 42.519C51.5961 42.8076 52.2126 43.2273 52.7304 43.7541C53.2483 44.281 53.6573 44.9046 53.9341 45.5895C54.2108 46.2744 54.35 47.0071 54.3437 47.7458C54.3373 48.4845 54.1855 49.2147 53.8969 49.8948C53.8864 49.9195 53.8757 49.9441 53.8649 49.9687L49.0069 61.1913C48.8359 61.5852 48.5537 61.9206 48.1948 62.1565C47.836 62.3924 47.4161 62.5185 46.9866 62.5193Z" fill="#CCCCCC"/>
<path d="M61.3727 34.4653C68.0079 34.4653 73.3869 29.0863 73.3869 22.4511C73.3869 15.8158 68.0079 10.4369 61.3727 10.4369C54.7374 10.4369 49.3585 15.8158 49.3585 22.4511C49.3585 29.0863 54.7374 34.4653 61.3727 34.4653Z" fill="#FEB8B8"/>
<path d="M49.1422 16.5472C54.8329 20.0211 61.2485 22.135 67.8896 22.7245L65.9133 20.3569C67.3522 20.8889 68.8662 21.1895 70.3992 21.2476C71.1668 21.2698 71.9289 21.1118 72.6243 20.7863C73.3198 20.4608 73.9293 19.9767 74.4038 19.3731C74.7913 18.7465 75.0214 18.0355 75.0747 17.3007C75.1279 16.5659 75.0027 15.8292 74.7097 15.1533C74.1075 13.8046 73.1702 12.6325 71.987 11.7485C69.8897 10.0894 67.4145 8.97495 64.782 8.50447C62.1495 8.03398 59.4415 8.22209 56.8993 9.05201C55.1555 9.57313 53.5937 10.575 52.3929 11.9427C51.2539 13.3478 49.0613 14.5998 49.6444 16.3118L49.1422 16.5472Z" fill="#2F2E41"/>
<path d="M62.4468 6.42631C64.8415 3.99729 67.7396 2.12274 70.937 0.934648C72.9664 0.0809052 75.1923 -0.195356 77.3688 0.136374C79.5147 0.568118 81.5436 2.05237 82.1424 4.15774C82.6307 5.87913 82.1264 7.7327 81.3668 9.35401C80.6073 10.9753 79.5931 12.4774 78.9786 14.1583C78.3518 15.8735 78.1632 17.7181 78.4301 19.5247C78.697 21.3312 79.4109 23.0425 80.5069 24.5032C81.603 25.9639 83.0465 27.1277 84.7064 27.8889C86.3664 28.6502 88.1901 28.9848 90.0122 28.8624C87.904 29.1452 85.9608 30.136 83.9001 30.6629C81.8394 31.1899 79.4073 31.1547 77.8759 29.6781C76.2557 28.1161 76.2232 25.5765 76.3017 23.3275L76.6504 13.2969C76.7097 11.5919 76.7606 9.83214 76.1455 8.24013C75.5303 6.64811 74.069 5.25488 72.363 5.26953C71.0698 5.28034 69.9256 6.06397 68.8885 6.83643C67.8513 7.6089 66.7538 8.43298 65.4659 8.54807C64.178 8.66315 62.7073 7.71108 62.8036 6.42073" fill="#2F2E41"/>
<path d="M41.1738 82.8398C40.3778 82.8389 39.5919 82.6613 38.8727 82.3201C38.1535 81.9788 37.519 81.4822 37.0149 80.8662C36.5107 80.2502 36.1494 79.53 35.9571 78.7576C35.7648 77.9851 35.7461 77.1796 35.9026 76.3991C36.059 75.6186 36.3866 74.8825 36.8618 74.2438C37.337 73.6052 37.9479 73.0799 38.6505 72.7057C39.3532 72.3316 40.13 72.1179 40.9252 72.0802C41.7203 72.0424 42.5139 72.1815 43.2488 72.4874C43.4699 72.5807 43.6842 72.6893 43.8902 72.8124L65.7756 62.988L66.3904 57.0524L75.8243 56.7999L75.7619 66.6815C75.7504 67.8264 75.3701 68.937 74.6773 69.8485C73.9845 70.7601 73.0163 71.4239 71.9163 71.7414L46.3237 79.0249C46.2743 79.194 46.2161 79.3603 46.1494 79.5233C45.7387 80.5041 45.0478 81.3419 44.1632 81.9318C43.2786 82.5217 42.2395 82.8374 41.1763 82.8395L41.1738 82.8398Z" fill="#FEB8B8"/>
<path d="M75.0253 61.6418C74.757 61.7776 74.4637 61.8569 74.1635 61.8748L67.3282 62.295C66.7457 62.3301 66.173 62.1328 65.7358 61.7463C65.2987 61.3598 65.0326 60.8156 64.9961 60.2332L64.246 48.0272C64.1561 46.5391 64.6606 45.0761 65.6487 43.9597C66.6368 42.8434 68.0276 42.1649 69.5157 42.0733C71.0037 41.9818 72.4673 42.4846 73.5847 43.4715C74.7022 44.4583 75.3823 45.8484 75.4755 47.3364L76.226 59.5424C76.252 59.9711 76.1524 60.3982 75.9392 60.7711C75.726 61.1441 75.4086 61.4467 75.026 61.6418H75.0253Z" fill="#CCCCCC"/>
<path d="M61.2614 80.6497H20.4343C20.0919 80.6497 19.8143 80.9274 19.8143 81.2698V83.4536C19.8143 83.7961 20.0919 84.0737 20.4343 84.0737H61.2614C61.6038 84.0737 61.8815 83.7961 61.8815 83.4536V81.2698C61.8815 80.9274 61.6038 80.6497 61.2614 80.6497Z" fill="#3F3D56"/>
<path d="M4.12683 80.8946V56.9258C4.12785 56.0828 4.46315 55.2747 5.0592 54.6787C5.65526 54.0826 6.46338 53.7473 7.30633 53.7463H50.841C51.684 53.7472 52.4922 54.0825 53.0882 54.6785C53.6843 55.2746 54.0196 56.0828 54.0205 56.9258V80.8946C54.0196 81.7375 53.6843 82.5457 53.0882 83.1418C52.4922 83.7379 51.684 84.0731 50.841 84.0741H7.30633C6.46338 84.073 5.65526 83.7377 5.0592 83.1417C4.46315 82.5456 4.12785 81.7375 4.12683 80.8946Z" fill="#3F3D56"/>
<path d="M29.5973 71.8464C31.2182 71.8464 32.5323 70.5323 32.5323 68.9114C32.5323 67.2904 31.2182 65.9763 29.5973 65.9763C27.9763 65.9763 26.6622 67.2904 26.6622 68.9114C26.6622 70.5323 27.9763 71.8464 29.5973 71.8464Z" fill="white"/>
</svg>
