<svg width="176" height="234" viewBox="0 0 176 234" fill="none" xmlns="http://www.w3.org/2000/svg">
<path d="M110.846 223.325C111.177 223.349 111.506 223.252 111.772 223.052C111.888 222.903 111.974 222.731 112.023 222.549C112.073 222.366 112.086 222.175 112.061 221.987L112.034 212.287C109.174 211.104 106.147 210.374 103.062 210.123L88.7732 208.213C89.1015 208.257 86.5391 214.367 86.932 215.183C87.6244 216.621 92.9166 217.895 94.4102 218.574C99.6024 220.934 104.998 223.528 110.846 223.325Z" fill="#FFB8B8"/>
<path d="M66.0143 212.253C63.3164 212.683 60.3052 213.063 58.558 215.163C56.3424 217.826 57.2856 221.796 58.3425 225.096C58.407 225.521 58.5561 225.93 58.7812 226.297C59.0064 226.664 59.3028 226.983 59.6531 227.233C60.0034 227.484 60.4004 227.662 60.8206 227.756C61.2408 227.85 61.6757 227.86 62.0995 227.783C64.5599 227.939 67.1783 228.061 69.3281 226.854C70.3018 226.21 71.2392 225.514 72.136 224.767C73.7213 223.712 75.4639 222.915 77.2988 222.406C80.672 221.345 84.1443 220.63 87.6622 220.271C89.0483 220.208 90.4205 219.966 91.7447 219.551C92.4061 219.338 93.0096 218.975 93.5082 218.491C94.0068 218.007 94.3871 217.415 94.6198 216.76C95.1178 214.997 94.0932 213.2 93.1107 211.654C91.9785 209.629 90.5088 207.813 88.765 206.283C86.1025 204.215 84.7855 205.802 82.1036 207.126C77.0275 209.631 71.6039 211.359 66.0143 212.253Z" fill="#FFB8B8"/>
<path d="M58.9639 214.683L41.8334 209.62C39.7787 208.905 37.6317 208.489 35.4585 208.385C34.3704 208.34 33.2853 208.528 32.2757 208.937C31.2661 209.345 30.3553 209.964 29.6041 210.752C28.2757 212.311 27.8955 214.442 27.5644 216.463L26.8559 220.787C26.3836 222.967 26.2498 225.206 26.4593 227.427C26.5733 228.537 26.9391 229.607 27.5289 230.555C28.1186 231.503 28.9167 232.304 29.8625 232.897C32.233 234.19 35.1384 233.559 37.784 233.018C43.1281 231.925 48.5636 231.342 54.0177 231.277C56.0682 231.252 58.2188 231.278 60.0307 230.318C61.0824 229.694 61.9659 228.823 62.6044 227.781C63.2429 226.738 63.6171 225.555 63.6944 224.335C64.0315 220.642 62.8005 215.817 58.9639 214.683Z" fill="#2F2E41"/>
<path d="M117.579 210.271C119.8 209.882 121.76 208.62 123.888 207.875C126.883 206.826 130.129 206.826 133.302 206.838C134.469 206.731 135.642 206.966 136.677 207.514C138.075 208.444 138.434 210.307 138.671 211.969L140.105 221.999C140.489 223.87 140.528 225.796 140.222 227.681C140.057 228.622 139.642 229.502 139.02 230.228C138.399 230.955 137.595 231.501 136.69 231.811C134.45 232.393 132.254 230.962 130.139 230.022C124.853 227.673 118.708 228.273 113.196 226.517C112.669 226.412 112.171 226.196 111.733 225.883C111.296 225.57 110.93 225.169 110.66 224.704C110.472 224.147 110.404 223.556 110.463 222.971C110.557 219.747 109.877 215.345 110.848 212.264C111.721 209.493 115.1 210.271 117.579 210.271Z" fill="#2F2E41"/>
<path d="M118.846 18.1833C108.601 0.872055 88.3316 0.0653031 88.3316 0.0653031C88.3316 0.0653031 68.5803 -2.4605 55.9099 23.9047C44.1002 48.4793 27.8012 72.2065 53.2859 77.9592L57.8892 63.6318L60.74 79.0259C64.3686 79.2869 68.0087 79.3491 71.644 79.2123C98.9361 78.3311 124.928 79.4701 124.091 69.6765C122.978 56.6573 128.704 34.8401 118.846 18.1833Z" fill="#2F2E41"/>
<path d="M51.8307 169.786C51.5298 171.69 51.0931 173.57 50.5239 175.412C49.8827 177.215 48.8929 178.882 48.3068 180.703C46.4383 186.509 49.0286 192.982 53.1657 197.463C56.7534 201.334 61.3843 204.084 66.4999 205.381C70.2662 206.187 74.1075 206.591 77.959 206.585C88.6095 206.947 99.5339 207.27 109.626 203.847C112.814 202.739 115.894 201.34 118.826 199.667C119.752 199.226 120.567 198.584 121.213 197.788C121.889 196.621 122.19 195.275 122.075 193.932C122.052 189.417 121.137 184.925 121.354 180.415C121.474 177.917 121.942 175.421 121.712 172.93C121.393 170.102 120.208 167.442 118.32 165.313C116.431 163.183 113.93 161.69 111.16 161.037C108.261 160.59 105.311 160.59 102.413 161.038C94.8472 161.765 87.2493 162.104 79.6489 162.055C71.8832 162.006 64.1655 160.82 56.4385 160.697C54.1534 160.66 54.1995 161.365 53.472 163.576C52.8019 165.612 52.2538 167.685 51.8307 169.786Z" fill="#2F2E41"/>
<path d="M73.8691 58.2997C73.638 60.2824 72.9718 62.1895 71.9183 63.885C70.5673 65.7325 68.3645 66.7881 66.9111 68.5563C64.7234 71.2176 64.5978 74.9627 64.5888 78.4078C64.5805 81.5815 64.6449 84.9666 66.4148 87.6011C67.6744 89.2376 69.2378 90.6159 71.0193 91.6606C77.6565 96.1335 84.8287 100.687 92.8311 100.834C96.1468 100.895 99.702 100.039 101.884 97.5415C102.826 96.3683 103.566 95.047 104.075 93.6312C106.122 88.5873 107.362 83.253 107.751 77.8238C108.046 75.2714 107.808 72.6857 107.051 70.2302C106.079 67.5197 104.113 65.2895 102.814 62.7197C101.279 59.6639 100.717 56.2107 101.205 52.8257C101.27 52.5874 101.25 52.334 101.148 52.1087C101.042 51.9881 100.908 51.8939 100.759 51.8334C100.61 51.7728 100.448 51.7477 100.288 51.7599L84.4203 50.6177C82.9425 50.5442 81.471 50.3758 80.0148 50.1136C79.1594 49.9397 76.9001 48.7249 76.0845 49.048C74.5748 49.6459 74.1786 56.6793 73.8691 58.2997Z" fill="#FFB8B8"/>
<path opacity="0.1" d="M73.8691 58.2997C73.638 60.2824 72.9718 62.1895 71.9183 63.885C70.5673 65.7325 68.3645 66.7881 66.9111 68.5563C64.7234 71.2176 64.5978 74.9627 64.5888 78.4078C64.5805 81.5815 64.6449 84.9666 66.4148 87.6011C67.6744 89.2376 69.2378 90.6159 71.0193 91.6606C77.6565 96.1335 84.8287 100.687 92.8311 100.834C96.1468 100.895 99.702 100.039 101.884 97.5415C102.826 96.3683 103.566 95.047 104.075 93.6312C106.122 88.5873 107.362 83.253 107.751 77.8238C108.046 75.2714 107.808 72.6857 107.051 70.2302C106.079 67.5197 104.113 65.2895 102.814 62.7197C101.279 59.6639 100.717 56.2107 101.205 52.8257C101.27 52.5874 101.25 52.334 101.148 52.1087C101.042 51.9881 100.908 51.8939 100.759 51.8334C100.61 51.7728 100.448 51.7477 100.288 51.7599L84.4203 50.6177C82.9425 50.5442 81.471 50.3758 80.0148 50.1136C79.1594 49.9397 76.9001 48.7249 76.0845 49.048C74.5748 49.6459 74.1786 56.6793 73.8691 58.2997Z" fill="black"/>
<path d="M89.0436 60.4274C101.9 60.4274 112.323 50.0048 112.323 37.1479C112.323 24.2911 101.9 13.8685 89.0436 13.8685C76.1867 13.8685 65.7642 24.2911 65.7642 37.1479C65.7642 50.0048 76.1867 60.4274 89.0436 60.4274Z" fill="#FFB8B8"/>
<path d="M77.1342 89.2882C78.2842 90.62 79.6705 91.7277 81.2231 92.5555C82.8418 93.2245 84.5801 93.5555 86.3314 93.5282C90.5277 93.6462 95.0768 92.8773 97.996 89.8604C101.759 85.9715 101.635 79.699 104.585 75.1621C104.822 74.7508 105.146 74.3961 105.535 74.1227C106.03 73.8533 106.589 73.7247 107.152 73.751C110.877 73.7161 114.122 76.1322 117.05 78.4347C118.429 79.3832 119.611 80.5882 120.534 81.9839C121.113 83.1137 121.51 84.3281 121.709 85.582C123 92.7102 123.799 99.9188 124.1 107.157C124.358 111.148 124.617 115.144 124.597 119.143C124.534 132.321 121.471 145.279 118.425 158.1C118.033 159.752 117.496 161.598 115.994 162.39C115.324 162.691 114.605 162.866 113.872 162.908C105.164 164.08 96.4035 164.809 87.6224 165.093C84.1949 165.146 80.7688 165.063 77.3443 164.844C76.7548 164.837 76.1703 164.735 75.6129 164.543C74.8564 164.179 74.2063 163.627 73.7253 162.94C68.9745 156.953 68.6941 148.676 68.7245 141.034C68.7987 122.348 69.4663 103.678 70.7273 85.022C70.8314 83.4822 70.8541 81.6121 69.7446 80.4008C71.905 83.6025 74.3805 86.5798 77.1342 89.2882Z" fill="#D0CDE1"/>
<path d="M72.2031 62.4087C71.4169 63.8319 65.6203 67.366 64.5012 68.5456C58.2486 75.1363 46.8365 74.889 41.1181 81.9481C39.223 84.5366 37.9172 87.5083 37.2921 90.6548C36.2048 95.0427 35.6242 99.8281 37.4456 103.965C39.1983 107.947 42.8878 110.699 45.3928 114.255C48.1432 118.16 49.3798 122.901 50.565 127.527C51.44 130.944 52.3222 134.444 51.9815 137.954C51.594 141.945 49.6629 145.599 48.5227 149.443C47.3825 153.287 47.1857 157.865 49.822 160.886C51.7588 163.106 54.7968 163.985 57.7006 164.48C61.4198 165.039 65.1702 165.366 68.93 165.458C72.2494 165.605 75.9084 165.633 78.4602 163.505C79.4153 162.603 80.1748 161.514 80.6912 160.306C81.2076 159.097 81.47 157.796 81.4621 156.482C81.431 153.86 81.1723 151.245 80.689 148.667C80.3352 145.973 80.1992 143.254 80.0854 140.539C79.5749 128.355 79.5052 116.163 79.8764 103.964C80.0635 101.428 79.9391 98.8794 79.5062 96.3742C78.7943 93.1107 77.0306 90.1943 75.5589 87.1958C72.6177 81.5483 71.2855 75.201 71.7079 68.8476C72.1535 62.3183 75.0009 57.344 72.2031 62.4087Z" fill="#6C63FF"/>
<path d="M104.893 62.9039C106.091 64.1348 110.16 64.5406 111.684 65.3332C113.117 65.9952 114.612 66.5129 116.148 66.8788C121.705 68.4819 126.99 70.9078 131.829 74.0759C132.834 74.6641 133.723 75.4318 134.451 76.341C135.218 77.5888 135.713 78.9849 135.902 80.4374C136.797 84.1031 137.243 87.8643 137.23 91.6379C137.052 95.6353 135.848 99.5068 134.653 103.326L130.19 117.595C126.858 128.246 123.506 139.002 122.568 150.123C122.049 156.286 122.28 162.49 123.255 168.597C123.347 168.894 123.374 169.208 123.335 169.516C123.296 169.825 123.192 170.122 123.03 170.387C122.736 170.677 122.349 170.855 121.937 170.89C119.782 171.226 117.698 170.128 115.746 169.156C109.78 166.187 103.414 164.104 96.8475 162.972C99.4135 159.264 101.393 155.183 102.717 150.872C103.469 148.135 104.061 145.356 104.491 142.55L106.567 130.542C107.412 126.152 108.006 121.719 108.348 117.262C108.505 115.589 108.408 113.903 108.059 112.259C107.581 110.695 106.945 109.184 106.163 107.748C102.741 100.63 101.135 92.5075 102.482 84.7255C103.071 81.3198 104.216 77.9096 103.739 74.4865C103.28 71.1953 103.757 68.6375 102.912 65.3804C99.445 52.0071 102.64 60.5883 104.893 62.9039Z" fill="#6C63FF"/>
<path d="M41.0588 93.2019C39.4988 96.4391 36.8908 99.1969 36.0031 102.679C35.6577 104.306 35.5097 105.97 35.5623 107.632C35.4083 110.138 35.6564 112.653 36.2971 115.08C36.7925 116.616 37.5986 118.032 38.1793 119.537C38.9887 121.641 39.3492 123.89 39.2379 126.141C39.0812 129.259 38.0219 132.286 37.9391 135.407C37.8089 140.315 40.0791 144.929 42.2942 149.311C42.8517 147.93 43.7042 146.688 44.792 145.671C45.8798 144.654 47.1766 143.887 48.5917 143.424C50.0068 142.961 51.506 142.812 52.9846 142.989C54.4631 143.166 55.8851 143.663 57.1512 144.447C57.6586 143.824 57.8992 143.025 57.8209 142.226C57.9846 136.532 58.1425 130.837 58.2947 125.143C58.5345 116.336 58.7629 107.411 56.7369 98.837C55.9758 94.9141 54.2786 91.2331 51.7897 88.1069C50.4159 86.5259 45.7519 82.3613 43.4966 84.1325C42.4824 84.929 42.7195 87.0971 42.5588 88.195C42.3162 89.9305 41.8104 91.6189 41.0588 93.2019Z" fill="#6C63FF"/>
<path d="M137.686 83.8731C138.313 86.2074 138.582 88.6237 138.483 91.0388C138.513 95.9613 138.447 100.883 138.287 105.804C138.311 108.328 137.989 110.844 137.328 113.28C136.824 114.864 136.046 116.35 135.526 117.928C133.967 122.66 134.819 127.792 134.953 132.772C135.047 134.384 134.909 136.001 134.544 137.574C133.721 140.661 131.51 143.156 129.966 145.953C128.501 148.61 127.616 151.588 125.865 154.067C124.115 156.545 121.084 158.509 118.147 157.749C115.921 157.172 114.339 155.202 113.245 153.18C110.858 148.733 110.042 143.611 110.928 138.643C112.027 132.599 115.577 127.237 116.858 121.228C118.616 112.977 115.944 104.463 116.023 96.0266C115.987 94.7042 116.166 93.3847 116.554 92.12C117.379 90.2487 118.549 88.5489 120.001 87.1088C121.666 85.1775 123.213 83.1474 124.633 81.0294C125.587 79.6066 126.883 75.9471 128.574 75.6428C132.351 74.9635 136.749 80.9556 137.686 83.8731Z" fill="#6C63FF"/>
<path d="M21.4642 166.116C19.376 165.592 17.2243 165.363 15.0724 165.437C12.8114 165.562 10.6029 166.167 8.59383 167.211C6.58473 168.256 4.82103 169.716 3.42 171.495C2.01897 173.274 1.01272 175.331 0.468159 177.529C-0.0764047 179.727 -0.146773 182.016 0.261677 184.243C0.783121 186.656 1.63539 188.985 2.79439 191.164C4.4895 194.604 6.52256 198.036 9.66066 200.241C11.5514 201.453 13.5874 202.422 15.7204 203.125L32.2481 209.351C34.6795 210.267 37.1113 211.183 39.5668 212.033C51.9029 216.297 64.7642 218.854 77.7932 219.632C81.7578 220.004 85.7553 219.801 89.6621 219.031C90.6065 218.908 91.4721 218.44 92.0928 217.718C92.4078 217.169 92.5936 216.555 92.6359 215.924L93.6529 208.804C93.8805 207.812 93.8508 206.779 93.5664 205.803C92.9682 204.655 92.0003 203.743 90.8192 203.214C79.9534 196.973 67.2662 193.53 58.1203 184.965C55.9672 182.948 54.1654 179.752 51.5495 178.382C48.583 176.829 45.0894 175.942 42.0231 174.511C35.3199 171.382 28.7293 167.786 21.4642 166.116Z" fill="#2F2E41"/>
<path opacity="0.1" d="M37.9647 175.715C43.8066 177.546 68.4709 190.228 72.6984 194.655C72.1317 194.86 52.9054 184.085 52.3285 183.912C47.0403 182.459 41.8616 180.634 36.8312 178.45C35.8294 177.987 30.3226 175.809 30.572 174.545C30.8534 173.119 36.9276 175.39 37.9647 175.715Z" fill="black"/>
<path d="M153.831 162.08C157.254 161.221 160.802 160.979 164.31 161.364C167.112 161.672 169.998 162.452 172.044 164.391C174.533 166.751 175.333 170.401 175.4 173.831C175.509 180.662 173.244 187.319 168.99 192.666C167.951 194.018 166.716 195.207 165.325 196.194C163.825 197.132 162.226 197.903 160.557 198.491L123.544 213.091C113.806 216.931 104.034 220.783 93.8779 223.315C93.6002 223.449 93.2985 223.526 92.9906 223.542C92.6826 223.558 92.3746 223.512 92.0847 223.406C91.7948 223.301 91.5289 223.139 91.3026 222.93C91.0762 222.721 90.8941 222.468 90.7668 222.187C87.5239 217.555 84.8032 212.578 82.6546 207.348C82.5528 207.223 82.4825 207.076 82.4496 206.919C82.4167 206.762 82.4222 206.599 82.4655 206.444C82.5089 206.29 82.5888 206.148 82.6987 206.031C82.8085 205.913 82.945 205.824 83.0966 205.771L109.276 190.729C111.196 189.728 112.985 188.495 114.605 187.058C115.736 185.961 116.663 184.671 117.34 183.249C117.883 182.115 117.934 179.441 118.627 178.603C119.306 177.783 121.627 177.717 122.699 177.395C124.212 176.931 125.692 176.372 127.133 175.719C132.989 173.099 138.204 169.292 143.818 166.225C146.967 164.424 150.331 163.031 153.831 162.08Z" fill="#2F2E41"/>
<path opacity="0.1" d="M138.99 173.313C134.492 176.691 128.668 179.796 124.21 183.263C122.689 184.447 97.327 198.705 96.9684 200.599C101.127 201.3 127.619 182.767 131.41 180.917C135.137 178.936 138.649 176.575 141.89 173.871C142.738 173.212 146.334 171.228 143.898 170.491C142.526 170.076 140.003 172.638 138.99 173.313Z" fill="black"/>
<path d="M114.316 16.5142L94.2912 6.02515L66.6372 10.3162L60.9162 35.5862L75.1582 35.0381L79.1372 25.7542V34.8852L85.7092 34.6321L89.5232 19.8522L91.9072 35.5862L115.27 35.1092L114.316 16.5142Z" fill="#2F2E41"/>
<path d="M109.846 68.3523H66.7548V120.359H109.846V68.3523Z" fill="#3F3D56"/>
<path d="M46.2979 158.806C47.2039 160.346 48.4912 161.627 50.0358 162.525C51.0491 162.988 52.1549 163.213 53.2685 163.183C54.3822 163.153 55.4743 162.869 56.4614 162.353C58.4329 161.296 60.0465 159.678 61.0985 157.704C63.2748 153.861 63.7255 149.262 63.4539 144.854C63.1824 140.446 62.2411 136.105 61.8245 131.708C61.5217 128.512 61.4971 125.297 61.4727 122.086C61.3976 121.411 61.5392 120.73 61.8771 120.14C62.459 119.562 63.2117 119.186 64.0238 119.068C68.4161 117.763 71.3317 113.646 73.4218 109.569C74.8175 106.846 76.0312 103.87 75.762 100.822C75.4929 97.7742 73.3022 94.7039 70.2584 94.3929C67.7491 94.1366 65.432 95.7305 63.6219 97.4872C59.0557 101.947 56.1211 107.811 55.2896 114.139C54.8922 117.238 55.006 120.422 54.1632 123.43C52.3635 129.853 46.7326 133.792 43.9265 139.572C40.8345 145.941 42.5411 153.171 46.2979 158.806Z" fill="#FFB8B8"/>
<path d="M129.159 134.266C128.519 135.756 127.587 137.102 126.418 138.226C125.248 139.349 123.866 140.227 122.352 140.807C120.47 141.563 118.394 141.69 116.434 141.17C115.462 140.9 114.565 140.41 113.813 139.737C113.061 139.065 112.474 138.228 112.098 137.292C111.798 136.349 111.634 135.368 111.61 134.379C111.328 130.048 111.437 125.584 113.011 121.538C113.617 119.978 114.436 118.498 114.915 116.894C115.385 115.041 115.626 113.137 115.632 111.225L116.149 99.406C116.234 98.548 116.175 97.6816 115.973 96.8433C115.457 95.1331 113.859 94.0218 112.393 93.0019C108.851 90.5389 105.351 87.6647 103.635 83.7068C103.045 82.5151 102.834 81.1717 103.029 79.8566C103.513 77.5096 105.882 75.9903 108.223 75.4784C109.755 75.1435 111.338 75.1221 112.878 75.4155C114.419 75.709 115.884 76.3112 117.185 77.1859C118.486 78.0605 119.597 79.1896 120.45 80.5049C121.303 81.8203 121.882 83.2949 122.15 84.8397C122.381 86.1735 122.378 87.5359 122.514 88.8829C122.801 91.7401 123.709 94.4944 124.276 97.3095C125.674 104.244 124.949 111.411 126.332 118.344C127.487 124.141 131.845 127.923 129.159 134.266Z" fill="#FFB8B8"/>
<path d="M89.4052 93.8588C93.2712 93.8588 96.4052 90.7248 96.4052 86.8588C96.4052 82.9928 93.2712 79.8588 89.4052 79.8588C85.5392 79.8588 82.4052 82.9928 82.4052 86.8588C82.4052 90.7248 85.5392 93.8588 89.4052 93.8588Z" fill="#6C63FF"/>
</svg>
