<svg width="808" height="1027" viewBox="0 0 808 1027" fill="none" xmlns="http://www.w3.org/2000/svg">
<path d="M414.243 1022.79H79.17C35.512 1022.79 0 987.274 0 943.616V79.17C0 35.512 35.512 0 79.17 0H414.243C457.901 0 493.413 35.512 493.413 79.17V943.599C493.413 987.257 457.901 1022.77 414.243 1022.77V1022.79Z" fill="#2F2E43"/>
<path d="M414.588 1001.41H78.8427C46.0863 1001.41 19.4265 974.753 19.4265 941.997V75.915C19.4265 43.1586 46.0863 16.4988 78.8427 16.4988H414.588C447.344 16.4988 474.004 43.1586 474.004 75.915V941.997C474.004 974.753 447.344 1001.41 414.588 1001.41Z" fill="white"/>
<path d="M299.148 72.8495H192.302C179.988 72.8495 169.965 62.8262 169.965 50.5124C169.965 38.1986 179.988 28.1754 192.302 28.1754H299.148C311.462 28.1754 321.485 38.1986 321.485 50.5124C321.485 62.8262 311.462 72.8495 299.148 72.8495Z" fill="#2F2E43"/>
<path d="M317.989 430.191L284.785 404.358C284.785 404.358 246.896 416.172 245.914 416.654C244.933 417.136 187.101 551.262 187.101 551.262C187.101 551.262 335.245 627.074 324.413 619.686C313.58 612.314 315.819 512.392 325.894 499.355C336.003 486.3 327.375 453.578 327.375 453.578L318.023 430.208H317.972L317.989 430.191Z" fill="#2F2E43"/>
<path d="M226.178 490.623H271.214V562.06L221.562 545.751L226.178 490.623Z" fill="#F3A3A6"/>
<path d="M324.12 659.83C317.507 662.568 310.704 664.945 303.729 666.926C287.024 671.713 269.371 674.245 251.167 674.245C235.219 674.245 219.72 672.299 204.891 668.596C199.656 667.305 194.506 665.789 189.478 664.067C183.123 661.897 176.923 659.434 170.878 656.61L173.754 642.556L181.349 605.357L190.253 561.888L191.906 553.708L195.85 534.436L195.901 534.195H285.973L286.025 534.367L310.032 613.348L320.073 646.431L324.137 659.847L324.12 659.83Z" fill="#6C63FF"/>
<path d="M354.827 643.762C345.165 650.014 334.883 655.404 324.12 659.83C317.506 662.568 310.704 664.945 303.729 666.926L300.456 653.337L288.212 602.515L271.73 534.212H271.747C271.747 534.212 273.332 534.178 276.018 534.178C278.533 534.178 281.994 534.212 286.007 534.35C295.634 534.694 308.361 535.676 318.316 538.259C325.997 540.24 332.025 543.185 333.747 547.508C335.452 551.796 342.565 584.656 351.761 629.054C352.76 633.842 353.759 638.733 354.809 643.762H354.827Z" fill="#6C63FF"/>
<path d="M265.048 510.377C292.365 510.377 314.51 488.232 314.51 460.915C314.51 433.598 292.365 411.453 265.048 411.453C237.731 411.453 215.586 433.598 215.586 460.915C215.586 488.232 237.731 510.377 265.048 510.377Z" fill="#F3A3A6"/>
<path d="M326.669 451.839V451.908L314.544 453.992C313.89 451.322 313.149 448.842 312.392 446.569C311.462 443.813 310.48 441.333 309.447 439.112C306.812 433.463 303.849 429.502 300.818 426.764C289.435 416.448 276.828 423.302 275.157 422.957C272.953 422.51 243.245 454.749 239.439 490.606C239.043 494.584 238.939 498.614 239.232 502.661C239.249 502.816 239.249 502.954 239.249 503.109C240.042 515.337 235.753 525.584 229.433 533.902C229.364 533.988 229.295 534.074 229.226 534.161C226.987 537.088 224.473 539.775 221.872 542.238C214.363 549.264 205.89 554.379 199.57 557.617C194.696 560.131 191.114 561.526 190.235 561.854C190.097 561.905 190.029 561.923 190.029 561.923C190.029 561.923 181.986 577.026 181.349 605.322C181.09 617.188 182.124 631.362 185.585 647.723C186.309 651.133 187.118 654.612 188.065 658.194C188.582 660.175 189.064 662.138 189.477 664.032C183.123 661.862 176.923 659.4 170.878 656.575C166.055 654.354 161.371 651.942 156.79 649.325C152.605 646.965 148.506 644.434 144.528 641.747C146.629 636.735 148.661 632.361 150.435 628.899C151.641 626.54 152.726 624.628 153.604 623.233C164.437 605.994 157.048 575.993 157.048 575.993C140.326 561.234 159.993 528.753 159.993 528.753C159.993 528.753 156.532 485.439 166.882 477.086C177.233 468.717 177.715 448.033 177.715 448.033C195.953 368.794 255.49 384.053 255.49 384.053C330.423 375.821 326.841 449.187 326.686 451.787L326.669 451.839Z" fill="#2F2E43"/>
<path d="M235.236 534.505L231.93 549.144L226.849 571.532L207.974 654.974L204.891 668.596C199.656 667.305 194.506 665.789 189.477 664.067C183.122 661.897 176.922 659.434 170.878 656.61C166.055 654.388 161.371 651.977 156.79 649.359C157.806 644.451 158.788 639.646 159.769 634.944C169.999 585.345 178.094 547.645 179.936 543.03C181.676 538.656 187.256 536.124 194.248 534.729C194.765 534.626 195.316 534.522 195.85 534.436C196.349 534.35 196.883 534.264 197.382 534.195C205.615 532.989 215.156 533.076 222.613 533.454C225.196 533.592 227.521 533.764 229.45 533.919C230.535 534.006 231.517 534.109 232.309 534.178C234.169 534.367 235.254 534.505 235.254 534.505H235.236Z" fill="#6C63FF"/>
<path d="M251.167 677.689C235.219 677.689 219.358 675.761 204.047 671.937C198.777 670.646 193.49 669.078 188.341 667.322C181.831 665.1 175.459 662.551 169.414 659.744C164.626 657.54 159.804 655.06 155.068 652.356C150.814 649.962 146.612 647.361 142.582 644.64C88.2631 608.198 55.8167 547.525 55.8167 482.356C55.8167 374.649 143.443 287.006 251.167 287.006C358.891 287.006 446.517 374.632 446.517 482.356C446.517 549.006 412.934 610.42 356.704 646.655C346.836 653.027 336.313 658.539 325.446 663.016C318.712 665.806 311.737 668.234 304.693 670.249C287.385 675.192 269.388 677.707 251.184 677.707L251.167 677.689ZM251.167 293.878C147.249 293.878 62.7055 378.421 62.7055 482.339C62.7055 545.217 93.9981 603.738 146.422 638.922C150.297 641.54 154.344 644.037 158.46 646.345C163.041 648.963 167.691 651.357 172.307 653.475C178.145 656.196 184.276 658.642 190.58 660.795C195.54 662.5 200.637 663.998 205.718 665.255C220.494 668.941 235.788 670.801 251.184 670.801C268.733 670.801 286.111 668.372 302.799 663.602C309.602 661.673 316.335 659.313 322.828 656.627C333.316 652.304 343.46 647 352.984 640.851C407.251 605.891 439.646 546.629 439.646 482.339C439.646 378.421 355.102 293.878 251.184 293.878H251.167Z" fill="#2F2E43"/>
<path d="M480.979 552.743C484.647 549.144 489.159 546.492 494.154 545.01L530.475 505.417L549.626 523.776L510.704 561.974C509.033 566.865 506.209 571.24 502.437 574.736C493.12 583.64 480.772 585.93 474.848 579.851C468.906 573.789 471.644 561.647 480.944 552.76H480.979V552.743Z" fill="#F3A3A6"/>
<path d="M496.117 534.918L515.406 559.167L615.104 483.7L615.191 483.528L673.453 374.805C682.374 358.151 677.431 337.433 661.948 326.617C652.476 319.987 640.696 318.144 629.64 321.537C618.583 324.929 609.886 333.075 605.753 343.874L567.95 442.815L496.117 534.884V534.918Z" fill="#D5D5D6"/>
<path d="M660.295 283.441H619.651V347.921L664.463 333.196L660.295 283.441Z" fill="#F3A3A6"/>
<path d="M580.557 256.644C580.557 281.306 600.534 301.283 625.197 301.283C649.859 301.283 669.836 281.306 669.836 256.644C669.836 231.982 649.859 212.004 625.197 212.004C600.534 212.004 580.557 231.982 580.557 256.644Z" fill="#F3A3A6"/>
<path d="M656.782 285.181L661.139 293.447L680.359 256.919C691.932 221.476 651.512 201.12 651.512 201.12C638.32 185.585 611.815 203.755 611.815 203.755C573.582 195.264 592.044 227.487 592.044 227.487C592.044 227.487 605.081 227.779 605.081 238.319C605.081 248.876 619.289 248.136 619.289 248.136L630.415 267.614L636.563 260.14C659.417 250.461 656.782 285.181 656.782 285.181Z" fill="#2F2E43"/>
<path d="M676.76 944.133H640.696V995.299H676.76V944.133Z" fill="#F3A3A6"/>
<path d="M605.58 1026.26C621.408 1026.26 644.52 1024.61 644.692 1024.59C650.875 1025.15 681.737 1027.57 683.269 1020.51C684.681 1014.02 682.598 1007.23 682.305 1006.3C679.325 976.803 678.223 976.458 677.569 976.269C676.518 975.959 673.453 977.423 668.476 980.626L668.166 980.833L668.097 981.194C668.011 981.642 665.806 992.475 655.352 990.822C648.188 989.685 645.863 988.1 645.122 987.325C645.725 987.05 646.483 986.568 647.017 985.741C647.792 984.536 647.93 982.986 647.413 981.126C646.07 976.234 642.04 968.984 641.867 968.674L641.402 967.847L600.414 995.506L575.097 1002.74C573.186 1003.27 571.653 1004.65 570.878 1006.48C569.81 1009.03 570.465 1011.99 572.531 1013.85C577.13 1017.98 586.274 1025.06 595.85 1025.94C598.399 1026.18 601.774 1026.26 605.563 1026.26H605.58Z" fill="#2F2E43"/>
<path d="M753.115 867.432L725.328 890.42L757.943 929.844L785.73 906.857L753.115 867.432Z" fill="#F3A3A6"/>
<path d="M750.66 976.028C762.853 965.936 779.61 949.936 779.73 949.816C784.845 946.32 810.179 928.512 806.855 922.088C803.807 916.181 797.883 912.272 797.056 911.755C775.959 890.899 774.908 891.347 774.271 891.622C773.255 892.053 771.826 895.118 770.034 900.767L769.931 901.112L770.103 901.439C770.344 901.852 775.546 911.617 766.435 916.99C760.183 920.676 757.393 920.934 756.326 920.814C756.618 920.211 756.894 919.35 756.773 918.368C756.601 916.956 755.723 915.664 754.138 914.562C749.971 911.652 742.255 908.621 741.928 908.5L741.05 908.156L727.1 955.585L712.203 977.302C711.083 978.938 710.773 980.971 711.341 982.882C712.151 985.534 714.545 987.394 717.318 987.515C723.483 987.773 735.039 987.394 742.978 981.969C745.08 980.523 747.732 978.439 750.66 976.028Z" fill="#2F2E43"/>
<path d="M581.073 549.557L636.046 958.461H677.276L704.763 549.557H581.056H581.073Z" fill="#2F2E43"/>
<path d="M687.575 772.91L769.673 879.429L734.54 908.448L593.646 774.443L581.056 549.557L606.252 572.084L687.575 772.91Z" fill="#2F2E43"/>
<path d="M606.252 309.016L581.056 549.557H704.763L714.355 471.489C720.262 423.267 710.429 374.426 686.318 332.266L667.339 299.096L606.252 309.016Z" fill="#D5D5D6"/>
<path d="M595.161 617.912C597.004 613.107 600.018 608.818 603.944 605.408L620.564 554.293L645.622 563.059L626.075 613.95C626.609 619.083 625.834 624.232 623.853 629.003C619.083 640.955 608.784 648.171 600.879 645.105C592.974 642.04 590.425 629.864 595.196 617.912H595.161Z" fill="#F3A3A6"/>
<path d="M601.585 595.299L629.192 609.352L688.591 499.32V499.131L696.496 376.044C697.702 357.203 684.613 340.395 666.03 336.985C654.646 334.901 643.159 338.104 634.531 345.785C625.868 353.466 621.339 364.506 622.062 376.044L628.727 481.736L601.585 595.316V595.299Z" fill="#D5D5D6"/>
</svg>
